<svg width="29" height="25" viewBox="0 0 58 50" fill="none" xmlns="http://www.w3.org/2000/svg" class="absolute left-[calc(50%-15px)]"><path fill-rule="evenodd" clip-rule="evenodd" d="M40.0372 27.1895L57.0418 44.7919C57.2459 45.0002 57.4085 45.2481 57.52 45.5215C57.6316 45.7948 57.6901 46.0883 57.6921 46.3851C57.6941 46.6818 57.6395 46.9761 57.5316 47.251C57.4237 47.5259 57.2645 47.7762 57.0632 47.9874L55.8155 49.2745C55.4649 49.6549 55.0017 49.9033 54.4992 49.9803C54.1675 50.0261 53.8299 49.9919 53.5131 49.8802C53.1962 49.7686 52.9086 49.5825 52.6727 49.3367L31.908 27.8419C31.5469 27.4688 31.2605 27.0257 31.0651 26.5379C30.8696 26.0502 30.769 25.5272 30.769 24.9992C30.769 24.4711 30.8696 23.9482 31.0651 23.4604C31.2605 22.9726 31.5469 22.5295 31.908 22.1564L52.6727 0.661657C52.875 0.451907 53.1153 0.285498 53.3798 0.171963C53.6442 0.058428 53.9278 0 54.2141 0C54.5004 0 54.7839 0.058428 55.0484 0.171963C55.3129 0.285498 55.5532 0.451907 55.7555 0.661657L57.0418 2.01534C57.2444 2.22475 57.4051 2.47345 57.5148 2.74724C57.6245 3.02102 57.6809 3.31451 57.6809 3.6109C57.6809 3.90729 57.6245 4.20078 57.5148 4.47456C57.4051 4.74835 57.2444 4.99708 57.0418 5.20649L40.0372 22.8133C39.4795 23.3952 39.1666 24.1817 39.1666 25.0014C39.1666 25.8211 39.4795 26.6076 40.0372 27.1895ZM17.6542 22.832L0.656198 5.22496C0.449941 5.01641 0.285728 4.76752 0.17309 4.49273C0.0604508 4.21794 0.00162815 3.92273 3.33215e-05 3.62421C-0.00156151 3.32569 0.0541072 3.0298 0.163803 2.75374C0.273499 2.47767 0.435047 2.22693 0.639064 2.01603L1.88198 0.724447C2.23593 0.346452 2.69948 0.098649 3.20204 0.018761C3.53363 -0.0257258 3.87066 0.00915515 4.18719 0.120727C4.50372 0.232298 4.79132 0.417564 5.02785 0.662303L25.7846 22.1574C26.1455 22.5304 26.4318 22.9736 26.6272 23.4614C26.8225 23.9492 26.9231 24.472 26.9231 25.0001C26.9231 25.5282 26.8225 26.0511 26.6272 26.5389C26.4318 27.0267 26.1455 27.4698 25.7846 27.8429L5.02785 49.338C4.82526 49.5478 4.58472 49.7143 4.31998 49.8279C4.05524 49.9415 3.77148 50 3.48491 50C3.19834 50 2.91458 49.9415 2.64984 49.8279C2.3851 49.7143 2.14456 49.5478 1.94198 49.338L0.656198 48.0064C0.453517 47.7966 0.292738 47.5476 0.183043 47.2734C0.0733481 46.9992 0.0168929 46.7054 0.0168929 46.4086C0.0168929 46.1119 0.0733481 45.818 0.183043 45.5439C0.292738 45.2697 0.453517 45.0206 0.656198 44.8108L17.6542 27.2082C18.2117 26.6263 18.5245 25.8398 18.5245 25.0201C18.5245 24.2004 18.2117 23.4139 17.6542 22.832Z" fill="black"></path></svg>