<svg width="156" height="44" viewBox="0 0 156 44" fill="none" xmlns="http://www.w3.org/2000/svg">
<path fill-rule="evenodd" clip-rule="evenodd" d="M68.1838 12H65V19.876C65 20.3334 65.3559 20.6893 65.8133 20.6893H67.3704C67.6359 20.6893 67.8362 20.8895 67.8362 21.155V22.6565C67.8362 22.922 67.6359 23.1223 67.3704 23.1223H65.8133C65.3559 23.1223 65 23.4782 65 23.9356V31.8116H68.1838V23.9356C68.1838 23.6701 68.384 23.4699 68.6495 23.4699H73.0428C73.3083 23.4699 73.5086 23.6701 73.5086 23.9356V25.4371C73.5086 25.8946 73.8644 26.2504 74.3219 26.2504H75.879C76.1445 26.2504 76.3447 26.4507 76.3447 26.7162V28.2177C76.3447 28.6751 76.7006 29.031 77.1581 29.031H78.7152C78.9807 29.031 79.1809 29.2313 79.1809 29.4968V30.9983C79.1809 31.4557 79.5368 31.8116 79.9942 31.8116H81.5514C82.0088 31.8116 82.3647 31.4557 82.3647 30.9983V29.4968C82.3647 29.0393 82.0088 28.6834 81.5514 28.6834H80.022C79.7468 28.6834 79.5285 28.4737 79.5285 28.2177V26.7162C79.5285 26.2587 79.1726 25.9029 78.7152 25.9029H77.1859C76.9106 25.9029 76.6923 25.6931 76.6923 25.4371V23.9356C76.6923 23.4782 76.3364 23.1223 75.879 23.1223H74.3219C74.0564 23.1223 73.8561 22.922 73.8561 22.6565V21.155C73.8561 20.8895 74.0564 20.6893 74.3219 20.6893H75.879C76.3364 20.6893 76.6923 20.3334 76.6923 19.876V18.3745C76.6923 18.1185 76.9106 17.9087 77.1859 17.9087H78.7152C79.1726 17.9087 79.5285 17.5529 79.5285 17.0954V15.5939C79.5285 15.3379 79.7468 15.1281 80.022 15.1281H81.5514C82.0088 15.1281 82.3647 14.7723 82.3647 14.3148V12.8133C82.3647 12.3559 82.0088 12 81.5514 12H79.9942C79.5368 12 79.1809 12.3559 79.1809 12.8133V14.3148C79.1809 14.5803 78.9807 14.7806 78.7152 14.7806H77.1581C76.7006 14.7806 76.3447 15.1364 76.3447 15.5939V17.0954C76.3447 17.3609 76.1445 17.5611 75.879 17.5611H74.3219C73.8644 17.5611 73.5086 17.917 73.5086 18.3745V19.876C73.5086 20.1415 73.3083 20.3417 73.0428 20.3417H68.6495C68.384 20.3417 68.1838 20.1415 68.1838 19.876V12ZM94.2618 12H91.0781V17.0954C91.0781 17.3609 90.8778 17.5611 90.6123 17.5611H89.0552C88.5978 17.5611 88.2419 17.917 88.2419 18.3745V25.4371C88.2419 25.7026 88.0416 25.9029 87.7762 25.9029H86.219C85.7616 25.9029 85.4057 26.2587 85.4057 26.7162V31.8116H88.5895V26.7162C88.5895 26.4507 88.7897 26.2504 89.0552 26.2504H90.6123C91.0698 26.2504 91.4257 25.8946 91.4257 25.4371V18.3745C91.4257 18.109 91.6259 17.9087 91.8914 17.9087H93.4485C93.906 17.9087 94.2618 17.5529 94.2618 17.0954V12ZM100.148 30.9983C100.148 31.4557 100.504 31.8116 100.962 31.8116H111.027C111.485 31.8116 111.841 31.4557 111.841 30.9983V29.4968C111.841 29.2313 112.041 29.031 112.306 29.031H113.864C114.321 29.031 114.677 28.6751 114.677 28.2177V15.5939C114.677 15.1364 114.321 14.7806 113.864 14.7806H112.306C112.041 14.7806 111.841 14.5803 111.841 14.3148V12.8133C111.841 12.3559 111.485 12 111.027 12H100.962C100.504 12 100.148 12.3559 100.148 12.8133V14.3148C100.148 14.5803 99.9481 14.7806 99.6827 14.7806H98.1255C97.6681 14.7806 97.3122 15.1364 97.3122 15.5939V28.2177C97.3122 28.6751 97.6681 29.031 98.1255 29.031H99.6827C99.9481 29.031 100.148 29.2313 100.148 29.4968V30.9983ZM100.962 28.6834C100.696 28.6834 100.496 28.4832 100.496 28.2177V15.5939C100.496 15.3284 100.696 15.1281 100.962 15.1281H111.027C111.293 15.1281 111.493 15.3284 111.493 15.5939V28.2177C111.493 28.4832 111.293 28.6834 111.027 28.6834H100.962ZM131.899 17.9087H135.083V15.5939C135.083 15.1364 134.727 14.7806 134.269 14.7806H132.712C132.447 14.7806 132.246 14.5803 132.246 14.3148V12.8133C132.246 12.3559 131.891 12 131.433 12H121.367C120.91 12 120.554 12.3559 120.554 12.8133V14.3148C120.554 14.5803 120.354 14.7806 120.088 14.7806H118.531C118.074 14.7806 117.718 15.1364 117.718 15.5939V19.876C117.718 20.3334 118.074 20.6893 118.531 20.6893H120.088C120.354 20.6893 120.554 20.8895 120.554 21.155V22.6565C120.554 23.114 120.91 23.4699 121.367 23.4699H131.433C131.699 23.4699 131.899 23.6701 131.899 23.9356V28.2177C131.899 28.4832 131.699 28.6834 131.433 28.6834H121.367C121.102 28.6834 120.902 28.4832 120.902 28.2177V25.9029H117.718V28.2177C117.718 28.6751 118.074 29.031 118.531 29.031H120.088C120.354 29.031 120.554 29.2313 120.554 29.4968V30.9983C120.554 31.4557 120.91 31.8116 121.367 31.8116H131.433C131.891 31.8116 132.246 31.4557 132.246 30.9983V29.4968C132.246 29.2313 132.447 29.031 132.712 29.031H134.269C134.727 29.031 135.083 28.6751 135.083 28.2177V23.9356C135.083 23.4782 134.727 23.1223 134.269 23.1223H132.712C132.447 23.1223 132.246 22.922 132.246 22.6565V21.155C132.246 20.6976 131.891 20.3417 131.433 20.3417H121.367C121.102 20.3417 120.902 20.1415 120.902 19.876V15.5939C120.902 15.3284 121.102 15.1281 121.367 15.1281H131.433C131.699 15.1281 131.899 15.3284 131.899 15.5939V17.9087ZM141.307 12H138.124V19.876C138.124 20.3334 138.479 20.6893 138.937 20.6893H140.494C140.76 20.6893 140.96 20.8895 140.96 21.155V22.6565C140.96 22.922 140.76 23.1223 140.494 23.1223H138.937C138.479 23.1223 138.124 23.4782 138.124 23.9356V31.8116H141.307V23.9356C141.307 23.6701 141.508 23.4699 141.773 23.4699H146.166C146.432 23.4699 146.632 23.6701 146.632 23.9356V25.4371C146.632 25.8946 146.988 26.2504 147.446 26.2504H149.003C149.268 26.2504 149.468 26.4507 149.468 26.7162V28.2177C149.468 28.6751 149.824 29.031 150.282 29.031H151.839C152.104 29.031 152.305 29.2313 152.305 29.4968V30.9983C152.305 31.4557 152.66 31.8116 153.118 31.8116H154.675C155.132 31.8116 155.488 31.4557 155.488 30.9983V29.4968C155.488 29.0393 155.132 28.6834 154.675 28.6834H153.146C152.87 28.6834 152.652 28.4737 152.652 28.2177V26.7162C152.652 26.2587 152.296 25.9029 151.839 25.9029H150.31C150.034 25.9029 149.816 25.6931 149.816 25.4371V23.9356C149.816 23.4782 149.46 23.1223 149.003 23.1223H147.446C147.18 23.1223 146.98 22.922 146.98 22.6565V21.155C146.98 20.8895 147.18 20.6893 147.446 20.6893H149.003C149.46 20.6893 149.816 20.3334 149.816 19.876V18.3745C149.816 18.1185 150.034 17.9087 150.31 17.9087H151.839C152.296 17.9087 152.652 17.5529 152.652 17.0954V15.5939C152.652 15.3379 152.87 15.1281 153.146 15.1281H154.675C155.132 15.1281 155.488 14.7723 155.488 14.3148V12.8133C155.488 12.3559 155.132 12 154.675 12H153.118C152.66 12 152.305 12.3559 152.305 12.8133V14.3148C152.305 14.5803 152.104 14.7806 151.839 14.7806H150.282C149.824 14.7806 149.468 15.1364 149.468 15.5939V17.0954C149.468 17.3609 149.268 17.5611 149.003 17.5611H147.446C146.988 17.5611 146.632 17.917 146.632 18.3745V19.876C146.632 20.1415 146.432 20.3417 146.166 20.3417H141.773C141.508 20.3417 141.307 20.1415 141.307 19.876V12ZM65.3551 20.3284C65.47 20.4448 65.6311 20.5155 65.8133 20.5155H67.3704C67.5512 20.5155 67.711 20.585 67.8257 20.6997C67.711 20.5848 67.551 20.5151 67.3701 20.5151H65.8129C65.6309 20.5151 65.47 20.4446 65.3551 20.3284ZM65.1738 31.6374V31.6378H68.01V23.9356C68.01 23.5741 68.288 23.2961 68.6495 23.2961H73.0428C73.2249 23.2961 73.3857 23.3666 73.5006 23.4828C73.3857 23.3664 73.2247 23.2957 73.0424 23.2957H68.6491C68.2876 23.2957 68.0096 23.5738 68.0096 23.9352V31.6374H65.1738ZM73.8637 25.8895C73.9786 26.006 74.1396 26.0767 74.3219 26.0767H75.879C76.0597 26.0767 76.2195 26.1461 76.3342 26.2607C76.2195 26.1459 76.0595 26.0763 75.8786 26.0763H74.3215C74.1394 26.0763 73.9785 26.0057 73.8637 25.8895ZM76.6999 28.6701C76.8148 28.7865 76.9758 28.8572 77.1581 28.8572H78.7152C78.8972 28.8572 79.0581 28.9278 79.173 29.0439C79.0581 28.9275 78.897 28.8568 78.7148 28.8568H77.1577C76.9756 28.8568 76.8147 28.7863 76.6999 28.6701ZM79.5386 31.4533C79.6533 31.5682 79.8133 31.6378 79.9942 31.6378H81.5514C81.9128 31.6378 82.1909 31.3597 82.1909 30.9983V29.4968C82.1909 29.3173 82.1224 29.1585 82.0092 29.0439C82.1222 29.1584 82.1905 29.3171 82.1905 29.4964V30.9979C82.1905 31.3594 81.9125 31.6374 81.551 31.6374H79.9939C79.8131 31.6374 79.6533 31.5679 79.5386 31.4533ZM79.5385 28.6591C79.4252 28.5456 79.3547 28.3912 79.3547 28.2177V26.7162C79.3547 26.5354 79.2851 26.3754 79.1704 26.2607C79.2849 26.3754 79.3543 26.5352 79.3543 26.7158V28.2173C79.3543 28.391 79.425 28.5455 79.5385 28.6591ZM76.7038 25.88C76.5896 25.7663 76.5185 25.6114 76.5185 25.4371V23.9356C76.5185 23.7534 76.4478 23.5923 76.3314 23.4774C76.4476 23.5923 76.5181 23.7532 76.5181 23.9352V25.4367C76.5181 25.6112 76.5894 25.7663 76.7038 25.88ZM73.8637 23.109C73.7507 22.9945 73.6823 22.8358 73.6823 22.6565V21.155C73.6823 20.7936 73.9604 20.5155 74.3219 20.5155H75.879C76.2405 20.5155 76.5185 20.2374 76.5185 19.876V18.3745C76.5185 18.013 76.8244 17.7349 77.1859 17.7349H78.7152C79.0767 17.7349 79.3547 17.4569 79.3547 17.0954V15.5939C79.3547 15.2324 79.6606 14.9544 80.022 14.9544H81.5514C81.9128 14.9544 82.1909 14.6763 82.1909 14.3148V12.8133C82.1909 12.6311 82.1202 12.47 82.0038 12.3551C82.12 12.47 82.1905 12.6309 82.1905 12.8129V14.3144C82.1905 14.6759 81.9125 14.954 81.551 14.954H80.0217C79.6602 14.954 79.3543 15.232 79.3543 15.5935V17.095C79.3543 17.4565 79.0763 17.7345 78.7148 17.7345H77.1855C76.824 17.7345 76.5181 18.0126 76.5181 18.3741V19.8756C76.5181 20.2371 76.2401 20.5151 75.8786 20.5151H74.3215C73.96 20.5151 73.682 20.7932 73.682 21.1547V22.6562C73.682 22.8356 73.7505 22.9945 73.8637 23.109ZM68.1941 20.3312C68.0794 20.2165 68.01 20.0566 68.01 19.876V12.1738H68.0096V19.8756C68.0096 20.0565 68.0792 20.2165 68.1941 20.3312ZM85.5795 31.6374V31.6378H88.4157V26.7162C88.4157 26.3547 88.6937 26.0767 89.0552 26.0767H90.6123C90.9738 26.0767 91.2519 25.7986 91.2519 25.4371V18.3745C91.2519 18.013 91.5299 17.7349 91.8914 17.7349H93.4485C93.81 17.7349 94.0881 17.4569 94.0881 17.0954V12.1738H94.0877V17.095C94.0877 17.4565 93.8096 17.7345 93.4481 17.7345H91.891C91.5295 17.7345 91.2515 18.0126 91.2515 18.3741V25.4367C91.2515 25.7982 90.9734 26.0763 90.6119 26.0763H89.0548C88.6934 26.0763 88.4153 26.3543 88.4153 26.7158V31.6374H85.5795ZM100.509 31.4561C100.623 31.5693 100.782 31.6378 100.962 31.6378H111.027C111.389 31.6378 111.667 31.3597 111.667 30.9983V29.4968C111.667 29.1353 111.945 28.8572 112.306 28.8572H113.864C114.225 28.8572 114.503 28.5792 114.503 28.2177V15.5939C114.503 15.4116 114.432 15.2506 114.316 15.1357C114.432 15.2506 114.503 15.4115 114.503 15.5935V28.2173C114.503 28.5788 114.225 28.8568 113.863 28.8568H112.306C111.945 28.8568 111.667 29.1349 111.667 29.4964V30.9979C111.667 31.3594 111.388 31.6374 111.027 31.6374H100.961C100.782 31.6374 100.623 31.5691 100.509 31.4561ZM111.854 14.7726C111.737 14.6578 111.667 14.4969 111.667 14.3148V12.8133C111.667 12.6311 111.596 12.47 111.48 12.3551C111.596 12.47 111.667 12.6309 111.667 12.8129V14.3144C111.667 14.4967 111.737 14.6577 111.854 14.7726ZM100.135 29.0386C100.021 28.9254 99.8617 28.8568 99.6823 28.8568H98.1251C97.9459 28.8568 97.7872 28.7885 97.6727 28.6755C97.7872 28.7887 97.9461 28.8572 98.1255 28.8572H99.6827C99.8619 28.8572 100.021 28.9256 100.135 29.0386ZM111.48 15.1357C111.365 15.0225 111.206 14.954 111.027 14.954H100.961C100.6 14.954 100.322 15.232 100.322 15.5935V28.2173C100.322 28.3996 100.392 28.5606 100.509 28.6755C100.393 28.5606 100.322 28.3997 100.322 28.2177V15.5939C100.322 15.2324 100.6 14.9544 100.962 14.9544H111.027C111.207 14.9544 111.365 15.0227 111.48 15.1357ZM134.716 15.1304C134.836 15.2456 134.909 15.4088 134.909 15.5939V17.7349H132.073V17.7345H134.908V15.5935C134.908 15.4086 134.836 15.2456 134.716 15.1304ZM131.886 15.1357C131.771 15.0225 131.612 14.954 131.433 14.954H121.367C121.006 14.954 120.728 15.232 120.728 15.5935V19.8756C120.728 20.0578 120.798 20.2189 120.915 20.3338C120.798 20.2189 120.728 20.058 120.728 19.876V15.5939C120.728 15.2324 121.006 14.9544 121.367 14.9544H131.433C131.612 14.9544 131.771 15.0227 131.886 15.1357ZM131.886 20.6968C132.002 20.8117 132.072 20.9726 132.072 21.1547V22.6562C132.072 22.8384 132.143 22.9995 132.259 23.1144C132.143 22.9995 132.073 22.8386 132.073 22.6565V21.155C132.073 20.9728 132.002 20.8117 131.886 20.6968ZM134.719 23.4748C134.837 23.5899 134.908 23.7518 134.908 23.9352V28.2173C134.908 28.5788 134.63 28.8568 134.269 28.8568H132.712C132.35 28.8568 132.072 29.1349 132.072 29.4964V30.9979C132.072 31.3594 131.794 31.6374 131.433 31.6374H121.367C121.188 31.6374 121.029 31.5691 120.915 31.4561C121.029 31.5693 121.188 31.6378 121.367 31.6378H131.433C131.795 31.6378 132.073 31.3597 132.073 30.9983V29.4968C132.073 29.1353 132.351 28.8572 132.712 28.8572H134.269C134.631 28.8572 134.909 28.5792 134.909 28.2177V23.9356C134.909 23.752 134.837 23.5899 134.719 23.4748ZM120.541 29.0386C120.426 28.9253 120.267 28.8568 120.088 28.8568H118.531C118.352 28.8568 118.193 28.7885 118.078 28.6755C118.193 28.7887 118.352 28.8572 118.531 28.8572H120.088C120.268 28.8572 120.426 28.9256 120.541 29.0386ZM120.728 26.0767V28.2173C120.728 28.3996 120.798 28.5606 120.915 28.6755C120.798 28.5606 120.728 28.3997 120.728 28.2177V26.0767H120.728ZM131.886 23.4774C131.771 23.3642 131.612 23.2957 131.433 23.2957H121.367C121.188 23.2957 121.029 23.2273 120.915 23.1144C121.029 23.2276 121.188 23.2961 121.367 23.2961H131.433C131.612 23.2961 131.771 23.3644 131.886 23.4774ZM120.541 20.6968C120.426 20.5836 120.267 20.5151 120.088 20.5151H118.531C118.352 20.5151 118.193 20.4468 118.078 20.3338C118.193 20.447 118.352 20.5155 118.531 20.5155H120.088C120.268 20.5155 120.426 20.5839 120.541 20.6968ZM131.886 12.3551C132.002 12.47 132.072 12.6309 132.072 12.8129V14.3144C132.072 14.4967 132.143 14.6577 132.259 14.7726C132.143 14.6578 132.073 14.4969 132.073 14.3148V12.8133C132.073 12.6311 132.002 12.47 131.886 12.3551ZM138.484 20.3338C138.599 20.447 138.758 20.5155 138.937 20.5155H140.494C140.67 20.5155 140.827 20.5817 140.941 20.6915C140.827 20.5815 140.67 20.5151 140.494 20.5151H138.937C138.757 20.5151 138.599 20.4468 138.484 20.3338ZM138.297 31.6374V31.6378H141.134V23.9356C141.134 23.5741 141.412 23.2961 141.773 23.2961H146.166C146.346 23.2961 146.504 23.3644 146.619 23.4774C146.504 23.3642 146.345 23.2957 146.166 23.2957H141.773C141.411 23.2957 141.133 23.5738 141.133 23.9352V31.6374H138.297ZM146.993 25.8949C147.107 26.0081 147.266 26.0767 147.446 26.0767H149.003C149.182 26.0767 149.341 26.145 149.455 26.258C149.341 26.1448 149.182 26.0763 149.002 26.0763H147.445C147.266 26.0763 147.107 26.0079 146.993 25.8949ZM149.829 28.6755C149.943 28.7887 150.102 28.8572 150.282 28.8572H151.839C152.018 28.8572 152.177 28.9256 152.291 29.0386C152.177 28.9253 152.018 28.8568 151.838 28.8568H150.281C150.102 28.8568 149.943 28.7885 149.829 28.6755ZM152.665 31.4561C152.78 31.5693 152.938 31.6378 153.118 31.6378H154.675C155.036 31.6378 155.315 31.3597 155.315 30.9983V29.4968C155.315 29.3145 155.244 29.1535 155.127 29.0386C155.244 29.1534 155.314 29.3143 155.314 29.4964V30.9979C155.314 31.3594 155.036 31.6374 154.675 31.6374H153.117C152.938 31.6374 152.78 31.5691 152.665 31.4561ZM152.666 28.6633C152.551 28.5494 152.478 28.3934 152.478 28.2177V26.7162C152.478 26.5339 152.408 26.3729 152.291 26.258C152.407 26.3729 152.478 26.5337 152.478 26.7158V28.2173C152.478 28.3932 152.55 28.5493 152.666 28.6633ZM149.833 25.8855C149.716 25.7713 149.642 25.6142 149.642 25.4371V23.9356C149.642 23.7534 149.571 23.5923 149.455 23.4774C149.571 23.5923 149.642 23.7532 149.642 23.9352V25.4367C149.642 25.614 149.715 25.7713 149.833 25.8855ZM146.993 23.1144C146.877 22.9995 146.806 22.8386 146.806 22.6565V21.155C146.806 20.7936 147.084 20.5155 147.446 20.5155H149.003C149.364 20.5155 149.642 20.2374 149.642 19.876V18.3745C149.642 18.013 149.948 17.7349 150.31 17.7349H151.839C152.2 17.7349 152.478 17.4569 152.478 17.0954V15.5939C152.478 15.2324 152.784 14.9544 153.146 14.9544H154.675C155.036 14.9544 155.315 14.6763 155.315 14.3148V12.8133C155.315 12.6311 155.244 12.47 155.127 12.3551C155.244 12.47 155.314 12.6309 155.314 12.8129V14.3144C155.314 14.6759 155.036 14.954 154.675 14.954H153.145C152.784 14.954 152.478 15.232 152.478 15.5935V17.095C152.478 17.4565 152.2 17.7345 151.838 17.7345H150.309C149.948 17.7345 149.642 18.0126 149.642 18.3741V19.8756C149.642 20.2371 149.364 20.5151 149.002 20.5151H147.445C147.084 20.5151 146.806 20.7932 146.806 21.1547V22.6562C146.806 22.8384 146.876 22.9995 146.993 23.1144ZM141.32 20.3338C141.204 20.2189 141.134 20.058 141.134 19.876V12.1738H141.133V19.8756C141.133 20.0578 141.204 20.2189 141.32 20.3338Z" fill="white"/>
<path d="M19 1.73205C20.8564 0.660254 23.1436 0.660254 25 1.73205L38.0526 9.26795C39.909 10.3397 41.0526 12.3205 41.0526 14.4641V29.5359C41.0526 31.6795 39.909 33.6603 38.0526 34.7321L25 42.2679C23.1436 43.3397 20.8564 43.3397 19 42.2679L5.94744 34.7321C4.09104 33.6603 2.94744 31.6795 2.94744 29.5359V14.4641C2.94744 12.3205 4.09103 10.3397 5.94744 9.26795L19 1.73205Z" fill="#EA3323"/>
<rect x="13.1997" y="29.04" width="3.52" height="3.52" fill="black"/>
<rect x="13.1997" y="25.5198" width="3.52" height="3.52" fill="black"/>
<rect x="16.7197" y="22.0011" width="3.52" height="3.52" fill="black"/>
<rect x="20.2402" y="22.0011" width="3.52" height="3.52" fill="black"/>
<rect x="27.2793" y="29.04" width="3.52" height="3.52" fill="black"/>
<rect x="23.7603" y="25.5198" width="3.52" height="3.52" fill="black"/>
<rect x="13.1997" y="18.4808" width="3.52" height="3.52" fill="black"/>
<rect x="13.1997" y="14.9606" width="3.52" height="3.52" fill="black"/>
<rect x="13.1997" y="11.4403" width="3.52" height="3.52" fill="black"/>
<rect x="20.2402" y="18.4808" width="3.52" height="3.52" fill="black"/>
<rect x="23.7603" y="14.9606" width="3.52" height="3.52" fill="black"/>
<rect x="27.2793" y="11.4403" width="3.52" height="3.52" fill="black"/>
</svg>
