<svg width="52" height="28" viewBox="0 0 52 28" fill="none" xmlns="http://www.w3.org/2000/svg">
  <path d="M51.713 16.6699H50.313V18.0615H51.713V16.6699Z" fill="white"/>
  <path d="M51.713 15.2852H50.313V16.671H51.713V15.2852Z" fill="white"/>
  <path d="M51.713 13.8926H50.313V15.2841H51.713V13.8926Z" fill="white"/>
  <path d="M51.713 12.502H50.313V13.8935H51.713V12.502Z" fill="white"/>
  <path d="M51.713 11.1152H50.313V12.5011H51.713V11.1152Z" fill="white"/>
  <path d="M51.713 9.72461H50.313V11.1162H51.713V9.72461Z" fill="white"/>
  <path d="M50.3131 19.4473H48.9131V20.8388H50.3131V19.4473Z" fill="white"/>
  <path d="M50.3131 18.0625H48.9131V19.4483H50.3131V18.0625Z" fill="white"/>
  <path d="M50.3131 16.6699H48.9131V18.0615H50.3131V16.6699Z" fill="#4F4F4F"/>
  <path d="M50.3131 15.2852H48.9131V16.671H50.3131V15.2852Z" fill="#4F4F4F"/>
  <path d="M50.3131 13.8926H48.9131V15.2841H50.3131V13.8926Z" fill="#4F4F4F"/>
  <path d="M50.3131 12.502H48.9131V13.8935H50.3131V12.502Z" fill="#4F4F4F"/>
  <path d="M50.3131 11.1152H48.9131V12.5011H50.3131V11.1152Z" fill="#4F4F4F"/>
  <path d="M50.3131 9.72461H48.9131V11.1162H50.3131V9.72461Z" fill="#4F4F4F"/>
  <path d="M50.3131 8.33789H48.9131V9.72374H50.3131V8.33789Z" fill="white"/>
  <path d="M50.3131 6.94727H48.9131V8.33881H50.3131V6.94727Z" fill="white"/>
  <path d="M48.9133 20.8398H47.519V22.2257H48.9133V20.8398Z" fill="white"/>
  <path d="M48.9133 19.4473H47.519V20.8388H48.9133V19.4473Z" fill="#4F4F4F"/>
  <path d="M48.9133 18.0625H47.519V19.4483H48.9133V18.0625Z" fill="#4F4F4F"/>
  <path d="M48.9133 16.6699H47.519V18.0615H48.9133V16.6699Z" fill="#A7A7A7"/>
  <path d="M48.9133 15.2852H47.519V16.671H48.9133V15.2852Z" fill="#A7A7A7"/>
  <path d="M48.9133 13.8926H47.519V15.2841H48.9133V13.8926Z" fill="#A7A7A7"/>
  <path d="M48.9133 12.502H47.519V13.8935H48.9133V12.502Z" fill="#A7A7A7"/>
  <path d="M48.9133 11.1152H47.519V12.5011H48.9133V11.1152Z" fill="#A7A7A7"/>
  <path d="M48.9133 9.72461H47.519V11.1162H48.9133V9.72461Z" fill="#A7A7A7"/>
  <path d="M48.9133 8.33789H47.519V9.72374H48.9133V8.33789Z" fill="#4F4F4F"/>
  <path d="M48.9133 6.94727H47.519V8.33881H48.9133V6.94727Z" fill="#4F4F4F"/>
  <path d="M48.9133 5.55469H47.519V6.94624H48.9133V5.55469Z" fill="white"/>
  <path d="M47.5191 22.2246H46.1191V23.6162H47.5191V22.2246Z" fill="white"/>
  <path d="M47.5191 20.8398H46.1191V22.2257H47.5191V20.8398Z" fill="#4F4F4F"/>
  <path d="M47.5191 19.4473H46.1191V20.8388H47.5191V19.4473Z" fill="#A7A7A7"/>
  <path d="M47.5191 18.0625H46.1191V19.4483H47.5191V18.0625Z" fill="#A7A7A7"/>
  <path d="M47.5191 16.6699H46.1191V18.0615H47.5191V16.6699Z" fill="#A7A7A7"/>
  <path d="M47.5191 15.2852H46.1191V16.671H47.5191V15.2852Z" fill="#A7A7A7"/>
  <path d="M47.5191 13.8926H46.1191V15.2841H47.5191V13.8926Z" fill="#A7A7A7"/>
  <path d="M47.5191 12.502H46.1191V13.8935H47.5191V12.502Z" fill="#A7A7A7"/>
  <path d="M47.5191 11.1152H46.1191V12.5011H47.5191V11.1152Z" fill="#A7A7A7"/>
  <path d="M47.5191 9.72461H46.1191V11.1162H47.5191V9.72461Z" fill="#A7A7A7"/>
  <path d="M47.5191 8.33789H46.1191V9.72374H47.5191V8.33789Z" fill="#A7A7A7"/>
  <path d="M47.5191 6.94727H46.1191V8.33881H47.5191V6.94727Z" fill="#898989"/>
  <path d="M47.5191 5.55469H46.1191V6.94624H47.5191V5.55469Z" fill="#4F4F4F"/>
  <path d="M47.5191 4.16797H46.1191V5.55381H47.5191V4.16797Z" fill="white"/>
  <path d="M46.1188 23.6172H44.7246V25.0087H46.1188V23.6172Z" fill="white"/>
  <path d="M46.1188 22.2246H44.7246V23.6162H46.1188V22.2246Z" fill="#4F4F4F"/>
  <path d="M46.1188 20.8398H44.7246V22.2257H46.1188V20.8398Z" fill="#A7A7A7"/>
  <path d="M46.1188 19.4473H44.7246V20.8388H46.1188V19.4473Z" fill="#A7A7A7"/>
  <path d="M46.1188 18.0625H44.7246V19.4483H46.1188V18.0625Z" fill="#A7A7A7"/>
  <path d="M46.1188 16.6699H44.7246V18.0615H46.1188V16.6699Z" fill="#A7A7A7"/>
  <path d="M46.1188 15.2852H44.7246V16.671H46.1188V15.2852Z" fill="#A7A7A7"/>
  <path d="M46.1188 13.8926H44.7246V15.2841H46.1188V13.8926Z" fill="#A7A7A7"/>
  <path d="M46.1188 12.502H44.7246V13.8935H46.1188V12.502Z" fill="#A7A7A7"/>
  <path d="M46.1188 11.1152H44.7246V12.5011H46.1188V11.1152Z" fill="#A7A7A7"/>
  <path d="M46.1188 9.72461H44.7246V11.1162H46.1188V9.72461Z" fill="#A7A7A7"/>
  <path d="M46.1188 8.33789H44.7246V9.72374H46.1188V8.33789Z" fill="#A7A7A7"/>
  <path d="M46.1188 6.94727H44.7246V8.33881H46.1188V6.94727Z" fill="#A7A7A7"/>
  <path d="M46.1188 5.55469H44.7246V6.94624H46.1188V5.55469Z" fill="#898989"/>
  <path d="M46.1188 4.16797H44.7246V5.55381H46.1188V4.16797Z" fill="#4F4F4F"/>
  <path d="M46.1188 2.77734H44.7246V4.16889H46.1188V2.77734Z" fill="white"/>
  <path d="M44.7247 25.0078H43.3247V26.3937H44.7247V25.0078Z" fill="white"/>
  <path d="M44.7247 23.6172H43.3247V25.0087H44.7247V23.6172Z" fill="#4F4F4F"/>
  <path d="M44.7247 22.2246H43.3247V23.6162H44.7247V22.2246Z" fill="#A7A7A7"/>
  <path d="M44.7247 20.8398H43.3247V22.2257H44.7247V20.8398Z" fill="#A7A7A7"/>
  <path d="M44.7247 19.4473H43.3247V20.8388H44.7247V19.4473Z" fill="#A7A7A7"/>
  <path d="M44.7247 18.0625H43.3247V19.4483H44.7247V18.0625Z" fill="#A7A7A7"/>
  <path d="M44.7247 16.6699H43.3247V18.0615H44.7247V16.6699Z" fill="#A7A7A7"/>
  <path d="M44.7247 15.2852H43.3247V16.671H44.7247V15.2852Z" fill="#A7A7A7"/>
  <path d="M44.7247 13.8926H43.3247V15.2841H44.7247V13.8926Z" fill="#A7A7A7"/>
  <path d="M44.7247 12.502H43.3247V13.8935H44.7247V12.502Z" fill="#A7A7A7"/>
  <path d="M44.7247 11.1152H43.3247V12.5011H44.7247V11.1152Z" fill="#A7A7A7"/>
  <path d="M44.7247 9.72461H43.3247V11.1162H44.7247V9.72461Z" fill="#A7A7A7"/>
  <path d="M44.7247 8.33789H43.3247V9.72374H44.7247V8.33789Z" fill="#A7A7A7"/>
  <path d="M44.7247 6.94727H43.3247V8.33881H44.7247V6.94727Z" fill="#A7A7A7"/>
  <path d="M44.7247 5.55469H43.3247V6.94624H44.7247V5.55469Z" fill="#A7A7A7"/>
  <path d="M44.7247 4.16797H43.3247V5.55381H44.7247V4.16797Z" fill="#898989"/>
  <path d="M44.7247 2.77734H43.3247V4.16889H44.7247V2.77734Z" fill="#4F4F4F"/>
  <path d="M44.7247 1.39062H43.3247V2.77647H44.7247V1.39062Z" fill="white"/>
  <path d="M43.3248 25.0078H41.9248V26.3937H43.3248V25.0078Z" fill="white"/>
  <path d="M43.3248 23.6172H41.9248V25.0087H43.3248V23.6172Z" fill="#4F4F4F"/>
  <path d="M43.3248 22.2246H41.9248V23.6162H43.3248V22.2246Z" fill="#A7A7A7"/>
  <path d="M43.3248 20.8398H41.9248V22.2257H43.3248V20.8398Z" fill="#A7A7A7"/>
  <path d="M43.3248 19.4473H41.9248V20.8388H43.3248V19.4473Z" fill="#A7A7A7"/>
  <path d="M43.3248 18.0625H41.9248V19.4483H43.3248V18.0625Z" fill="#A7A7A7"/>
  <path d="M43.3248 16.6699H41.9248V18.0615H43.3248V16.6699Z" fill="#A7A7A7"/>
  <path d="M43.3248 15.2852H41.9248V16.671H43.3248V15.2852Z" fill="#A7A7A7"/>
  <path d="M43.3248 13.8926H41.9248V15.2841H43.3248V13.8926Z" fill="#A7A7A7"/>
  <path d="M43.3248 12.502H41.9248V13.8935H43.3248V12.502Z" fill="#A7A7A7"/>
  <path d="M43.3248 11.1152H41.9248V12.5011H43.3248V11.1152Z" fill="#A7A7A7"/>
  <path d="M43.3248 9.72461H41.9248V11.1162H43.3248V9.72461Z" fill="#A7A7A7"/>
  <path d="M43.3248 8.33789H41.9248V9.72374H43.3248V8.33789Z" fill="#A7A7A7"/>
  <path d="M43.3248 6.94727H41.9248V8.33881H43.3248V6.94727Z" fill="#A7A7A7"/>
  <path d="M43.3248 5.55469H41.9248V6.94624H43.3248V5.55469Z" fill="#A7A7A7"/>
  <path d="M43.3248 4.16797H41.9248V5.55381H43.3248V4.16797Z" fill="#898989"/>
  <path d="M43.3248 2.77734H41.9248V4.16889H43.3248V2.77734Z" fill="#4F4F4F"/>
  <path d="M43.3248 1.39062H41.9248V2.77647H43.3248V1.39062Z" fill="white"/>
  <path d="M41.9245 26.3945H40.5303V27.7861H41.9245V26.3945Z" fill="white"/>
  <path d="M41.9245 25.0078H40.5303V26.3937H41.9245V25.0078Z" fill="#4F4F4F"/>
  <path d="M41.9245 23.6172H40.5303V25.0087H41.9245V23.6172Z" fill="#A7A7A7"/>
  <path d="M41.9245 22.2246H40.5303V23.6162H41.9245V22.2246Z" fill="#A7A7A7"/>
  <path d="M41.9245 20.8398H40.5303V22.2257H41.9245V20.8398Z" fill="#A7A7A7"/>
  <path d="M41.9245 19.4473H40.5303V20.8388H41.9245V19.4473Z" fill="#A7A7A7"/>
  <path d="M41.9245 18.0625H40.5303V19.4483H41.9245V18.0625Z" fill="#A7A7A7"/>
  <path d="M41.9245 16.6699H40.5303V18.0615H41.9245V16.6699Z" fill="#A7A7A7"/>
  <path d="M41.9245 15.2852H40.5303V16.671H41.9245V15.2852Z" fill="#A7A7A7"/>
  <path d="M41.9245 13.8926H40.5303V15.2841H41.9245V13.8926Z" fill="#A7A7A7"/>
  <path d="M41.9245 12.502H40.5303V13.8935H41.9245V12.502Z" fill="#A7A7A7"/>
  <path d="M41.9245 11.1152H40.5303V12.5011H41.9245V11.1152Z" fill="#A7A7A7"/>
  <path d="M41.9245 9.72461H40.5303V11.1162H41.9245V9.72461Z" fill="#A7A7A7"/>
  <path d="M41.9245 8.33789H40.5303V9.72374H41.9245V8.33789Z" fill="#A7A7A7"/>
  <path d="M41.9245 6.94727H40.5303V8.33881H41.9245V6.94727Z" fill="#A7A7A7"/>
  <path d="M41.9245 5.55469H40.5303V6.94624H41.9245V5.55469Z" fill="#A7A7A7"/>
  <path d="M41.9245 4.16797H40.5303V5.55381H41.9245V4.16797Z" fill="#A7A7A7"/>
  <path d="M41.9245 2.77734H40.5303V4.16889H41.9245V2.77734Z" fill="#898989"/>
  <path d="M41.9245 1.39062H40.5303V2.77647H41.9245V1.39062Z" fill="#4F4F4F"/>
  <path d="M41.9245 0H40.5303V1.39155H41.9245V0Z" fill="white"/>
  <path d="M40.5304 26.3945H39.1304V27.7861H40.5304V26.3945Z" fill="white"/>
  <path d="M40.5304 25.0078H39.1304V26.3937H40.5304V25.0078Z" fill="#4F4F4F"/>
  <path d="M40.5304 23.6172H39.1304V25.0087H40.5304V23.6172Z" fill="#A7A7A7"/>
  <path d="M40.5304 22.2246H39.1304V23.6162H40.5304V22.2246Z" fill="#A7A7A7"/>
  <path d="M40.5304 20.8398H39.1304V22.2257H40.5304V20.8398Z" fill="#A7A7A7"/>
  <path d="M40.5304 19.4473H39.1304V20.8388H40.5304V19.4473Z" fill="#A7A7A7"/>
  <path d="M40.5304 18.0625H39.1304V19.4483H40.5304V18.0625Z" fill="#A7A7A7"/>
  <path d="M40.5304 16.6699H39.1304V18.0615H40.5304V16.6699Z" fill="#A7A7A7"/>
  <path d="M40.5304 15.2852H39.1304V16.671H40.5304V15.2852Z" fill="#A7A7A7"/>
  <path d="M40.5304 13.8926H39.1304V15.2841H40.5304V13.8926Z" fill="#A7A7A7"/>
  <path d="M40.5304 12.502H39.1304V13.8935H40.5304V12.502Z" fill="#A7A7A7"/>
  <path d="M40.5304 11.1152H39.1304V12.5011H40.5304V11.1152Z" fill="#A7A7A7"/>
  <path d="M40.5304 9.72461H39.1304V11.1162H40.5304V9.72461Z" fill="#A7A7A7"/>
  <path d="M40.5304 8.33789H39.1304V9.72374H40.5304V8.33789Z" fill="#A7A7A7"/>
  <path d="M40.5304 6.94727H39.1304V8.33881H40.5304V6.94727Z" fill="#A7A7A7"/>
  <path d="M40.5304 5.55469H39.1304V6.94624H40.5304V5.55469Z" fill="#A7A7A7"/>
  <path d="M40.5304 4.16797H39.1304V5.55381H40.5304V4.16797Z" fill="#A7A7A7"/>
  <path d="M40.5304 2.77734H39.1304V4.16889H40.5304V2.77734Z" fill="#898989"/>
  <path d="M40.5304 1.39062H39.1304V2.77647H40.5304V1.39062Z" fill="#4F4F4F"/>
  <path d="M40.5304 0H39.1304V1.39155H40.5304V0Z" fill="white"/>
  <path d="M39.1306 26.3945H37.7363V27.7861H39.1306V26.3945Z" fill="white"/>
  <path d="M39.1306 25.0078H37.7363V26.3937H39.1306V25.0078Z" fill="#4F4F4F"/>
  <path d="M39.1306 23.6172H37.7363V25.0087H39.1306V23.6172Z" fill="#A7A7A7"/>
  <path d="M39.1306 22.2246H37.7363V23.6162H39.1306V22.2246Z" fill="#A7A7A7"/>
  <path d="M39.1306 20.8398H37.7363V22.2257H39.1306V20.8398Z" fill="#A7A7A7"/>
  <path d="M39.1306 19.4473H37.7363V20.8388H39.1306V19.4473Z" fill="#A7A7A7"/>
  <path d="M39.1306 18.0625H37.7363V19.4483H39.1306V18.0625Z" fill="#A7A7A7"/>
  <path d="M39.1306 16.6699H37.7363V18.0615H39.1306V16.6699Z" fill="#A7A7A7"/>
  <path d="M39.1306 15.2852H37.7363V16.671H39.1306V15.2852Z" fill="#A7A7A7"/>
  <path d="M39.1306 13.8926H37.7363V15.2841H39.1306V13.8926Z" fill="#A7A7A7"/>
  <path d="M39.1306 12.502H37.7363V13.8935H39.1306V12.502Z" fill="#A7A7A7"/>
  <path d="M39.1306 11.1152H37.7363V12.5011H39.1306V11.1152Z" fill="#A7A7A7"/>
  <path d="M39.1306 9.72461H37.7363V11.1162H39.1306V9.72461Z" fill="#A7A7A7"/>
  <path d="M39.1306 8.33789H37.7363V9.72374H39.1306V8.33789Z" fill="#A7A7A7"/>
  <path d="M39.1306 6.94727H37.7363V8.33881H39.1306V6.94727Z" fill="#A7A7A7"/>
  <path d="M39.1306 5.55469H37.7363V6.94624H39.1306V5.55469Z" fill="#A7A7A7"/>
  <path d="M39.1306 4.16797H37.7363V5.55381H39.1306V4.16797Z" fill="#A7A7A7"/>
  <path d="M39.1306 2.77734H37.7363V4.16889H39.1306V2.77734Z" fill="#898989"/>
  <path d="M39.1306 1.39062H37.7363V2.77647H39.1306V1.39062Z" fill="#4F4F4F"/>
  <path d="M39.1306 0H37.7363V1.39155H39.1306V0Z" fill="white"/>
  <path d="M37.7364 26.3945H36.3364V27.7861H37.7364V26.3945Z" fill="white"/>
  <path d="M37.7364 25.0078H36.3364V26.3937H37.7364V25.0078Z" fill="#4F4F4F"/>
  <path d="M37.7364 23.6172H36.3364V25.0087H37.7364V23.6172Z" fill="#A7A7A7"/>
  <path d="M37.7364 22.2246H36.3364V23.6162H37.7364V22.2246Z" fill="#A7A7A7"/>
  <path d="M37.7364 20.8398H36.3364V22.2257H37.7364V20.8398Z" fill="#A7A7A7"/>
  <path d="M37.7364 19.4473H36.3364V20.8388H37.7364V19.4473Z" fill="#A7A7A7"/>
  <path d="M37.7364 18.0625H36.3364V19.4483H37.7364V18.0625Z" fill="#A7A7A7"/>
  <path d="M37.7364 16.6699H36.3364V18.0615H37.7364V16.6699Z" fill="#A7A7A7"/>
  <path d="M37.7364 15.2852H36.3364V16.671H37.7364V15.2852Z" fill="#A7A7A7"/>
  <path d="M37.7364 13.8926H36.3364V15.2841H37.7364V13.8926Z" fill="#A7A7A7"/>
  <path d="M37.7364 12.502H36.3364V13.8935H37.7364V12.502Z" fill="#A7A7A7"/>
  <path d="M37.7364 11.1152H36.3364V12.5011H37.7364V11.1152Z" fill="#A7A7A7"/>
  <path d="M37.7364 9.72461H36.3364V11.1162H37.7364V9.72461Z" fill="#A7A7A7"/>
  <path d="M37.7364 8.33789H36.3364V9.72374H37.7364V8.33789Z" fill="#A7A7A7"/>
  <path d="M37.7364 6.94727H36.3364V8.33881H37.7364V6.94727Z" fill="#A7A7A7"/>
  <path d="M37.7364 5.55469H36.3364V6.94624H37.7364V5.55469Z" fill="#A7A7A7"/>
  <path d="M37.7364 4.16797H36.3364V5.55381H37.7364V4.16797Z" fill="#A7A7A7"/>
  <path d="M37.7364 2.77734H36.3364V4.16889H37.7364V2.77734Z" fill="#898989"/>
  <path d="M37.7364 1.39062H36.3364V2.77647H37.7364V1.39062Z" fill="#4F4F4F"/>
  <path d="M37.7364 0H36.3364V1.39155H37.7364V0Z" fill="white"/>
  <path d="M36.3365 26.3945H34.9365V27.7861H36.3365V26.3945Z" fill="white"/>
  <path d="M36.3365 25.0078H34.9365V26.3937H36.3365V25.0078Z" fill="#4F4F4F"/>
  <path d="M36.3365 23.6172H34.9365V25.0087H36.3365V23.6172Z" fill="#A7A7A7"/>
  <path d="M36.3365 22.2246H34.9365V23.6162H36.3365V22.2246Z" fill="#A7A7A7"/>
  <path d="M36.3365 20.8398H34.9365V22.2257H36.3365V20.8398Z" fill="#A7A7A7"/>
  <path d="M36.3365 19.4473H34.9365V20.8388H36.3365V19.4473Z" fill="#A7A7A7"/>
  <path d="M36.3365 18.0625H34.9365V19.4483H36.3365V18.0625Z" fill="#A7A7A7"/>
  <path d="M36.3365 16.6699H34.9365V18.0615H36.3365V16.6699Z" fill="#A7A7A7"/>
  <path d="M36.3365 15.2852H34.9365V16.671H36.3365V15.2852Z" fill="#A7A7A7"/>
  <path d="M36.3365 13.8926H34.9365V15.2841H36.3365V13.8926Z" fill="#A7A7A7"/>
  <path d="M36.3365 12.502H34.9365V13.8935H36.3365V12.502Z" fill="#A7A7A7"/>
  <path d="M36.3365 11.1152H34.9365V12.5011H36.3365V11.1152Z" fill="#A7A7A7"/>
  <path d="M36.3365 9.72461H34.9365V11.1162H36.3365V9.72461Z" fill="#A7A7A7"/>
  <path d="M36.3365 8.33789H34.9365V9.72374H36.3365V8.33789Z" fill="#A7A7A7"/>
  <path d="M36.3365 6.94727H34.9365V8.33881H36.3365V6.94727Z" fill="#A7A7A7"/>
  <path d="M36.3365 5.55469H34.9365V6.94624H36.3365V5.55469Z" fill="#A7A7A7"/>
  <path d="M36.3365 4.16797H34.9365V5.55381H36.3365V4.16797Z" fill="#A7A7A7"/>
  <path d="M36.3365 2.77734H34.9365V4.16889H36.3365V2.77734Z" fill="#898989"/>
  <path d="M36.3365 1.39062H34.9365V2.77647H36.3365V1.39062Z" fill="#4F4F4F"/>
  <path d="M36.3365 0H34.9365V1.39155H36.3365V0Z" fill="white"/>
  <path d="M34.9362 26.3945H33.542V27.7861H34.9362V26.3945Z" fill="white"/>
  <path d="M34.9362 25.0078H33.542V26.3937H34.9362V25.0078Z" fill="#4F4F4F"/>
  <path d="M34.9362 23.6172H33.542V25.0087H34.9362V23.6172Z" fill="#A7A7A7"/>
  <path d="M34.9362 22.2246H33.542V23.6162H34.9362V22.2246Z" fill="#A7A7A7"/>
  <path d="M34.9362 20.8398H33.542V22.2257H34.9362V20.8398Z" fill="#A7A7A7"/>
  <path d="M34.9362 19.4473H33.542V20.8388H34.9362V19.4473Z" fill="#A7A7A7"/>
  <path d="M34.9362 18.0625H33.542V19.4483H34.9362V18.0625Z" fill="#A7A7A7"/>
  <path d="M34.9362 16.6699H33.542V18.0615H34.9362V16.6699Z" fill="#A7A7A7"/>
  <path d="M34.9362 15.2852H33.542V16.671H34.9362V15.2852Z" fill="#A7A7A7"/>
  <path d="M34.9362 13.8926H33.542V15.2841H34.9362V13.8926Z" fill="#A7A7A7"/>
  <path d="M34.9362 12.502H33.542V13.8935H34.9362V12.502Z" fill="#A7A7A7"/>
  <path d="M34.9362 11.1152H33.542V12.5011H34.9362V11.1152Z" fill="#A7A7A7"/>
  <path d="M34.9362 9.72461H33.542V11.1162H34.9362V9.72461Z" fill="#A7A7A7"/>
  <path d="M34.9362 8.33789H33.542V9.72374H34.9362V8.33789Z" fill="#A7A7A7"/>
  <path d="M34.9362 6.94727H33.542V8.33881H34.9362V6.94727Z" fill="#A7A7A7"/>
  <path d="M34.9362 5.55469H33.542V6.94624H34.9362V5.55469Z" fill="#A7A7A7"/>
  <path d="M34.9362 4.16797H33.542V5.55381H34.9362V4.16797Z" fill="#A7A7A7"/>
  <path d="M34.9362 2.77734H33.542V4.16889H34.9362V2.77734Z" fill="#898989"/>
  <path d="M34.9362 1.39062H33.542V2.77647H34.9362V1.39062Z" fill="#4F4F4F"/>
  <path d="M34.9362 0H33.542V1.39155H34.9362V0Z" fill="white"/>
  <path d="M33.5421 26.3945H32.1421V27.7861H33.5421V26.3945Z" fill="white"/>
  <path d="M33.5421 25.0078H32.1421V26.3937H33.5421V25.0078Z" fill="#4F4F4F"/>
  <path d="M33.5421 23.6172H32.1421V25.0087H33.5421V23.6172Z" fill="#A7A7A7"/>
  <path d="M33.5421 22.2246H32.1421V23.6162H33.5421V22.2246Z" fill="#A7A7A7"/>
  <path d="M33.5421 20.8398H32.1421V22.2257H33.5421V20.8398Z" fill="#A7A7A7"/>
  <path d="M33.5421 19.4473H32.1421V20.8388H33.5421V19.4473Z" fill="#A7A7A7"/>
  <path d="M33.5421 18.0625H32.1421V19.4483H33.5421V18.0625Z" fill="#A7A7A7"/>
  <path d="M33.5421 16.6699H32.1421V18.0615H33.5421V16.6699Z" fill="#A7A7A7"/>
  <path d="M33.5421 15.2852H32.1421V16.671H33.5421V15.2852Z" fill="#A7A7A7"/>
  <path d="M33.5421 13.8926H32.1421V15.2841H33.5421V13.8926Z" fill="#A7A7A7"/>
  <path d="M33.5421 12.502H32.1421V13.8935H33.5421V12.502Z" fill="#A7A7A7"/>
  <path d="M33.5421 11.1152H32.1421V12.5011H33.5421V11.1152Z" fill="#A7A7A7"/>
  <path d="M33.5421 9.72461H32.1421V11.1162H33.5421V9.72461Z" fill="#A7A7A7"/>
  <path d="M33.5421 8.33789H32.1421V9.72374H33.5421V8.33789Z" fill="#A7A7A7"/>
  <path d="M33.5421 6.94727H32.1421V8.33881H33.5421V6.94727Z" fill="#A7A7A7"/>
  <path d="M33.5421 5.55469H32.1421V6.94624H33.5421V5.55469Z" fill="#A7A7A7"/>
  <path d="M33.5421 4.16797H32.1421V5.55381H33.5421V4.16797Z" fill="#A7A7A7"/>
  <path d="M33.5421 2.77734H32.1421V4.16889H33.5421V2.77734Z" fill="#898989"/>
  <path d="M33.5421 1.39062H32.1421V2.77647H33.5421V1.39062Z" fill="#4F4F4F"/>
  <path d="M33.5421 0H32.1421V1.39155H33.5421V0Z" fill="white"/>
  <path d="M32.1423 26.3945H30.748V27.7861H32.1423V26.3945Z" fill="white"/>
  <path d="M32.1423 25.0078H30.748V26.3937H32.1423V25.0078Z" fill="#4F4F4F"/>
  <path d="M32.1423 23.6172H30.748V25.0087H32.1423V23.6172Z" fill="#A7A7A7"/>
  <path d="M32.1423 22.2246H30.748V23.6162H32.1423V22.2246Z" fill="#A7A7A7"/>
  <path d="M32.1423 20.8398H30.748V22.2257H32.1423V20.8398Z" fill="#A7A7A7"/>
  <path d="M32.1423 19.4473H30.748V20.8388H32.1423V19.4473Z" fill="#A7A7A7"/>
  <path d="M32.1423 18.0625H30.748V19.4483H32.1423V18.0625Z" fill="#A7A7A7"/>
  <path d="M32.1423 16.6699H30.748V18.0615H32.1423V16.6699Z" fill="#A7A7A7"/>
  <path d="M32.1423 15.2852H30.748V16.671H32.1423V15.2852Z" fill="#A7A7A7"/>
  <path d="M32.1423 13.8926H30.748V15.2841H32.1423V13.8926Z" fill="#A7A7A7"/>
  <path d="M32.1423 12.502H30.748V13.8935H32.1423V12.502Z" fill="#A7A7A7"/>
  <path d="M32.1423 11.1152H30.748V12.5011H32.1423V11.1152Z" fill="#A7A7A7"/>
  <path d="M32.1423 9.72461H30.748V11.1162H32.1423V9.72461Z" fill="#A7A7A7"/>
  <path d="M32.1423 8.33789H30.748V9.72374H32.1423V8.33789Z" fill="#A7A7A7"/>
  <path d="M32.1423 6.94727H30.748V8.33881H32.1423V6.94727Z" fill="#A7A7A7"/>
  <path d="M32.1423 5.55469H30.748V6.94624H32.1423V5.55469Z" fill="#A7A7A7"/>
  <path d="M32.1423 4.16797H30.748V5.55381H32.1423V4.16797Z" fill="#A7A7A7"/>
  <path d="M32.1423 2.77734H30.748V4.16889H32.1423V2.77734Z" fill="#898989"/>
  <path d="M32.1423 1.39062H30.748V2.77647H32.1423V1.39062Z" fill="#4F4F4F"/>
  <path d="M32.1423 0H30.748V1.39155H32.1423V0Z" fill="white"/>
  <path d="M30.7476 26.3945H29.3477V27.7861H30.7476V26.3945Z" fill="white"/>
  <path d="M30.7476 25.0078H29.3477V26.3937H30.7476V25.0078Z" fill="#4F4F4F"/>
  <path d="M30.7476 23.6172H29.3477V25.0087H30.7476V23.6172Z" fill="#A7A7A7"/>
  <path d="M30.7476 22.2246H29.3477V23.6162H30.7476V22.2246Z" fill="#A7A7A7"/>
  <path d="M30.7476 20.8398H29.3477V22.2257H30.7476V20.8398Z" fill="#A7A7A7"/>
  <path d="M30.7476 19.4473H29.3477V20.8388H30.7476V19.4473Z" fill="#A7A7A7"/>
  <path d="M30.7476 18.0625H29.3477V19.4483H30.7476V18.0625Z" fill="#A7A7A7"/>
  <path d="M30.7476 16.6699H29.3477V18.0615H30.7476V16.6699Z" fill="#A7A7A7"/>
  <path d="M30.7476 15.2852H29.3477V16.671H30.7476V15.2852Z" fill="#A7A7A7"/>
  <path d="M30.7476 13.8926H29.3477V15.2841H30.7476V13.8926Z" fill="#A7A7A7"/>
  <path d="M30.7476 12.502H29.3477V13.8935H30.7476V12.502Z" fill="#A7A7A7"/>
  <path d="M30.7476 11.1152H29.3477V12.5011H30.7476V11.1152Z" fill="#A7A7A7"/>
  <path d="M30.7476 9.72461H29.3477V11.1162H30.7476V9.72461Z" fill="#A7A7A7"/>
  <path d="M30.7476 8.33789H29.3477V9.72374H30.7476V8.33789Z" fill="#A7A7A7"/>
  <path d="M30.7476 6.94727H29.3477V8.33881H30.7476V6.94727Z" fill="#A7A7A7"/>
  <path d="M30.7476 5.55469H29.3477V6.94624H30.7476V5.55469Z" fill="#A7A7A7"/>
  <path d="M30.7476 4.16797H29.3477V5.55381H30.7476V4.16797Z" fill="#A7A7A7"/>
  <path d="M30.7476 2.77734H29.3477V4.16889H30.7476V2.77734Z" fill="#898989"/>
  <path d="M30.7476 1.39062H29.3477V2.77647H30.7476V1.39062Z" fill="#4F4F4F"/>
  <path d="M30.7476 0H29.3477V1.39155H30.7476V0Z" fill="white"/>
  <path d="M29.3477 26.3945H27.9478V27.7861H29.3477V26.3945Z" fill="white"/>
  <path d="M29.3477 25.0078H27.9478V26.3937H29.3477V25.0078Z" fill="#4F4F4F"/>
  <path d="M29.3477 23.6172H27.9478V25.0087H29.3477V23.6172Z" fill="#A7A7A7"/>
  <path d="M29.3477 22.2246H27.9478V23.6162H29.3477V22.2246Z" fill="#A7A7A7"/>
  <path d="M29.3477 20.8398H27.9478V22.2257H29.3477V20.8398Z" fill="#A7A7A7"/>
  <path d="M29.3477 19.4473H27.9478V20.8388H29.3477V19.4473Z" fill="#A7A7A7"/>
  <path d="M29.3477 18.0625H27.9478V19.4483H29.3477V18.0625Z" fill="#A7A7A7"/>
  <path d="M29.3477 16.6699H27.9478V18.0615H29.3477V16.6699Z" fill="#A7A7A7"/>
  <path d="M29.3477 15.2852H27.9478V16.671H29.3477V15.2852Z" fill="#A7A7A7"/>
  <path d="M29.3477 13.8926H27.9478V15.2841H29.3477V13.8926Z" fill="#A7A7A7"/>
  <path d="M29.3477 12.502H27.9478V13.8935H29.3477V12.502Z" fill="#A7A7A7"/>
  <path d="M29.3477 11.1152H27.9478V12.5011H29.3477V11.1152Z" fill="#A7A7A7"/>
  <path d="M29.3477 9.72461H27.9478V11.1162H29.3477V9.72461Z" fill="#A7A7A7"/>
  <path d="M29.3477 8.33789H27.9478V9.72374H29.3477V8.33789Z" fill="#A7A7A7"/>
  <path d="M29.3477 6.94727H27.9478V8.33881H29.3477V6.94727Z" fill="#A7A7A7"/>
  <path d="M29.3477 5.55469H27.9478V6.94624H29.3477V5.55469Z" fill="#A7A7A7"/>
  <path d="M29.3477 4.16797H27.9478V5.55381H29.3477V4.16797Z" fill="#A7A7A7"/>
  <path d="M29.3477 2.77734H27.9478V4.16889H29.3477V2.77734Z" fill="#898989"/>
  <path d="M29.3477 1.39062H27.9478V2.77647H29.3477V1.39062Z" fill="#4F4F4F"/>
  <path d="M29.3477 0H27.9478V1.39155H29.3477V0Z" fill="white"/>
  <path d="M27.948 26.3945H26.5537V27.7861H27.948V26.3945Z" fill="white"/>
  <path d="M27.948 25.0078H26.5537V26.3937H27.948V25.0078Z" fill="#4F4F4F"/>
  <path d="M27.948 23.6172H26.5537V25.0087H27.948V23.6172Z" fill="#A7A7A7"/>
  <path d="M27.948 22.2246H26.5537V23.6162H27.948V22.2246Z" fill="#A7A7A7"/>
  <path d="M27.948 20.8398H26.5537V22.2257H27.948V20.8398Z" fill="#A7A7A7"/>
  <path d="M27.948 19.4473H26.5537V20.8388H27.948V19.4473Z" fill="#A7A7A7"/>
  <path d="M27.948 18.0625H26.5537V19.4483H27.948V18.0625Z" fill="#A7A7A7"/>
  <path d="M27.948 16.6699H26.5537V18.0615H27.948V16.6699Z" fill="#A7A7A7"/>
  <path d="M27.948 15.2852H26.5537V16.671H27.948V15.2852Z" fill="#A7A7A7"/>
  <path d="M27.948 13.8926H26.5537V15.2841H27.948V13.8926Z" fill="#A7A7A7"/>
  <path d="M27.948 12.502H26.5537V13.8935H27.948V12.502Z" fill="#A7A7A7"/>
  <path d="M27.948 11.1152H26.5537V12.5011H27.948V11.1152Z" fill="#A7A7A7"/>
  <path d="M27.948 9.72461H26.5537V11.1162H27.948V9.72461Z" fill="#A7A7A7"/>
  <path d="M27.948 8.33789H26.5537V9.72374H27.948V8.33789Z" fill="#A7A7A7"/>
  <path d="M27.948 6.94727H26.5537V8.33881H27.948V6.94727Z" fill="#A7A7A7"/>
  <path d="M27.948 5.55469H26.5537V6.94624H27.948V5.55469Z" fill="#A7A7A7"/>
  <path d="M27.948 4.16797H26.5537V5.55381H27.948V4.16797Z" fill="#A7A7A7"/>
  <path d="M27.948 2.77734H26.5537V4.16889H27.948V2.77734Z" fill="#898989"/>
  <path d="M27.948 1.39062H26.5537V2.77647H27.948V1.39062Z" fill="#4F4F4F"/>
  <path d="M27.948 0H26.5537V1.39155H27.948V0Z" fill="white"/>
  <path d="M26.5538 26.3945H25.1538V27.7861H26.5538V26.3945Z" fill="white"/>
  <path d="M26.5538 25.0078H25.1538V26.3937H26.5538V25.0078Z" fill="#4F4F4F"/>
  <path d="M26.5538 23.6172H25.1538V25.0087H26.5538V23.6172Z" fill="#A7A7A7"/>
  <path d="M26.5538 22.2246H25.1538V23.6162H26.5538V22.2246Z" fill="#A7A7A7"/>
  <path d="M26.5538 20.8398H25.1538V22.2257H26.5538V20.8398Z" fill="#A7A7A7"/>
  <path d="M26.5538 19.4473H25.1538V20.8388H26.5538V19.4473Z" fill="#A7A7A7"/>
  <path d="M26.5538 18.0625H25.1538V19.4483H26.5538V18.0625Z" fill="#A7A7A7"/>
  <path d="M26.5538 16.6699H25.1538V18.0615H26.5538V16.6699Z" fill="#A7A7A7"/>
  <path d="M26.5538 15.2852H25.1538V16.671H26.5538V15.2852Z" fill="#A7A7A7"/>
  <path d="M26.5538 13.8926H25.1538V15.2841H26.5538V13.8926Z" fill="#A7A7A7"/>
  <path d="M26.5538 12.502H25.1538V13.8935H26.5538V12.502Z" fill="#A7A7A7"/>
  <path d="M26.5538 11.1152H25.1538V12.5011H26.5538V11.1152Z" fill="#A7A7A7"/>
  <path d="M26.5538 9.72461H25.1538V11.1162H26.5538V9.72461Z" fill="#A7A7A7"/>
  <path d="M26.5538 8.33789H25.1538V9.72374H26.5538V8.33789Z" fill="#A7A7A7"/>
  <path d="M26.5538 6.94727H25.1538V8.33881H26.5538V6.94727Z" fill="#A7A7A7"/>
  <path d="M26.5538 5.55469H25.1538V6.94624H26.5538V5.55469Z" fill="#A7A7A7"/>
  <path d="M26.5538 4.16797H25.1538V5.55381H26.5538V4.16797Z" fill="#A7A7A7"/>
  <path d="M26.5538 2.77734H25.1538V4.16889H26.5538V2.77734Z" fill="#898989"/>
  <path d="M26.5538 1.39062H25.1538V2.77647H26.5538V1.39062Z" fill="#4F4F4F"/>
  <path d="M26.5538 0H25.1538V1.39155H26.5538V0Z" fill="white"/>
  <path d="M25.1535 26.3945H23.7593V27.7861H25.1535V26.3945Z" fill="white"/>
  <path d="M25.1535 25.0078H23.7593V26.3937H25.1535V25.0078Z" fill="#4F4F4F"/>
  <path d="M25.1535 23.6172H23.7593V25.0087H25.1535V23.6172Z" fill="#A7A7A7"/>
  <path d="M25.1535 22.2246H23.7593V23.6162H25.1535V22.2246Z" fill="#A7A7A7"/>
  <path d="M25.1535 20.8398H23.7593V22.2257H25.1535V20.8398Z" fill="#A7A7A7"/>
  <path d="M25.1535 19.4473H23.7593V20.8388H25.1535V19.4473Z" fill="#A7A7A7"/>
  <path d="M25.1535 18.0625H23.7593V19.4483H25.1535V18.0625Z" fill="#A7A7A7"/>
  <path d="M25.1535 16.6699H23.7593V18.0615H25.1535V16.6699Z" fill="#A7A7A7"/>
  <path d="M25.1535 15.2852H23.7593V16.671H25.1535V15.2852Z" fill="#A7A7A7"/>
  <path d="M25.1535 13.8926H23.7593V15.2841H25.1535V13.8926Z" fill="#A7A7A7"/>
  <path d="M25.1535 12.502H23.7593V13.8935H25.1535V12.502Z" fill="#A7A7A7"/>
  <path d="M25.1535 11.1152H23.7593V12.5011H25.1535V11.1152Z" fill="#A7A7A7"/>
  <path d="M25.1535 9.72461H23.7593V11.1162H25.1535V9.72461Z" fill="#A7A7A7"/>
  <path d="M25.1535 8.33789H23.7593V9.72374H25.1535V8.33789Z" fill="#A7A7A7"/>
  <path d="M25.1535 6.94727H23.7593V8.33881H25.1535V6.94727Z" fill="#A7A7A7"/>
  <path d="M25.1535 5.55469H23.7593V6.94624H25.1535V5.55469Z" fill="#A7A7A7"/>
  <path d="M25.1535 4.16797H23.7593V5.55381H25.1535V4.16797Z" fill="#A7A7A7"/>
  <path d="M25.1535 2.77734H23.7593V4.16889H25.1535V2.77734Z" fill="#898989"/>
  <path d="M25.1535 1.39062H23.7593V2.77647H25.1535V1.39062Z" fill="#4F4F4F"/>
  <path d="M25.1535 0H23.7593V1.39155H25.1535V0Z" fill="white"/>
  <path d="M23.7594 26.3945H22.3594V27.7861H23.7594V26.3945Z" fill="white"/>
  <path d="M23.7594 25.0078H22.3594V26.3937H23.7594V25.0078Z" fill="#4F4F4F"/>
  <path d="M23.7594 23.6172H22.3594V25.0087H23.7594V23.6172Z" fill="#A7A7A7"/>
  <path d="M23.7594 22.2246H22.3594V23.6162H23.7594V22.2246Z" fill="#A7A7A7"/>
  <path d="M23.7594 20.8398H22.3594V22.2257H23.7594V20.8398Z" fill="#A7A7A7"/>
  <path d="M23.7594 19.4473H22.3594V20.8388H23.7594V19.4473Z" fill="#A7A7A7"/>
  <path d="M23.7594 18.0625H22.3594V19.4483H23.7594V18.0625Z" fill="#898989"/>
  <path d="M23.7594 16.6699H22.3594V18.0615H23.7594V16.6699Z" fill="#898989"/>
  <path d="M23.7594 15.2852H22.3594V16.671H23.7594V15.2852Z" fill="white"/>
  <path d="M23.7594 13.8926H22.3594V15.2841H23.7594V13.8926Z" fill="white"/>
  <path d="M23.7594 12.502H22.3594V13.8935H23.7594V12.502Z" fill="white"/>
  <path d="M23.7594 11.1152H22.3594V12.5011H23.7594V11.1152Z" fill="white"/>
  <path d="M23.7594 9.72461H22.3594V11.1162H23.7594V9.72461Z" fill="#A7A7A7"/>
  <path d="M23.7594 8.33789H22.3594V9.72374H23.7594V8.33789Z" fill="#A7A7A7"/>
  <path d="M23.7594 6.94727H22.3594V8.33881H23.7594V6.94727Z" fill="#A7A7A7"/>
  <path d="M23.7594 5.55469H22.3594V6.94624H23.7594V5.55469Z" fill="#A7A7A7"/>
  <path d="M23.7594 4.16797H22.3594V5.55381H23.7594V4.16797Z" fill="#A7A7A7"/>
  <path d="M23.7594 2.77734H22.3594V4.16889H23.7594V2.77734Z" fill="#898989"/>
  <path d="M23.7594 1.39062H22.3594V2.77647H23.7594V1.39062Z" fill="#4F4F4F"/>
  <path d="M23.7594 0H22.3594V1.39155H23.7594V0Z" fill="white"/>
  <path d="M22.3596 26.3945H20.9653V27.7861H22.3596V26.3945Z" fill="white"/>
  <path d="M22.3596 25.0078H20.9653V26.3937H22.3596V25.0078Z" fill="#4F4F4F"/>
  <path d="M22.3596 23.6172H20.9653V25.0087H22.3596V23.6172Z" fill="#A7A7A7"/>
  <path d="M22.3596 22.2246H20.9653V23.6162H22.3596V22.2246Z" fill="#A7A7A7"/>
  <path d="M22.3596 20.8398H20.9653V22.2257H22.3596V20.8398Z" fill="#898989"/>
  <path d="M22.3596 19.4473H20.9653V20.8388H22.3596V19.4473Z" fill="#898989"/>
  <path d="M22.3596 18.0625H20.9653V19.4483H22.3596V18.0625Z" fill="white"/>
  <path d="M22.3596 16.6699H20.9653V18.0615H22.3596V16.6699Z" fill="white"/>
  <path d="M22.3596 15.2852H20.9653V16.671H22.3596V15.2852Z" fill="#989898"/>
  <path d="M22.3596 13.8926H20.9653V15.2841H22.3596V13.8926Z" fill="#BABABA"/>
  <path d="M22.3596 12.502H20.9653V13.8935H22.3596V12.502Z" fill="#D3D3D3"/>
  <path d="M22.3596 11.1152H20.9653V12.5011H22.3596V11.1152Z" fill="#D3D3D3"/>
  <path d="M22.3596 9.72461H20.9653V11.1162H22.3596V9.72461Z" fill="white"/>
  <path d="M22.3596 8.33789H20.9653V9.72374H22.3596V8.33789Z" fill="white"/>
  <path d="M22.3596 6.94727H20.9653V8.33881H22.3596V6.94727Z" fill="#A7A7A7"/>
  <path d="M22.3596 5.55469H20.9653V6.94624H22.3596V5.55469Z" fill="#A7A7A7"/>
  <path d="M22.3596 4.16797H20.9653V5.55381H22.3596V4.16797Z" fill="#A7A7A7"/>
  <path d="M22.3596 2.77734H20.9653V4.16889H22.3596V2.77734Z" fill="#898989"/>
  <path d="M22.3596 1.39062H20.9653V2.77647H22.3596V1.39062Z" fill="#4F4F4F"/>
  <path d="M22.3596 0H20.9653V1.39155H22.3596V0Z" fill="white"/>
  <path d="M20.9654 26.3945H19.5654V27.7861H20.9654V26.3945Z" fill="white"/>
  <path d="M20.9654 25.0078H19.5654V26.3937H20.9654V25.0078Z" fill="#4F4F4F"/>
  <path d="M20.9654 23.6172H19.5654V25.0087H20.9654V23.6172Z" fill="#A7A7A7"/>
  <path d="M20.9654 22.2246H19.5654V23.6162H20.9654V22.2246Z" fill="#898989"/>
  <path d="M20.9654 20.8398H19.5654V22.2257H20.9654V20.8398Z" fill="#898989"/>
  <path d="M20.9654 19.4473H19.5654V20.8388H20.9654V19.4473Z" fill="white"/>
  <path d="M20.9654 18.0625H19.5654V19.4483H20.9654V18.0625Z" fill="#989898"/>
  <path d="M20.9654 16.6699H19.5654V18.0615H20.9654V16.6699Z" fill="#BABABA"/>
  <path d="M20.9654 15.2852H19.5654V16.671H20.9654V15.2852Z" fill="#D3D3D3"/>
  <path d="M20.9654 13.8926H19.5654V15.2841H20.9654V13.8926Z" fill="#D3D3D3"/>
  <path d="M20.9654 12.502H19.5654V13.8935H20.9654V12.502Z" fill="#D3D3D3"/>
  <path d="M20.9654 11.1152H19.5654V12.5011H20.9654V11.1152Z" fill="#D3D3D3"/>
  <path d="M20.9654 9.72461H19.5654V11.1162H20.9654V9.72461Z" fill="#D3D3D3"/>
  <path d="M20.9654 8.33789H19.5654V9.72374H20.9654V8.33789Z" fill="#E7E7E7"/>
  <path d="M20.9654 6.94727H19.5654V8.33881H20.9654V6.94727Z" fill="white"/>
  <path d="M20.9654 5.55469H19.5654V6.94624H20.9654V5.55469Z" fill="#A7A7A7"/>
  <path d="M20.9654 4.16797H19.5654V5.55381H20.9654V4.16797Z" fill="#A7A7A7"/>
  <path d="M20.9654 2.77734H19.5654V4.16889H20.9654V2.77734Z" fill="#898989"/>
  <path d="M20.9654 1.39062H19.5654V2.77647H20.9654V1.39062Z" fill="#4F4F4F"/>
  <path d="M20.9654 0H19.5654V1.39155H20.9654V0Z" fill="white"/>
  <path d="M19.5655 26.3945H18.1655V27.7861H19.5655V26.3945Z" fill="white"/>
  <path d="M19.5655 25.0078H18.1655V26.3937H19.5655V25.0078Z" fill="#4F4F4F"/>
  <path d="M19.5655 23.6172H18.1655V25.0087H19.5655V23.6172Z" fill="#898989"/>
  <path d="M19.5655 22.2246H18.1655V23.6162H19.5655V22.2246Z" fill="#898989"/>
  <path d="M19.5655 20.8398H18.1655V22.2257H19.5655V20.8398Z" fill="white"/>
  <path d="M19.5655 19.4473H18.1655V20.8388H19.5655V19.4473Z" fill="#989898"/>
  <path d="M19.5655 18.0625H18.1655V19.4483H19.5655V18.0625Z" fill="#BABABA"/>
  <path d="M19.5655 16.6699H18.1655V18.0615H19.5655V16.6699Z" fill="#D3D3D3"/>
  <path d="M19.5655 15.2852H18.1655V16.671H19.5655V15.2852Z" fill="#D3D3D3"/>
  <path d="M19.5655 13.8926H18.1655V15.2841H19.5655V13.8926Z" fill="#D3D3D3"/>
  <path d="M19.5655 12.502H18.1655V13.8935H19.5655V12.502Z" fill="#D3D3D3"/>
  <path d="M19.5655 11.1152H18.1655V12.5011H19.5655V11.1152Z" fill="#D3D3D3"/>
  <path d="M19.5655 9.72461H18.1655V11.1162H19.5655V9.72461Z" fill="#D3D3D3"/>
  <path d="M19.5655 8.33789H18.1655V9.72374H19.5655V8.33789Z" fill="#D3D3D3"/>
  <path d="M19.5655 6.94727H18.1655V8.33881H19.5655V6.94727Z" fill="#E7E7E7"/>
  <path d="M19.5655 5.55469H18.1655V6.94624H19.5655V5.55469Z" fill="white"/>
  <path d="M19.5655 4.16797H18.1655V5.55381H19.5655V4.16797Z" fill="#A7A7A7"/>
  <path d="M19.5655 2.77734H18.1655V4.16889H19.5655V2.77734Z" fill="#898989"/>
  <path d="M19.5655 1.39062H18.1655V2.77647H19.5655V1.39062Z" fill="#4F4F4F"/>
  <path d="M19.5655 0H18.1655V1.39155H19.5655V0Z" fill="white"/>
  <path d="M18.1652 26.3945H16.771V27.7861H18.1652V26.3945Z" fill="white"/>
  <path d="M18.1652 25.0078H16.771V26.3937H18.1652V25.0078Z" fill="#4F4F4F"/>
  <path d="M18.1652 23.6172H16.771V25.0087H18.1652V23.6172Z" fill="#898989"/>
  <path d="M18.1652 22.2246H16.771V23.6162H18.1652V22.2246Z" fill="#898989"/>
  <path d="M18.1652 20.8398H16.771V22.2257H18.1652V20.8398Z" fill="white"/>
  <path d="M18.1652 19.4473H16.771V20.8388H18.1652V19.4473Z" fill="#989898"/>
  <path d="M18.1652 18.0625H16.771V19.4483H18.1652V18.0625Z" fill="#BABABA"/>
  <path d="M18.1652 16.6699H16.771V18.0615H18.1652V16.6699Z" fill="#D3D3D3"/>
  <path d="M18.1652 15.2852H16.771V16.671H18.1652V15.2852Z" fill="#D3D3D3"/>
  <path d="M18.1652 13.8926H16.771V15.2841H18.1652V13.8926Z" fill="#D3D3D3"/>
  <path d="M18.1652 12.502H16.771V13.8935H18.1652V12.502Z" fill="#D3D3D3"/>
  <path d="M18.1652 11.1152H16.771V12.5011H18.1652V11.1152Z" fill="#D3D3D3"/>
  <path d="M18.1652 9.72461H16.771V11.1162H18.1652V9.72461Z" fill="#D3D3D3"/>
  <path d="M18.1652 8.33789H16.771V9.72374H18.1652V8.33789Z" fill="#D3D3D3"/>
  <path d="M18.1652 6.94727H16.771V8.33881H18.1652V6.94727Z" fill="#E7E7E7"/>
  <path d="M18.1652 5.55469H16.771V6.94624H18.1652V5.55469Z" fill="white"/>
  <path d="M18.1652 4.16797H16.771V5.55381H18.1652V4.16797Z" fill="#A7A7A7"/>
  <path d="M18.1652 2.77734H16.771V4.16889H18.1652V2.77734Z" fill="#898989"/>
  <path d="M18.1652 1.39062H16.771V2.77647H18.1652V1.39062Z" fill="#4F4F4F"/>
  <path d="M18.1652 0H16.771V1.39155H18.1652V0Z" fill="white"/>
  <path d="M16.7711 26.3945H15.3711V27.7861H16.7711V26.3945Z" fill="white"/>
  <path d="M16.7711 25.0078H15.3711V26.3937H16.7711V25.0078Z" fill="#4F4F4F"/>
  <path d="M16.7711 23.6172H15.3711V25.0087H16.7711V23.6172Z" fill="#898989"/>
  <path d="M16.7711 22.2246H15.3711V23.6162H16.7711V22.2246Z" fill="white"/>
  <path d="M16.7711 20.8398H15.3711V22.2257H16.7711V20.8398Z" fill="#989898"/>
  <path d="M16.7711 19.4473H15.3711V20.8388H16.7711V19.4473Z" fill="#BABABA"/>
  <path d="M16.7711 18.0625H15.3711V19.4483H16.7711V18.0625Z" fill="#D3D3D3"/>
  <path d="M16.7711 16.6699H15.3711V18.0615H16.7711V16.6699Z" fill="#D3D3D3"/>
  <path d="M16.7711 15.2852H15.3711V16.671H16.7711V15.2852Z" fill="#D3D3D3"/>
  <path d="M16.7711 13.8926H15.3711V15.2841H16.7711V13.8926Z" fill="#D3D3D3"/>
  <path d="M16.7711 12.502H15.3711V13.8935H16.7711V12.502Z" fill="#D3D3D3"/>
  <path d="M16.7711 11.1152H15.3711V12.5011H16.7711V11.1152Z" fill="#D3D3D3"/>
  <path d="M16.7711 9.72461H15.3711V11.1162H16.7711V9.72461Z" fill="#D3D3D3"/>
  <path d="M16.7711 8.33789H15.3711V9.72374H16.7711V8.33789Z" fill="#D3D3D3"/>
  <path d="M16.7711 6.94727H15.3711V8.33881H16.7711V6.94727Z" fill="#D3D3D3"/>
  <path d="M16.7711 5.55469H15.3711V6.94624H16.7711V5.55469Z" fill="#E7E7E7"/>
  <path d="M16.7711 4.16797H15.3711V5.55381H16.7711V4.16797Z" fill="white"/>
  <path d="M16.7711 2.77734H15.3711V4.16889H16.7711V2.77734Z" fill="#898989"/>
  <path d="M16.7711 1.39062H15.3711V2.77647H16.7711V1.39062Z" fill="#4F4F4F"/>
  <path d="M16.7711 0H15.3711V1.39155H16.7711V0Z" fill="white"/>
  <path d="M15.3713 26.3945H13.9771V27.7861H15.3713V26.3945Z" fill="white"/>
  <path d="M15.3713 25.0078H13.9771V26.3937H15.3713V25.0078Z" fill="#4F4F4F"/>
  <path d="M15.3713 23.6172H13.9771V25.0087H15.3713V23.6172Z" fill="#898989"/>
  <path d="M15.3713 22.2246H13.9771V23.6162H15.3713V22.2246Z" fill="white"/>
  <path d="M15.3713 20.8398H13.9771V22.2257H15.3713V20.8398Z" fill="#989898"/>
  <path d="M15.3713 19.4473H13.9771V20.8388H15.3713V19.4473Z" fill="#BABABA"/>
  <path d="M15.3713 18.0625H13.9771V19.4483H15.3713V18.0625Z" fill="#D3D3D3"/>
  <path d="M15.3713 16.6699H13.9771V18.0615H15.3713V16.6699Z" fill="#D3D3D3"/>
  <path d="M15.3713 15.2852H13.9771V16.671H15.3713V15.2852Z" fill="#D3D3D3"/>
  <path d="M15.3713 13.8926H13.9771V15.2841H15.3713V13.8926Z" fill="#D3D3D3"/>
  <path d="M15.3713 12.502H13.9771V13.8935H15.3713V12.502Z" fill="#D3D3D3"/>
  <path d="M15.3713 11.1152H13.9771V12.5011H15.3713V11.1152Z" fill="#D3D3D3"/>
  <path d="M15.3713 9.72461H13.9771V11.1162H15.3713V9.72461Z" fill="#D3D3D3"/>
  <path d="M15.3713 8.33789H13.9771V9.72374H15.3713V8.33789Z" fill="#D3D3D3"/>
  <path d="M15.3713 6.94727H13.9771V8.33881H15.3713V6.94727Z" fill="#D3D3D3"/>
  <path d="M15.3713 5.55469H13.9771V6.94624H15.3713V5.55469Z" fill="#E7E7E7"/>
  <path d="M15.3713 4.16797H13.9771V5.55381H15.3713V4.16797Z" fill="white"/>
  <path d="M15.3713 2.77734H13.9771V4.16889H15.3713V2.77734Z" fill="#898989"/>
  <path d="M15.3713 1.39062H13.9771V2.77647H15.3713V1.39062Z" fill="#4F4F4F"/>
  <path d="M15.3713 0H13.9771V1.39155H15.3713V0Z" fill="white"/>
  <path d="M13.9766 26.3945H12.5767V27.7861H13.9766V26.3945Z" fill="white"/>
  <path d="M13.9766 25.0078H12.5767V26.3937H13.9766V25.0078Z" fill="#4F4F4F"/>
  <path d="M13.9766 23.6172H12.5767V25.0087H13.9766V23.6172Z" fill="#898989"/>
  <path d="M13.9766 22.2246H12.5767V23.6162H13.9766V22.2246Z" fill="white"/>
  <path d="M13.9766 20.8398H12.5767V22.2257H13.9766V20.8398Z" fill="#989898"/>
  <path d="M13.9766 19.4473H12.5767V20.8388H13.9766V19.4473Z" fill="#BABABA"/>
  <path d="M13.9766 18.0625H12.5767V19.4483H13.9766V18.0625Z" fill="#D3D3D3"/>
  <path d="M13.9766 16.6699H12.5767V18.0615H13.9766V16.6699Z" fill="#D3D3D3"/>
  <path d="M13.9766 15.2852H12.5767V16.671H13.9766V15.2852Z" fill="#D3D3D3"/>
  <path d="M13.9766 13.8926H12.5767V15.2841H13.9766V13.8926Z" fill="#D3D3D3"/>
  <path d="M13.9766 12.502H12.5767V13.8935H13.9766V12.502Z" fill="#D3D3D3"/>
  <path d="M13.9766 11.1152H12.5767V12.5011H13.9766V11.1152Z" fill="#D3D3D3"/>
  <path d="M13.9766 9.72461H12.5767V11.1162H13.9766V9.72461Z" fill="#D3D3D3"/>
  <path d="M13.9766 8.33789H12.5767V9.72374H13.9766V8.33789Z" fill="#D3D3D3"/>
  <path d="M13.9766 6.94727H12.5767V8.33881H13.9766V6.94727Z" fill="#D3D3D3"/>
  <path d="M13.9766 5.55469H12.5767V6.94624H13.9766V5.55469Z" fill="#E7E7E7"/>
  <path d="M13.9766 4.16797H12.5767V5.55381H13.9766V4.16797Z" fill="white"/>
  <path d="M13.9766 2.77734H12.5767V4.16889H13.9766V2.77734Z" fill="#898989"/>
  <path d="M13.9766 1.39062H12.5767V2.77647H13.9766V1.39062Z" fill="#4F4F4F"/>
  <path d="M13.9766 0H12.5767V1.39155H13.9766V0Z" fill="white"/>
  <path d="M12.5767 26.3945H11.1768V27.7861H12.5767V26.3945Z" fill="white"/>
  <path d="M12.5767 25.0078H11.1768V26.3937H12.5767V25.0078Z" fill="#4F4F4F"/>
  <path d="M12.5767 23.6172H11.1768V25.0087H12.5767V23.6172Z" fill="#898989"/>
  <path d="M12.5767 22.2246H11.1768V23.6162H12.5767V22.2246Z" fill="white"/>
  <path d="M12.5767 20.8398H11.1768V22.2257H12.5767V20.8398Z" fill="#989898"/>
  <path d="M12.5767 19.4473H11.1768V20.8388H12.5767V19.4473Z" fill="#BABABA"/>
  <path d="M12.5767 18.0625H11.1768V19.4483H12.5767V18.0625Z" fill="#D3D3D3"/>
  <path d="M12.5767 16.6699H11.1768V18.0615H12.5767V16.6699Z" fill="#D3D3D3"/>
  <path d="M12.5767 15.2852H11.1768V16.671H12.5767V15.2852Z" fill="#D3D3D3"/>
  <path d="M12.5767 13.8926H11.1768V15.2841H12.5767V13.8926Z" fill="#D3D3D3"/>
  <path d="M12.5767 12.502H11.1768V13.8935H12.5767V12.502Z" fill="#D3D3D3"/>
  <path d="M12.5767 11.1152H11.1768V12.5011H12.5767V11.1152Z" fill="#D3D3D3"/>
  <path d="M12.5767 9.72461H11.1768V11.1162H12.5767V9.72461Z" fill="#D3D3D3"/>
  <path d="M12.5767 8.33789H11.1768V9.72374H12.5767V8.33789Z" fill="#D3D3D3"/>
  <path d="M12.5767 6.94727H11.1768V8.33881H12.5767V6.94727Z" fill="#D3D3D3"/>
  <path d="M12.5767 5.55469H11.1768V6.94624H12.5767V5.55469Z" fill="#E7E7E7"/>
  <path d="M12.5767 4.16797H11.1768V5.55381H12.5767V4.16797Z" fill="white"/>
  <path d="M12.5767 2.77734H11.1768V4.16889H12.5767V2.77734Z" fill="#898989"/>
  <path d="M12.5767 1.39062H11.1768V2.77647H12.5767V1.39062Z" fill="#4F4F4F"/>
  <path d="M12.5767 0H11.1768V1.39155H12.5767V0Z" fill="white"/>
  <path d="M11.177 26.3945H9.78271V27.7861H11.177V26.3945Z" fill="white"/>
  <path d="M11.177 25.0078H9.78271V26.3937H11.177V25.0078Z" fill="#4F4F4F"/>
  <path d="M11.177 23.6172H9.78271V25.0087H11.177V23.6172Z" fill="#898989"/>
  <path d="M11.177 22.2246H9.78271V23.6162H11.177V22.2246Z" fill="#898989"/>
  <path d="M11.177 20.8398H9.78271V22.2257H11.177V20.8398Z" fill="white"/>
  <path d="M11.177 19.4473H9.78271V20.8388H11.177V19.4473Z" fill="#989898"/>
  <path d="M11.177 18.0625H9.78271V19.4483H11.177V18.0625Z" fill="#BABABA"/>
  <path d="M11.177 16.6699H9.78271V18.0615H11.177V16.6699Z" fill="#D3D3D3"/>
  <path d="M11.177 15.2852H9.78271V16.671H11.177V15.2852Z" fill="#D3D3D3"/>
  <path d="M11.177 13.8926H9.78271V15.2841H11.177V13.8926Z" fill="#D3D3D3"/>
  <path d="M11.177 12.502H9.78271V13.8935H11.177V12.502Z" fill="#D3D3D3"/>
  <path d="M11.177 11.1152H9.78271V12.5011H11.177V11.1152Z" fill="#D3D3D3"/>
  <path d="M11.177 9.72461H9.78271V11.1162H11.177V9.72461Z" fill="#D3D3D3"/>
  <path d="M11.177 8.33789H9.78271V9.72374H11.177V8.33789Z" fill="#D3D3D3"/>
  <path d="M11.177 6.94727H9.78271V8.33881H11.177V6.94727Z" fill="#E7E7E7"/>
  <path d="M11.177 5.55469H9.78271V6.94624H11.177V5.55469Z" fill="white"/>
  <path d="M11.177 4.16797H9.78271V5.55381H11.177V4.16797Z" fill="#A7A7A7"/>
  <path d="M11.177 2.77734H9.78271V4.16889H11.177V2.77734Z" fill="#898989"/>
  <path d="M11.177 1.39062H9.78271V2.77647H11.177V1.39062Z" fill="#4F4F4F"/>
  <path d="M11.177 0H9.78271V1.39155H11.177V0Z" fill="white"/>
  <path d="M9.78279 25.0078H8.38281V26.3937H9.78279V25.0078Z" fill="white"/>
  <path d="M9.78279 23.6172H8.38281V25.0087H9.78279V23.6172Z" fill="#4F4F4F"/>
  <path d="M9.78279 22.2246H8.38281V23.6162H9.78279V22.2246Z" fill="#898989"/>
  <path d="M9.78279 20.8398H8.38281V22.2257H9.78279V20.8398Z" fill="white"/>
  <path d="M9.78279 19.4473H8.38281V20.8388H9.78279V19.4473Z" fill="#989898"/>
  <path d="M9.78279 18.0625H8.38281V19.4483H9.78279V18.0625Z" fill="#BABABA"/>
  <path d="M9.78279 16.6699H8.38281V18.0615H9.78279V16.6699Z" fill="#D3D3D3"/>
  <path d="M9.78279 15.2852H8.38281V16.671H9.78279V15.2852Z" fill="#D3D3D3"/>
  <path d="M9.78279 13.8926H8.38281V15.2841H9.78279V13.8926Z" fill="#D3D3D3"/>
  <path d="M9.78279 12.502H8.38281V13.8935H9.78279V12.502Z" fill="#D3D3D3"/>
  <path d="M9.78279 11.1152H8.38281V12.5011H9.78279V11.1152Z" fill="#D3D3D3"/>
  <path d="M9.78279 9.72461H8.38281V11.1162H9.78279V9.72461Z" fill="#D3D3D3"/>
  <path d="M9.78279 8.33789H8.38281V9.72374H9.78279V8.33789Z" fill="#D3D3D3"/>
  <path d="M9.78279 6.94727H8.38281V8.33881H9.78279V6.94727Z" fill="#E7E7E7"/>
  <path d="M9.78279 5.55469H8.38281V6.94624H9.78279V5.55469Z" fill="white"/>
  <path d="M9.78279 4.16797H8.38281V5.55381H9.78279V4.16797Z" fill="#898989"/>
  <path d="M9.78279 2.77734H8.38281V4.16889H9.78279V2.77734Z" fill="#4F4F4F"/>
  <path d="M9.78279 1.39062H8.38281V2.77647H9.78279V1.39062Z" fill="white"/>
  <path d="M8.38252 25.0078H6.98828V26.3937H8.38252V25.0078Z" fill="white"/>
  <path d="M8.38252 23.6172H6.98828V25.0087H8.38252V23.6172Z" fill="#4F4F4F"/>
  <path d="M8.38252 22.2246H6.98828V23.6162H8.38252V22.2246Z" fill="#898989"/>
  <path d="M8.38252 20.8398H6.98828V22.2257H8.38252V20.8398Z" fill="#898989"/>
  <path d="M8.38252 19.4473H6.98828V20.8388H8.38252V19.4473Z" fill="white"/>
  <path d="M8.38252 18.0625H6.98828V19.4483H8.38252V18.0625Z" fill="#989898"/>
  <path d="M8.38252 16.6699H6.98828V18.0615H8.38252V16.6699Z" fill="#BABABA"/>
  <path d="M8.38252 15.2852H6.98828V16.671H8.38252V15.2852Z" fill="#D3D3D3"/>
  <path d="M8.38252 13.8926H6.98828V15.2841H8.38252V13.8926Z" fill="#D3D3D3"/>
  <path d="M8.38252 12.502H6.98828V13.8935H8.38252V12.502Z" fill="#D3D3D3"/>
  <path d="M8.38252 11.1152H6.98828V12.5011H8.38252V11.1152Z" fill="#D3D3D3"/>
  <path d="M8.38252 9.72461H6.98828V11.1162H8.38252V9.72461Z" fill="#D3D3D3"/>
  <path d="M8.38252 8.33789H6.98828V9.72374H8.38252V8.33789Z" fill="#E7E7E7"/>
  <path d="M8.38252 6.94727H6.98828V8.33881H8.38252V6.94727Z" fill="white"/>
  <path d="M8.38252 5.55469H6.98828V6.94624H8.38252V5.55469Z" fill="#A7A7A7"/>
  <path d="M8.38252 4.16797H6.98828V5.55381H8.38252V4.16797Z" fill="#898989"/>
  <path d="M8.38252 2.77734H6.98828V4.16889H8.38252V2.77734Z" fill="#4F4F4F"/>
  <path d="M8.38252 1.39062H6.98828V2.77647H8.38252V1.39062Z" fill="white"/>
  <path d="M6.98836 23.6172H5.58838V25.0087H6.98836V23.6172Z" fill="white"/>
  <path d="M6.98836 22.2246H5.58838V23.6162H6.98836V22.2246Z" fill="#4F4F4F"/>
  <path d="M6.98836 20.8398H5.58838V22.2257H6.98836V20.8398Z" fill="#898989"/>
  <path d="M6.98836 19.4473H5.58838V20.8388H6.98836V19.4473Z" fill="#898989"/>
  <path d="M6.98836 18.0625H5.58838V19.4483H6.98836V18.0625Z" fill="white"/>
  <path d="M6.98836 16.6699H5.58838V18.0615H6.98836V16.6699Z" fill="white"/>
  <path d="M6.98836 15.2852H5.58838V16.671H6.98836V15.2852Z" fill="#989898"/>
  <path d="M6.98836 13.8926H5.58838V15.2841H6.98836V13.8926Z" fill="#BABABA"/>
  <path d="M6.98836 12.502H5.58838V13.8935H6.98836V12.502Z" fill="#D3D3D3"/>
  <path d="M6.98836 11.1152H5.58838V12.5011H6.98836V11.1152Z" fill="#D3D3D3"/>
  <path d="M6.98836 9.72461H5.58838V11.1162H6.98836V9.72461Z" fill="white"/>
  <path d="M6.98836 8.33789H5.58838V9.72374H6.98836V8.33789Z" fill="white"/>
  <path d="M6.98836 6.94727H5.58838V8.33881H6.98836V6.94727Z" fill="#A7A7A7"/>
  <path d="M6.98836 5.55469H5.58838V6.94624H6.98836V5.55469Z" fill="#898989"/>
  <path d="M6.98836 4.16797H5.58838V5.55381H6.98836V4.16797Z" fill="#4F4F4F"/>
  <path d="M6.98836 2.77734H5.58838V4.16889H6.98836V2.77734Z" fill="white"/>
  <path d="M5.58845 22.2246H4.18848V23.6162H5.58845V22.2246Z" fill="white"/>
  <path d="M5.58845 20.8398H4.18848V22.2257H5.58845V20.8398Z" fill="#4F4F4F"/>
  <path d="M5.58845 19.4473H4.18848V20.8388H5.58845V19.4473Z" fill="#898989"/>
  <path d="M5.58845 18.0625H4.18848V19.4483H5.58845V18.0625Z" fill="#898989"/>
  <path d="M5.58845 16.6699H4.18848V18.0615H5.58845V16.6699Z" fill="#898989"/>
  <path d="M5.58845 15.2852H4.18848V16.671H5.58845V15.2852Z" fill="white"/>
  <path d="M5.58845 13.8926H4.18848V15.2841H5.58845V13.8926Z" fill="white"/>
  <path d="M5.58845 12.502H4.18848V13.8935H5.58845V12.502Z" fill="white"/>
  <path d="M5.58845 11.1152H4.18848V12.5011H5.58845V11.1152Z" fill="white"/>
  <path d="M5.58845 9.72461H4.18848V11.1162H5.58845V9.72461Z" fill="#A7A7A7"/>
  <path d="M5.58845 8.33789H4.18848V9.72374H5.58845V8.33789Z" fill="#898989"/>
  <path d="M5.58845 6.94727H4.18848V8.33881H5.58845V6.94727Z" fill="#898989"/>
  <path d="M5.58845 5.55469H4.18848V6.94624H5.58845V5.55469Z" fill="#4F4F4F"/>
  <path d="M5.58845 4.16797H4.18848V5.55381H5.58845V4.16797Z" fill="white"/>
  <path d="M4.18867 20.8398H2.79443V22.2257H4.18867V20.8398Z" fill="white"/>
  <path d="M4.18867 19.4473H2.79443V20.8388H4.18867V19.4473Z" fill="#4F4F4F"/>
  <path d="M4.18867 18.0625H2.79443V19.4483H4.18867V18.0625Z" fill="#4F4F4F"/>
  <path d="M4.18867 16.6699H2.79443V18.0615H4.18867V16.6699Z" fill="#898989"/>
  <path d="M4.18867 15.2852H2.79443V16.671H4.18867V15.2852Z" fill="#898989"/>
  <path d="M4.18867 13.8926H2.79443V15.2841H4.18867V13.8926Z" fill="#898989"/>
  <path d="M4.18867 12.502H2.79443V13.8935H4.18867V12.502Z" fill="#898989"/>
  <path d="M4.18867 11.1152H2.79443V12.5011H4.18867V11.1152Z" fill="#898989"/>
  <path d="M4.18867 9.72461H2.79443V11.1162H4.18867V9.72461Z" fill="#898989"/>
  <path d="M4.18867 8.33789H2.79443V9.72374H4.18867V8.33789Z" fill="#4F4F4F"/>
  <path d="M4.18867 6.94727H2.79443V8.33881H4.18867V6.94727Z" fill="#4F4F4F"/>
  <path d="M4.18867 5.55469H2.79443V6.94624H4.18867V5.55469Z" fill="white"/>
  <path d="M2.79402 19.4473H1.39404V20.8388H2.79402V19.4473Z" fill="white"/>
  <path d="M2.79402 18.0625H1.39404V19.4483H2.79402V18.0625Z" fill="white"/>
  <path d="M2.79402 16.6699H1.39404V18.0615H2.79402V16.6699Z" fill="#4F4F4F"/>
  <path d="M2.79402 15.2852H1.39404V16.671H2.79402V15.2852Z" fill="#4F4F4F"/>
  <path d="M2.79402 13.8926H1.39404V15.2841H2.79402V13.8926Z" fill="#4F4F4F"/>
  <path d="M2.79402 12.502H1.39404V13.8935H2.79402V12.502Z" fill="#4F4F4F"/>
  <path d="M2.79402 11.1152H1.39404V12.5011H2.79402V11.1152Z" fill="#4F4F4F"/>
  <path d="M2.79402 9.72461H1.39404V11.1162H2.79402V9.72461Z" fill="#4F4F4F"/>
  <path d="M2.79402 8.33789H1.39404V9.72374H2.79402V8.33789Z" fill="white"/>
  <path d="M2.79402 6.94727H1.39404V8.33881H2.79402V6.94727Z" fill="white"/>
  <path d="M1.39424 16.6699H0V18.0615H1.39424V16.6699Z" fill="white"/>
  <path d="M1.39424 15.2852H0V16.671H1.39424V15.2852Z" fill="white"/>
  <path d="M1.39424 13.8926H0V15.2841H1.39424V13.8926Z" fill="white"/>
  <path d="M1.39424 12.502H0V13.8935H1.39424V12.502Z" fill="white"/>
  <path d="M1.39424 11.1152H0V12.5011H1.39424V11.1152Z" fill="white"/>
  <path d="M1.39424 9.72461H0V11.1162H1.39424V9.72461Z" fill="white"/>
  <path d="M29.3536 15.2852H27.9536V16.6767H29.3536V15.2852Z" fill="#898989"/>
  <path d="M29.3536 13.8926H27.9536V15.2841H29.3536V13.8926Z" fill="#898989"/>
  <path d="M29.3536 12.502H27.9536V13.8935H29.3536V12.502Z" fill="#898989"/>
  <path d="M29.3536 11.1152H27.9536V12.5068H29.3536V11.1152Z" fill="#898989"/>
  <path d="M30.7476 16.6719H29.3477V18.0634H30.7476V16.6719Z" fill="#898989"/>
  <path d="M30.7476 9.72461H29.3477V11.1162H30.7476V9.72461Z" fill="#898989"/>
  <path d="M32.148 16.6719H30.748V18.0634H32.148V16.6719Z" fill="#898989"/>
  <path d="M32.148 9.72461H30.748V11.1162H32.148V9.72461Z" fill="#898989"/>
  <path d="M33.5479 15.2852H32.1479V16.6767H33.5479V15.2852Z" fill="#898989"/>
  <path d="M33.5479 13.8926H32.1479V15.2841H33.5479V13.8926Z" fill="#898989"/>
  <path d="M33.5479 12.502H32.1479V13.8935H33.5479V12.502Z" fill="#898989"/>
  <path d="M33.5479 11.1152H32.1479V12.5068H33.5479V11.1152Z" fill="#898989"/>
  <path d="M36.3419 16.6719H34.9419V18.0634H36.3419V16.6719Z" fill="#898989"/>
  <path d="M36.3419 15.2852H34.9419V16.6767H36.3419V15.2852Z" fill="#898989"/>
  <path d="M36.3419 13.8926H34.9419V15.2841H36.3419V13.8926Z" fill="#898989"/>
  <path d="M36.3419 12.502H34.9419V13.8935H36.3419V12.502Z" fill="#898989"/>
  <path d="M36.3419 11.1152H34.9419V12.5068H36.3419V11.1152Z" fill="#898989"/>
  <path d="M36.3419 9.72461H34.9419V11.1162H36.3419V9.72461Z" fill="#898989"/>
  <path d="M37.7364 12.502H36.3364V13.8935H37.7364V12.502Z" fill="#898989"/>
  <path d="M37.7364 9.72461H36.3364V11.1162H37.7364V9.72461Z" fill="#898989"/>
  <path d="M39.1363 12.502H37.7363V13.8935H39.1363V12.502Z" fill="#898989"/>
  <path d="M39.1363 9.72461H37.7363V11.1162H39.1363V9.72461Z" fill="#898989"/>
  <path d="M41.9303 16.6719H40.5303V18.0634H41.9303V16.6719Z" fill="#898989"/>
  <path d="M41.9303 15.2852H40.5303V16.6767H41.9303V15.2852Z" fill="#898989"/>
  <path d="M41.9303 13.8926H40.5303V15.2841H41.9303V13.8926Z" fill="#898989"/>
  <path d="M41.9303 12.502H40.5303V13.8935H41.9303V12.502Z" fill="#898989"/>
  <path d="M41.9303 11.1152H40.5303V12.5068H41.9303V11.1152Z" fill="#898989"/>
  <path d="M41.9303 9.72461H40.5303V11.1162H41.9303V9.72461Z" fill="#898989"/>
  <path d="M43.3306 12.502H41.9307V13.8935H43.3306V12.502Z" fill="#898989"/>
  <path d="M43.3306 9.72461H41.9307V11.1162H43.3306V9.72461Z" fill="#898989"/>
  <path d="M44.7247 12.502H43.3247V13.8935H44.7247V12.502Z" fill="#898989"/>
  <path d="M44.7247 9.72461H43.3247V11.1162H44.7247V9.72461Z" fill="#898989"/>
  </svg>
