<svg width="52" height="28" viewBox="0 0 52 28" fill="none" xmlns="http://www.w3.org/2000/svg">
  <path d="M51.8565 16.7168H50.4526V18.1122H51.8565V16.7168Z" fill="white"/>
  <path d="M51.8565 15.3281H50.4526V16.7178H51.8565V15.3281Z" fill="white"/>
  <path d="M51.8565 13.9316H50.4526V15.327H51.8565V13.9316Z" fill="white"/>
  <path d="M51.8565 12.541H50.4526V13.9307H51.8565V12.541Z" fill="white"/>
  <path d="M51.8565 11.1465H50.4526V12.5419H51.8565V11.1465Z" fill="white"/>
  <path d="M51.8565 9.75195H50.4526V11.1474H51.8565V9.75195Z" fill="white"/>
  <path d="M50.4527 19.5078H49.0488V20.8975H50.4527V19.5078Z" fill="white"/>
  <path d="M50.4527 18.1133H49.0488V19.5087H50.4527V18.1133Z" fill="white"/>
  <path d="M50.4527 16.7168H49.0488V18.1122H50.4527V16.7168Z" fill="#00605A"/>
  <path d="M50.4527 15.3281H49.0488V16.7178H50.4527V15.3281Z" fill="#00605A"/>
  <path d="M50.4527 13.9316H49.0488V15.327H50.4527V13.9316Z" fill="#00605A"/>
  <path d="M50.4527 12.541H49.0488V13.9307H50.4527V12.541Z" fill="#00605A"/>
  <path d="M50.4527 11.1465H49.0488V12.5419H50.4527V11.1465Z" fill="#00605A"/>
  <path d="M50.4527 9.75195H49.0488V11.1474H50.4527V9.75195Z" fill="#00605A"/>
  <path d="M50.4527 8.36133H49.0488V9.75101H50.4527V8.36133Z" fill="white"/>
  <path d="M50.4527 6.9668H49.0488V8.3622H50.4527V6.9668Z" fill="white"/>
  <path d="M49.049 20.8984H47.6509V22.2938H49.049V20.8984Z" fill="white"/>
  <path d="M49.049 19.5078H47.6509V20.8975H49.049V19.5078Z" fill="#00605A"/>
  <path d="M49.049 18.1133H47.6509V19.5087H49.049V18.1133Z" fill="#00605A"/>
  <path d="M49.049 16.7168H47.6509V18.1122H49.049V16.7168Z" fill="#008A58"/>
  <path d="M49.049 15.3281H47.6509V16.7178H49.049V15.3281Z" fill="#008A58"/>
  <path d="M49.049 13.9316H47.6509V15.327H49.049V13.9316Z" fill="#008A58"/>
  <path d="M49.049 12.541H47.6509V13.9307H49.049V12.541Z" fill="#008A58"/>
  <path d="M49.049 11.1465H47.6509V12.5419H49.049V11.1465Z" fill="#008A58"/>
  <path d="M49.049 9.75195H47.6509V11.1474H49.049V9.75195Z" fill="#008A58"/>
  <path d="M49.049 8.36133H47.6509V9.75101H49.049V8.36133Z" fill="#00605A"/>
  <path d="M49.049 6.9668H47.6509V8.3622H49.049V6.9668Z" fill="#00605A"/>
  <path d="M49.049 5.57617H47.6509V6.96586H49.049V5.57617Z" fill="white"/>
  <path d="M47.6509 22.293H46.2471V23.6827H47.6509V22.293Z" fill="white"/>
  <path d="M47.6509 20.8984H46.2471V22.2938H47.6509V20.8984Z" fill="#00605A"/>
  <path d="M47.6509 19.5078H46.2471V20.8975H47.6509V19.5078Z" fill="#008A58"/>
  <path d="M47.6509 18.1133H46.2471V19.5087H47.6509V18.1133Z" fill="#008A58"/>
  <path d="M47.6509 16.7168H46.2471V18.1122H47.6509V16.7168Z" fill="#008A58"/>
  <path d="M47.6509 15.3281H46.2471V16.7178H47.6509V15.3281Z" fill="white"/>
  <path d="M47.6509 13.9316H46.2471V15.327H47.6509V13.9316Z" fill="white"/>
  <path d="M47.6509 12.541H46.2471V13.9307H47.6509V12.541Z" fill="white"/>
  <path d="M47.6509 11.1465H46.2471V12.5419H47.6509V11.1465Z" fill="white"/>
  <path d="M47.6509 9.75195H46.2471V11.1474H47.6509V9.75195Z" fill="#10CB93"/>
  <path d="M47.6509 8.36133H46.2471V9.75101H47.6509V8.36133Z" fill="#008A58"/>
  <path d="M47.6509 6.9668H46.2471V8.3622H47.6509V6.9668Z" fill="#008A58"/>
  <path d="M47.6509 5.57617H46.2471V6.96586H47.6509V5.57617Z" fill="#00605A"/>
  <path d="M47.6509 4.17969H46.2471V5.57509H47.6509V4.17969Z" fill="white"/>
  <path d="M46.2467 23.6836H44.8486V25.079H46.2467V23.6836Z" fill="white"/>
  <path d="M46.2467 22.293H44.8486V23.6827H46.2467V22.293Z" fill="#00605A"/>
  <path d="M46.2467 20.8984H44.8486V22.2938H46.2467V20.8984Z" fill="#008A58"/>
  <path d="M46.2467 19.5078H44.8486V20.8975H46.2467V19.5078Z" fill="#008A58"/>
  <path d="M46.2467 18.1133H44.8486V19.5087H46.2467V18.1133Z" fill="white"/>
  <path d="M46.2467 16.7168H44.8486V18.1122H46.2467V16.7168Z" fill="white"/>
  <path d="M46.2467 15.3281H44.8486V16.7178H46.2467V15.3281Z" fill="#03935F"/>
  <path d="M46.2467 13.9316H44.8486V15.327H46.2467V13.9316Z" fill="#00C371"/>
  <path d="M46.2467 12.541H44.8486V13.9307H46.2467V12.541Z" fill="#07EA7D"/>
  <path d="M46.2467 11.1465H44.8486V12.5419H46.2467V11.1465Z" fill="#07EA7D"/>
  <path d="M46.2467 9.75195H44.8486V11.1474H46.2467V9.75195Z" fill="white"/>
  <path d="M46.2467 8.36133H44.8486V9.75101H46.2467V8.36133Z" fill="white"/>
  <path d="M46.2467 6.9668H44.8486V8.3622H46.2467V6.9668Z" fill="#10CB93"/>
  <path d="M46.2467 5.57617H44.8486V6.96586H46.2467V5.57617Z" fill="#008A58"/>
  <path d="M46.2467 4.17969H44.8486V5.57509H46.2467V4.17969Z" fill="#00605A"/>
  <path d="M46.2467 2.78516H44.8486V4.18056H46.2467V2.78516Z" fill="white"/>
  <path d="M44.8487 25.0762H43.4448V26.4659H44.8487V25.0762Z" fill="white"/>
  <path d="M44.8487 23.6836H43.4448V25.079H44.8487V23.6836Z" fill="#00605A"/>
  <path d="M44.8487 22.293H43.4448V23.6827H44.8487V22.293Z" fill="#008A58"/>
  <path d="M44.8487 20.8984H43.4448V22.2938H44.8487V20.8984Z" fill="#008A58"/>
  <path d="M44.8487 19.5078H43.4448V20.8975H44.8487V19.5078Z" fill="white"/>
  <path d="M44.8487 18.1133H43.4448V19.5087H44.8487V18.1133Z" fill="#03935F"/>
  <path d="M44.8487 16.7168H43.4448V18.1122H44.8487V16.7168Z" fill="#00C371"/>
  <path d="M44.8487 15.3281H43.4448V16.7178H44.8487V15.3281Z" fill="#07EA7D"/>
  <path d="M44.8487 13.9316H43.4448V15.327H44.8487V13.9316Z" fill="#07EA7D"/>
  <path d="M44.8487 12.541H43.4448V13.9307H44.8487V12.541Z" fill="#07EA7D"/>
  <path d="M44.8487 11.1465H43.4448V12.5419H44.8487V11.1465Z" fill="#07EA7D"/>
  <path d="M44.8487 9.75195H43.4448V11.1474H44.8487V9.75195Z" fill="#07EA7D"/>
  <path d="M44.8487 8.36133H43.4448V9.75101H44.8487V8.36133Z" fill="#7DFFC1"/>
  <path d="M44.8487 6.9668H43.4448V8.3622H44.8487V6.9668Z" fill="white"/>
  <path d="M44.8487 5.57617H43.4448V6.96586H44.8487V5.57617Z" fill="#10CB93"/>
  <path d="M44.8487 4.17969H43.4448V5.57509H44.8487V4.17969Z" fill="#008A58"/>
  <path d="M44.8487 2.78516H43.4448V4.18056H44.8487V2.78516Z" fill="#00605A"/>
  <path d="M44.8487 1.39453H43.4448V2.78422H44.8487V1.39453Z" fill="white"/>
  <path d="M43.4449 25.0762H42.041V26.4659H43.4449V25.0762Z" fill="white"/>
  <path d="M43.4449 23.6836H42.041V25.079H43.4449V23.6836Z" fill="#00605A"/>
  <path d="M43.4449 22.293H42.041V23.6827H43.4449V22.293Z" fill="#008A58"/>
  <path d="M43.4449 20.8984H42.041V22.2938H43.4449V20.8984Z" fill="white"/>
  <path d="M43.4449 19.5078H42.041V20.8975H43.4449V19.5078Z" fill="#03935F"/>
  <path d="M43.4449 18.1133H42.041V19.5087H43.4449V18.1133Z" fill="#00C371"/>
  <path d="M43.4449 16.7168H42.041V18.1122H43.4449V16.7168Z" fill="#07EA7D"/>
  <path d="M43.4449 15.3281H42.041V16.7178H43.4449V15.3281Z" fill="#07EA7D"/>
  <path d="M43.4449 13.9316H42.041V15.327H43.4449V13.9316Z" fill="#07EA7D"/>
  <path d="M43.4449 12.541H42.041V13.9307H43.4449V12.541Z" fill="#07EA7D"/>
  <path d="M43.4449 11.1465H42.041V12.5419H43.4449V11.1465Z" fill="#07EA7D"/>
  <path d="M43.4449 9.75195H42.041V11.1474H43.4449V9.75195Z" fill="#07EA7D"/>
  <path d="M43.4449 8.36133H42.041V9.75101H43.4449V8.36133Z" fill="#07EA7D"/>
  <path d="M43.4449 6.9668H42.041V8.3622H43.4449V6.9668Z" fill="#7DFFC1"/>
  <path d="M43.4449 5.57617H42.041V6.96586H43.4449V5.57617Z" fill="white"/>
  <path d="M43.4449 4.17969H42.041V5.57509H43.4449V4.17969Z" fill="#008A58"/>
  <path d="M43.4449 2.78516H42.041V4.18056H43.4449V2.78516Z" fill="#00605A"/>
  <path d="M43.4449 1.39453H42.041V2.78422H43.4449V1.39453Z" fill="white"/>
  <path d="M42.0407 26.4668H40.6426V27.8622H42.0407V26.4668Z" fill="white"/>
  <path d="M42.0407 25.0762H40.6426V26.4659H42.0407V25.0762Z" fill="#00605A"/>
  <path d="M42.0407 23.6836H40.6426V25.079H42.0407V23.6836Z" fill="#008A58"/>
  <path d="M42.0407 22.293H40.6426V23.6827H42.0407V22.293Z" fill="#008A58"/>
  <path d="M42.0407 20.8984H40.6426V22.2938H42.0407V20.8984Z" fill="white"/>
  <path d="M42.0407 19.5078H40.6426V20.8975H42.0407V19.5078Z" fill="#03935F"/>
  <path d="M42.0407 18.1133H40.6426V19.5087H42.0407V18.1133Z" fill="#00C371"/>
  <path d="M42.0407 16.7168H40.6426V18.1122H42.0407V16.7168Z" fill="#07EA7D"/>
  <path d="M42.0407 15.3281H40.6426V16.7178H42.0407V15.3281Z" fill="#07EA7D"/>
  <path d="M42.0407 13.9316H40.6426V15.327H42.0407V13.9316Z" fill="#07EA7D"/>
  <path d="M42.0407 12.541H40.6426V13.9307H42.0407V12.541Z" fill="#07EA7D"/>
  <path d="M42.0407 11.1465H40.6426V12.5419H42.0407V11.1465Z" fill="#07EA7D"/>
  <path d="M42.0407 9.75195H40.6426V11.1474H42.0407V9.75195Z" fill="#07EA7D"/>
  <path d="M42.0407 8.36133H40.6426V9.75101H42.0407V8.36133Z" fill="#07EA7D"/>
  <path d="M42.0407 6.9668H40.6426V8.3622H42.0407V6.9668Z" fill="#7DFFC1"/>
  <path d="M42.0407 5.57617H40.6426V6.96586H42.0407V5.57617Z" fill="white"/>
  <path d="M42.0407 4.17969H40.6426V5.57509H42.0407V4.17969Z" fill="#10CB93"/>
  <path d="M42.0407 2.78516H40.6426V4.18056H42.0407V2.78516Z" fill="#008A58"/>
  <path d="M42.0407 1.39453H40.6426V2.78422H42.0407V1.39453Z" fill="#00605A"/>
  <path d="M42.0407 0H40.6426V1.3954H42.0407V0Z" fill="white"/>
  <path d="M40.6426 26.4668H39.2388V27.8622H40.6426V26.4668Z" fill="white"/>
  <path d="M40.6426 25.0762H39.2388V26.4659H40.6426V25.0762Z" fill="#00605A"/>
  <path d="M40.6426 23.6836H39.2388V25.079H40.6426V23.6836Z" fill="#008A58"/>
  <path d="M40.6426 22.293H39.2388V23.6827H40.6426V22.293Z" fill="white"/>
  <path d="M40.6426 20.8984H39.2388V22.2938H40.6426V20.8984Z" fill="#03935F"/>
  <path d="M40.6426 19.5078H39.2388V20.8975H40.6426V19.5078Z" fill="#00C371"/>
  <path d="M40.6426 18.1133H39.2388V19.5087H40.6426V18.1133Z" fill="#07EA7D"/>
  <path d="M40.6426 16.7168H39.2388V18.1122H40.6426V16.7168Z" fill="#07EA7D"/>
  <path d="M40.6426 15.3281H39.2388V16.7178H40.6426V15.3281Z" fill="#07EA7D"/>
  <path d="M40.6426 13.9316H39.2388V15.327H40.6426V13.9316Z" fill="#07EA7D"/>
  <path d="M40.6426 12.541H39.2388V13.9307H40.6426V12.541Z" fill="#07EA7D"/>
  <path d="M40.6426 11.1465H39.2388V12.5419H40.6426V11.1465Z" fill="#07EA7D"/>
  <path d="M40.6426 9.75195H39.2388V11.1474H40.6426V9.75195Z" fill="#07EA7D"/>
  <path d="M40.6426 8.36133H39.2388V9.75101H40.6426V8.36133Z" fill="#07EA7D"/>
  <path d="M40.6426 6.9668H39.2388V8.3622H40.6426V6.9668Z" fill="#07EA7D"/>
  <path d="M40.6426 5.57617H39.2388V6.96586H40.6426V5.57617Z" fill="#7DFFC1"/>
  <path d="M40.6426 4.17969H39.2388V5.57509H40.6426V4.17969Z" fill="white"/>
  <path d="M40.6426 2.78516H39.2388V4.18056H40.6426V2.78516Z" fill="#008A58"/>
  <path d="M40.6426 1.39453H39.2388V2.78422H40.6426V1.39453Z" fill="#00605A"/>
  <path d="M40.6426 0H39.2388V1.3954H40.6426V0Z" fill="white"/>
  <path d="M39.2389 26.4668H37.8408V27.8622H39.2389V26.4668Z" fill="white"/>
  <path d="M39.2389 25.0762H37.8408V26.4659H39.2389V25.0762Z" fill="#00605A"/>
  <path d="M39.2389 23.6836H37.8408V25.079H39.2389V23.6836Z" fill="#008A58"/>
  <path d="M39.2389 22.293H37.8408V23.6827H39.2389V22.293Z" fill="white"/>
  <path d="M39.2389 20.8984H37.8408V22.2938H39.2389V20.8984Z" fill="#03935F"/>
  <path d="M39.2389 19.5078H37.8408V20.8975H39.2389V19.5078Z" fill="#00C371"/>
  <path d="M39.2389 18.1133H37.8408V19.5087H39.2389V18.1133Z" fill="#07EA7D"/>
  <path d="M39.2389 16.7168H37.8408V18.1122H39.2389V16.7168Z" fill="#07EA7D"/>
  <path d="M39.2389 15.3281H37.8408V16.7178H39.2389V15.3281Z" fill="#07EA7D"/>
  <path d="M39.2389 13.9316H37.8408V15.327H39.2389V13.9316Z" fill="#07EA7D"/>
  <path d="M39.2389 12.541H37.8408V13.9307H39.2389V12.541Z" fill="#07EA7D"/>
  <path d="M39.2389 11.1465H37.8408V12.5419H39.2389V11.1465Z" fill="#07EA7D"/>
  <path d="M39.2389 9.75195H37.8408V11.1474H39.2389V9.75195Z" fill="#07EA7D"/>
  <path d="M39.2389 8.36133H37.8408V9.75101H39.2389V8.36133Z" fill="#07EA7D"/>
  <path d="M39.2389 6.9668H37.8408V8.3622H39.2389V6.9668Z" fill="#07EA7D"/>
  <path d="M39.2389 5.57617H37.8408V6.96586H39.2389V5.57617Z" fill="#7DFFC1"/>
  <path d="M39.2389 4.17969H37.8408V5.57509H39.2389V4.17969Z" fill="white"/>
  <path d="M39.2389 2.78516H37.8408V4.18056H39.2389V2.78516Z" fill="#008A58"/>
  <path d="M39.2389 1.39453H37.8408V2.78422H39.2389V1.39453Z" fill="#00605A"/>
  <path d="M39.2389 0H37.8408V1.3954H39.2389V0Z" fill="white"/>
  <path d="M37.8409 26.4668H36.437V27.8622H37.8409V26.4668Z" fill="white"/>
  <path d="M37.8409 25.0762H36.437V26.4659H37.8409V25.0762Z" fill="#00605A"/>
  <path d="M37.8409 23.6836H36.437V25.079H37.8409V23.6836Z" fill="#008A58"/>
  <path d="M37.8409 22.293H36.437V23.6827H37.8409V22.293Z" fill="white"/>
  <path d="M37.8409 20.8984H36.437V22.2938H37.8409V20.8984Z" fill="#03935F"/>
  <path d="M37.8409 19.5078H36.437V20.8975H37.8409V19.5078Z" fill="#00C371"/>
  <path d="M37.8409 18.1133H36.437V19.5087H37.8409V18.1133Z" fill="#07EA7D"/>
  <path d="M37.8409 16.7168H36.437V18.1122H37.8409V16.7168Z" fill="#07EA7D"/>
  <path d="M37.8409 15.3281H36.437V16.7178H37.8409V15.3281Z" fill="#07EA7D"/>
  <path d="M37.8409 13.9316H36.437V15.327H37.8409V13.9316Z" fill="#07EA7D"/>
  <path d="M37.8409 12.541H36.437V13.9307H37.8409V12.541Z" fill="#07EA7D"/>
  <path d="M37.8409 11.1465H36.437V12.5419H37.8409V11.1465Z" fill="#07EA7D"/>
  <path d="M37.8409 9.75195H36.437V11.1474H37.8409V9.75195Z" fill="#07EA7D"/>
  <path d="M37.8409 8.36133H36.437V9.75101H37.8409V8.36133Z" fill="#07EA7D"/>
  <path d="M37.8409 6.9668H36.437V8.3622H37.8409V6.9668Z" fill="#07EA7D"/>
  <path d="M37.8409 5.57617H36.437V6.96586H37.8409V5.57617Z" fill="#7DFFC1"/>
  <path d="M37.8409 4.17969H36.437V5.57509H37.8409V4.17969Z" fill="white"/>
  <path d="M37.8409 2.78516H36.437V4.18056H37.8409V2.78516Z" fill="#008A58"/>
  <path d="M37.8409 1.39453H36.437V2.78422H37.8409V1.39453Z" fill="#00605A"/>
  <path d="M37.8409 0H36.437V1.3954H37.8409V0Z" fill="white"/>
  <path d="M36.4371 26.4668H35.0332V27.8622H36.4371V26.4668Z" fill="white"/>
  <path d="M36.4371 25.0762H35.0332V26.4659H36.4371V25.0762Z" fill="#00605A"/>
  <path d="M36.4371 23.6836H35.0332V25.079H36.4371V23.6836Z" fill="#008A58"/>
  <path d="M36.4371 22.293H35.0332V23.6827H36.4371V22.293Z" fill="white"/>
  <path d="M36.4371 20.8984H35.0332V22.2938H36.4371V20.8984Z" fill="#03935F"/>
  <path d="M36.4371 19.5078H35.0332V20.8975H36.4371V19.5078Z" fill="#00C371"/>
  <path d="M36.4371 18.1133H35.0332V19.5087H36.4371V18.1133Z" fill="#07EA7D"/>
  <path d="M36.4371 16.7168H35.0332V18.1122H36.4371V16.7168Z" fill="#07EA7D"/>
  <path d="M36.4371 15.3281H35.0332V16.7178H36.4371V15.3281Z" fill="#07EA7D"/>
  <path d="M36.4371 13.9316H35.0332V15.327H36.4371V13.9316Z" fill="#07EA7D"/>
  <path d="M36.4371 12.541H35.0332V13.9307H36.4371V12.541Z" fill="#07EA7D"/>
  <path d="M36.4371 11.1465H35.0332V12.5419H36.4371V11.1465Z" fill="#07EA7D"/>
  <path d="M36.4371 9.75195H35.0332V11.1474H36.4371V9.75195Z" fill="#07EA7D"/>
  <path d="M36.4371 8.36133H35.0332V9.75101H36.4371V8.36133Z" fill="#07EA7D"/>
  <path d="M36.4371 6.9668H35.0332V8.3622H36.4371V6.9668Z" fill="#07EA7D"/>
  <path d="M36.4371 5.57617H35.0332V6.96586H36.4371V5.57617Z" fill="#7DFFC1"/>
  <path d="M36.4371 4.17969H35.0332V5.57509H36.4371V4.17969Z" fill="white"/>
  <path d="M36.4371 2.78516H35.0332V4.18056H36.4371V2.78516Z" fill="#008A58"/>
  <path d="M36.4371 1.39453H35.0332V2.78422H36.4371V1.39453Z" fill="#00605A"/>
  <path d="M36.4371 0H35.0332V1.3954H36.4371V0Z" fill="white"/>
  <path d="M35.0329 26.4668H33.6348V27.8622H35.0329V26.4668Z" fill="white"/>
  <path d="M35.0329 25.0762H33.6348V26.4659H35.0329V25.0762Z" fill="#00605A"/>
  <path d="M35.0329 23.6836H33.6348V25.079H35.0329V23.6836Z" fill="#008A58"/>
  <path d="M35.0329 22.293H33.6348V23.6827H35.0329V22.293Z" fill="#008A58"/>
  <path d="M35.0329 20.8984H33.6348V22.2938H35.0329V20.8984Z" fill="white"/>
  <path d="M35.0329 19.5078H33.6348V20.8975H35.0329V19.5078Z" fill="#03935F"/>
  <path d="M35.0329 18.1133H33.6348V19.5087H35.0329V18.1133Z" fill="#00C371"/>
  <path d="M35.0329 16.7168H33.6348V18.1122H35.0329V16.7168Z" fill="#07EA7D"/>
  <path d="M35.0329 15.3281H33.6348V16.7178H35.0329V15.3281Z" fill="#07EA7D"/>
  <path d="M35.0329 13.9316H33.6348V15.327H35.0329V13.9316Z" fill="#07EA7D"/>
  <path d="M35.0329 12.541H33.6348V13.9307H35.0329V12.541Z" fill="#07EA7D"/>
  <path d="M35.0329 11.1465H33.6348V12.5419H35.0329V11.1465Z" fill="#07EA7D"/>
  <path d="M35.0329 9.75195H33.6348V11.1474H35.0329V9.75195Z" fill="#07EA7D"/>
  <path d="M35.0329 8.36133H33.6348V9.75101H35.0329V8.36133Z" fill="#07EA7D"/>
  <path d="M35.0329 6.9668H33.6348V8.3622H35.0329V6.9668Z" fill="#7DFFC1"/>
  <path d="M35.0329 5.57617H33.6348V6.96586H35.0329V5.57617Z" fill="white"/>
  <path d="M35.0329 4.17969H33.6348V5.57509H35.0329V4.17969Z" fill="#10CB93"/>
  <path d="M35.0329 2.78516H33.6348V4.18056H35.0329V2.78516Z" fill="#008A58"/>
  <path d="M35.0329 1.39453H33.6348V2.78422H35.0329V1.39453Z" fill="#00605A"/>
  <path d="M35.0329 0H33.6348V1.3954H35.0329V0Z" fill="white"/>
  <path d="M33.6348 26.4668H32.231V27.8622H33.6348V26.4668Z" fill="white"/>
  <path d="M33.6348 25.0762H32.231V26.4659H33.6348V25.0762Z" fill="#00605A"/>
  <path d="M33.6348 23.6836H32.231V25.079H33.6348V23.6836Z" fill="#008A58"/>
  <path d="M33.6348 22.293H32.231V23.6827H33.6348V22.293Z" fill="#008A58"/>
  <path d="M33.6348 20.8984H32.231V22.2938H33.6348V20.8984Z" fill="white"/>
  <path d="M33.6348 19.5078H32.231V20.8975H33.6348V19.5078Z" fill="#03935F"/>
  <path d="M33.6348 18.1133H32.231V19.5087H33.6348V18.1133Z" fill="#00C371"/>
  <path d="M33.6348 16.7168H32.231V18.1122H33.6348V16.7168Z" fill="#07EA7D"/>
  <path d="M33.6348 15.3281H32.231V16.7178H33.6348V15.3281Z" fill="#07EA7D"/>
  <path d="M33.6348 13.9316H32.231V15.327H33.6348V13.9316Z" fill="#07EA7D"/>
  <path d="M33.6348 12.541H32.231V13.9307H33.6348V12.541Z" fill="#07EA7D"/>
  <path d="M33.6348 11.1465H32.231V12.5419H33.6348V11.1465Z" fill="#07EA7D"/>
  <path d="M33.6348 9.75195H32.231V11.1474H33.6348V9.75195Z" fill="#07EA7D"/>
  <path d="M33.6348 8.36133H32.231V9.75101H33.6348V8.36133Z" fill="#07EA7D"/>
  <path d="M33.6348 6.9668H32.231V8.3622H33.6348V6.9668Z" fill="#7DFFC1"/>
  <path d="M33.6348 5.57617H32.231V6.96586H33.6348V5.57617Z" fill="white"/>
  <path d="M33.6348 4.17969H32.231V5.57509H33.6348V4.17969Z" fill="#10CB93"/>
  <path d="M33.6348 2.78516H32.231V4.18056H33.6348V2.78516Z" fill="#008A58"/>
  <path d="M33.6348 1.39453H32.231V2.78422H33.6348V1.39453Z" fill="#00605A"/>
  <path d="M33.6348 0H32.231V1.3954H33.6348V0Z" fill="white"/>
  <path d="M32.2316 26.4668H30.8335V27.8622H32.2316V26.4668Z" fill="white"/>
  <path d="M32.2316 25.0762H30.8335V26.4659H32.2316V25.0762Z" fill="#00605A"/>
  <path d="M32.2316 23.6836H30.8335V25.079H32.2316V23.6836Z" fill="#10CB93"/>
  <path d="M32.2316 22.293H30.8335V23.6827H32.2316V22.293Z" fill="#008A58"/>
  <path d="M32.2316 20.8984H30.8335V22.2938H32.2316V20.8984Z" fill="#008A58"/>
  <path d="M32.2316 19.5078H30.8335V20.8975H32.2316V19.5078Z" fill="white"/>
  <path d="M32.2316 18.1133H30.8335V19.5087H32.2316V18.1133Z" fill="#03935F"/>
  <path d="M32.2316 16.7168H30.8335V18.1122H32.2316V16.7168Z" fill="#00C371"/>
  <path d="M32.2316 15.3281H30.8335V16.7178H32.2316V15.3281Z" fill="#07EA7D"/>
  <path d="M32.2316 13.9316H30.8335V15.327H32.2316V13.9316Z" fill="#07EA7D"/>
  <path d="M32.2316 12.541H30.8335V13.9307H32.2316V12.541Z" fill="#07EA7D"/>
  <path d="M32.2316 11.1465H30.8335V12.5419H32.2316V11.1465Z" fill="#07EA7D"/>
  <path d="M32.2316 9.75195H30.8335V11.1474H32.2316V9.75195Z" fill="#07EA7D"/>
  <path d="M32.2316 8.36133H30.8335V9.75101H32.2316V8.36133Z" fill="#7DFFC1"/>
  <path d="M32.2316 6.9668H30.8335V8.3622H32.2316V6.9668Z" fill="white"/>
  <path d="M32.2316 5.57617H30.8335V6.96586H32.2316V5.57617Z" fill="#10CB93"/>
  <path d="M32.2316 4.17969H30.8335V5.57509H32.2316V4.17969Z" fill="#10CB93"/>
  <path d="M32.2316 2.78516H30.8335V4.18056H32.2316V2.78516Z" fill="#008A58"/>
  <path d="M32.2316 1.39453H30.8335V2.78422H32.2316V1.39453Z" fill="#00605A"/>
  <path d="M32.2316 0H30.8335V1.3954H32.2316V0Z" fill="white"/>
  <path d="M30.8331 26.4668H29.4292V27.8622H30.8331V26.4668Z" fill="white"/>
  <path d="M30.8331 25.0762H29.4292V26.4659H30.8331V25.0762Z" fill="#00605A"/>
  <path d="M30.8331 23.6836H29.4292V25.079H30.8331V23.6836Z" fill="#10CB93"/>
  <path d="M30.8331 22.293H29.4292V23.6827H30.8331V22.293Z" fill="#10CB93"/>
  <path d="M30.8331 20.8984H29.4292V22.2938H30.8331V20.8984Z" fill="#008A58"/>
  <path d="M30.8331 19.5078H29.4292V20.8975H30.8331V19.5078Z" fill="#008A58"/>
  <path d="M30.8331 18.1133H29.4292V19.5087H30.8331V18.1133Z" fill="white"/>
  <path d="M30.8331 16.7168H29.4292V18.1122H30.8331V16.7168Z" fill="white"/>
  <path d="M30.8331 15.3281H29.4292V16.7178H30.8331V15.3281Z" fill="#03935F"/>
  <path d="M30.8331 13.9316H29.4292V15.327H30.8331V13.9316Z" fill="#00C371"/>
  <path d="M30.8331 12.541H29.4292V13.9307H30.8331V12.541Z" fill="#07EA7D"/>
  <path d="M30.8331 11.1465H29.4292V12.5419H30.8331V11.1465Z" fill="#07EA7D"/>
  <path d="M30.8331 9.75195H29.4292V11.1474H30.8331V9.75195Z" fill="white"/>
  <path d="M30.8331 8.36133H29.4292V9.75101H30.8331V8.36133Z" fill="white"/>
  <path d="M30.8331 6.9668H29.4292V8.3622H30.8331V6.9668Z" fill="#10CB93"/>
  <path d="M30.8331 5.57617H29.4292V6.96586H30.8331V5.57617Z" fill="#10CB93"/>
  <path d="M30.8331 4.17969H29.4292V5.57509H30.8331V4.17969Z" fill="#10CB93"/>
  <path d="M30.8331 2.78516H29.4292V4.18056H30.8331V2.78516Z" fill="#008A58"/>
  <path d="M30.8331 1.39453H29.4292V2.78422H30.8331V1.39453Z" fill="#00605A"/>
  <path d="M30.8331 0H29.4292V1.3954H30.8331V0Z" fill="white"/>
  <path d="M29.4293 26.4668H28.0254V27.8622H29.4293V26.4668Z" fill="white"/>
  <path d="M29.4293 25.0762H28.0254V26.4659H29.4293V25.0762Z" fill="#00605A"/>
  <path d="M29.4293 23.6836H28.0254V25.079H29.4293V23.6836Z" fill="#10CB93"/>
  <path d="M29.4293 22.293H28.0254V23.6827H29.4293V22.293Z" fill="#10CB93"/>
  <path d="M29.4293 20.8984H28.0254V22.2938H29.4293V20.8984Z" fill="#10CB93"/>
  <path d="M29.4293 19.5078H28.0254V20.8975H29.4293V19.5078Z" fill="#10CB93"/>
  <path d="M29.4293 18.1133H28.0254V19.5087H29.4293V18.1133Z" fill="#008A58"/>
  <path d="M29.4293 16.7168H28.0254V18.1122H29.4293V16.7168Z" fill="#008A58"/>
  <path d="M29.4293 15.3281H28.0254V16.7178H29.4293V15.3281Z" fill="white"/>
  <path d="M29.4293 13.9316H28.0254V15.327H29.4293V13.9316Z" fill="white"/>
  <path d="M29.4293 12.541H28.0254V13.9307H29.4293V12.541Z" fill="white"/>
  <path d="M29.4293 11.1465H28.0254V12.5419H29.4293V11.1465Z" fill="white"/>
  <path d="M29.4293 9.75195H28.0254V11.1474H29.4293V9.75195Z" fill="#10CB93"/>
  <path d="M29.4293 8.36133H28.0254V9.75101H29.4293V8.36133Z" fill="#10CB93"/>
  <path d="M29.4293 6.9668H28.0254V8.3622H29.4293V6.9668Z" fill="#10CB93"/>
  <path d="M29.4293 5.57617H28.0254V6.96586H29.4293V5.57617Z" fill="#10CB93"/>
  <path d="M29.4293 4.17969H28.0254V5.57509H29.4293V4.17969Z" fill="#10CB93"/>
  <path d="M29.4293 2.78516H28.0254V4.18056H29.4293V2.78516Z" fill="#008A58"/>
  <path d="M29.4293 1.39453H28.0254V2.78422H29.4293V1.39453Z" fill="#00605A"/>
  <path d="M29.4293 0H28.0254V1.3954H29.4293V0Z" fill="white"/>
  <path d="M28.0255 26.4668H26.6274V27.8622H28.0255V26.4668Z" fill="white"/>
  <path d="M28.0255 25.0762H26.6274V26.4659H28.0255V25.0762Z" fill="#00605A"/>
  <path d="M28.0255 23.6836H26.6274V25.079H28.0255V23.6836Z" fill="#10CB93"/>
  <path d="M28.0255 22.293H26.6274V23.6827H28.0255V22.293Z" fill="#10CB93"/>
  <path d="M28.0255 20.8984H26.6274V22.2938H28.0255V20.8984Z" fill="#10CB93"/>
  <path d="M28.0255 19.5078H26.6274V20.8975H28.0255V19.5078Z" fill="#10CB93"/>
  <path d="M28.0255 18.1133H26.6274V19.5087H28.0255V18.1133Z" fill="#10CB93"/>
  <path d="M28.0255 16.7168H26.6274V18.1122H28.0255V16.7168Z" fill="#10CB93"/>
  <path d="M28.0255 15.3281H26.6274V16.7178H28.0255V15.3281Z" fill="#10CB93"/>
  <path d="M28.0255 13.9316H26.6274V15.327H28.0255V13.9316Z" fill="#10CB93"/>
  <path d="M28.0255 12.541H26.6274V13.9307H28.0255V12.541Z" fill="#10CB93"/>
  <path d="M28.0255 11.1465H26.6274V12.5419H28.0255V11.1465Z" fill="#10CB93"/>
  <path d="M28.0255 9.75195H26.6274V11.1474H28.0255V9.75195Z" fill="#10CB93"/>
  <path d="M28.0255 8.36133H26.6274V9.75101H28.0255V8.36133Z" fill="#10CB93"/>
  <path d="M28.0255 6.9668H26.6274V8.3622H28.0255V6.9668Z" fill="#10CB93"/>
  <path d="M28.0255 5.57617H26.6274V6.96586H28.0255V5.57617Z" fill="#10CB93"/>
  <path d="M28.0255 4.17969H26.6274V5.57509H28.0255V4.17969Z" fill="#10CB93"/>
  <path d="M28.0255 2.78516H26.6274V4.18056H28.0255V2.78516Z" fill="#008A58"/>
  <path d="M28.0255 1.39453H26.6274V2.78422H28.0255V1.39453Z" fill="#00605A"/>
  <path d="M28.0255 0H26.6274V1.3954H28.0255V0Z" fill="white"/>
  <path d="M26.6275 26.4668H25.2236V27.8622H26.6275V26.4668Z" fill="white"/>
  <path d="M26.6275 25.0762H25.2236V26.4659H26.6275V25.0762Z" fill="#00605A"/>
  <path d="M26.6275 23.6836H25.2236V25.079H26.6275V23.6836Z" fill="#10CB93"/>
  <path d="M26.6275 22.293H25.2236V23.6827H26.6275V22.293Z" fill="#10CB93"/>
  <path d="M26.6275 20.8984H25.2236V22.2938H26.6275V20.8984Z" fill="#10CB93"/>
  <path d="M26.6275 19.5078H25.2236V20.8975H26.6275V19.5078Z" fill="#10CB93"/>
  <path d="M26.6275 18.1133H25.2236V19.5087H26.6275V18.1133Z" fill="#10CB93"/>
  <path d="M26.6275 16.7168H25.2236V18.1122H26.6275V16.7168Z" fill="#10CB93"/>
  <path d="M26.6275 15.3281H25.2236V16.7178H26.6275V15.3281Z" fill="#10CB93"/>
  <path d="M26.6275 13.9316H25.2236V15.327H26.6275V13.9316Z" fill="#10CB93"/>
  <path d="M26.6275 12.541H25.2236V13.9307H26.6275V12.541Z" fill="#10CB93"/>
  <path d="M26.6275 11.1465H25.2236V12.5419H26.6275V11.1465Z" fill="#10CB93"/>
  <path d="M26.6275 9.75195H25.2236V11.1474H26.6275V9.75195Z" fill="#10CB93"/>
  <path d="M26.6275 8.36133H25.2236V9.75101H26.6275V8.36133Z" fill="#10CB93"/>
  <path d="M26.6275 6.9668H25.2236V8.3622H26.6275V6.9668Z" fill="#10CB93"/>
  <path d="M26.6275 5.57617H25.2236V6.96586H26.6275V5.57617Z" fill="#10CB93"/>
  <path d="M26.6275 4.17969H25.2236V5.57509H26.6275V4.17969Z" fill="#10CB93"/>
  <path d="M26.6275 2.78516H25.2236V4.18056H26.6275V2.78516Z" fill="#008A58"/>
  <path d="M26.6275 1.39453H25.2236V2.78422H26.6275V1.39453Z" fill="#00605A"/>
  <path d="M26.6275 0H25.2236V1.3954H26.6275V0Z" fill="white"/>
  <path d="M25.2233 26.4668H23.8252V27.8622H25.2233V26.4668Z" fill="white"/>
  <path d="M25.2233 25.0762H23.8252V26.4659H25.2233V25.0762Z" fill="#00605A"/>
  <path d="M25.2233 23.6836H23.8252V25.079H25.2233V23.6836Z" fill="#10CB93"/>
  <path d="M25.2233 22.293H23.8252V23.6827H25.2233V22.293Z" fill="#10CB93"/>
  <path d="M25.2233 20.8984H23.8252V22.2938H25.2233V20.8984Z" fill="#10CB93"/>
  <path d="M25.2233 19.5078H23.8252V20.8975H25.2233V19.5078Z" fill="#10CB93"/>
  <path d="M25.2233 18.1133H23.8252V19.5087H25.2233V18.1133Z" fill="#10CB93"/>
  <path d="M25.2233 16.7168H23.8252V18.1122H25.2233V16.7168Z" fill="#10CB93"/>
  <path d="M25.2233 15.3281H23.8252V16.7178H25.2233V15.3281Z" fill="#10CB93"/>
  <path d="M25.2233 13.9316H23.8252V15.327H25.2233V13.9316Z" fill="#10CB93"/>
  <path d="M25.2233 12.541H23.8252V13.9307H25.2233V12.541Z" fill="#10CB93"/>
  <path d="M25.2233 11.1465H23.8252V12.5419H25.2233V11.1465Z" fill="#10CB93"/>
  <path d="M25.2233 9.75195H23.8252V11.1474H25.2233V9.75195Z" fill="#10CB93"/>
  <path d="M25.2233 8.36133H23.8252V9.75101H25.2233V8.36133Z" fill="#10CB93"/>
  <path d="M25.2233 6.9668H23.8252V8.3622H25.2233V6.9668Z" fill="#10CB93"/>
  <path d="M25.2233 5.57617H23.8252V6.96586H25.2233V5.57617Z" fill="#10CB93"/>
  <path d="M25.2233 4.17969H23.8252V5.57509H25.2233V4.17969Z" fill="#10CB93"/>
  <path d="M25.2233 2.78516H23.8252V4.18056H25.2233V2.78516Z" fill="#008A58"/>
  <path d="M25.2233 1.39453H23.8252V2.78422H25.2233V1.39453Z" fill="#00605A"/>
  <path d="M25.2233 0H23.8252V1.3954H25.2233V0Z" fill="white"/>
  <path d="M23.8252 26.4668H22.4214V27.8622H23.8252V26.4668Z" fill="white"/>
  <path d="M23.8252 25.0762H22.4214V26.4659H23.8252V25.0762Z" fill="#00605A"/>
  <path d="M23.8252 23.6836H22.4214V25.079H23.8252V23.6836Z" fill="#10CB93"/>
  <path d="M23.8252 22.293H22.4214V23.6827H23.8252V22.293Z" fill="#10CB93"/>
  <path d="M23.8252 20.8984H22.4214V22.2938H23.8252V20.8984Z" fill="#10CB93"/>
  <path d="M23.8252 19.5078H22.4214V20.8975H23.8252V19.5078Z" fill="#10CB93"/>
  <path d="M23.8252 18.1133H22.4214V19.5087H23.8252V18.1133Z" fill="#10CB93"/>
  <path d="M23.8252 16.7168H22.4214V18.1122H23.8252V16.7168Z" fill="#10CB93"/>
  <path d="M23.8252 15.3281H22.4214V16.7178H23.8252V15.3281Z" fill="#10CB93"/>
  <path d="M23.8252 13.9316H22.4214V15.327H23.8252V13.9316Z" fill="#10CB93"/>
  <path d="M23.8252 12.541H22.4214V13.9307H23.8252V12.541Z" fill="#10CB93"/>
  <path d="M23.8252 11.1465H22.4214V12.5419H23.8252V11.1465Z" fill="#10CB93"/>
  <path d="M23.8252 9.75195H22.4214V11.1474H23.8252V9.75195Z" fill="#10CB93"/>
  <path d="M23.8252 8.36133H22.4214V9.75101H23.8252V8.36133Z" fill="#10CB93"/>
  <path d="M23.8252 6.9668H22.4214V8.3622H23.8252V6.9668Z" fill="#10CB93"/>
  <path d="M23.8252 5.57617H22.4214V6.96586H23.8252V5.57617Z" fill="#10CB93"/>
  <path d="M23.8252 4.17969H22.4214V5.57509H23.8252V4.17969Z" fill="#10CB93"/>
  <path d="M23.8252 2.78516H22.4214V4.18056H23.8252V2.78516Z" fill="#008A58"/>
  <path d="M23.8252 1.39453H22.4214V2.78422H23.8252V1.39453Z" fill="#00605A"/>
  <path d="M23.8252 0H22.4214V1.3954H23.8252V0Z" fill="white"/>
  <path d="M22.4215 26.4668H21.0234V27.8622H22.4215V26.4668Z" fill="white"/>
  <path d="M22.4215 25.0762H21.0234V26.4659H22.4215V25.0762Z" fill="#00605A"/>
  <path d="M22.4215 23.6836H21.0234V25.079H22.4215V23.6836Z" fill="#10CB93"/>
  <path d="M22.4215 22.293H21.0234V23.6827H22.4215V22.293Z" fill="#10CB93"/>
  <path d="M22.4215 20.8984H21.0234V22.2938H22.4215V20.8984Z" fill="#10CB93"/>
  <path d="M22.4215 19.5078H21.0234V20.8975H22.4215V19.5078Z" fill="#10CB93"/>
  <path d="M22.4215 18.1133H21.0234V19.5087H22.4215V18.1133Z" fill="#10CB93"/>
  <path d="M22.4215 16.7168H21.0234V18.1122H22.4215V16.7168Z" fill="#10CB93"/>
  <path d="M22.4215 15.3281H21.0234V16.7178H22.4215V15.3281Z" fill="#10CB93"/>
  <path d="M22.4215 13.9316H21.0234V15.327H22.4215V13.9316Z" fill="#10CB93"/>
  <path d="M22.4215 12.541H21.0234V13.9307H22.4215V12.541Z" fill="#10CB93"/>
  <path d="M22.4215 11.1465H21.0234V12.5419H22.4215V11.1465Z" fill="#10CB93"/>
  <path d="M22.4215 9.75195H21.0234V11.1474H22.4215V9.75195Z" fill="#10CB93"/>
  <path d="M22.4215 8.36133H21.0234V9.75101H22.4215V8.36133Z" fill="#10CB93"/>
  <path d="M22.4215 6.9668H21.0234V8.3622H22.4215V6.9668Z" fill="#10CB93"/>
  <path d="M22.4215 5.57617H21.0234V6.96586H22.4215V5.57617Z" fill="#10CB93"/>
  <path d="M22.4215 4.17969H21.0234V5.57509H22.4215V4.17969Z" fill="#10CB93"/>
  <path d="M22.4215 2.78516H21.0234V4.18056H22.4215V2.78516Z" fill="#008A58"/>
  <path d="M22.4215 1.39453H21.0234V2.78422H22.4215V1.39453Z" fill="#00605A"/>
  <path d="M22.4215 0H21.0234V1.3954H22.4215V0Z" fill="white"/>
  <path d="M21.0235 26.4668H19.6196V27.8622H21.0235V26.4668Z" fill="white"/>
  <path d="M21.0235 25.0762H19.6196V26.4659H21.0235V25.0762Z" fill="#00605A"/>
  <path d="M21.0235 23.6836H19.6196V25.079H21.0235V23.6836Z" fill="#10CB93"/>
  <path d="M21.0235 22.293H19.6196V23.6827H21.0235V22.293Z" fill="#10CB93"/>
  <path d="M21.0235 20.8984H19.6196V22.2938H21.0235V20.8984Z" fill="#10CB93"/>
  <path d="M21.0235 19.5078H19.6196V20.8975H21.0235V19.5078Z" fill="#10CB93"/>
  <path d="M21.0235 18.1133H19.6196V19.5087H21.0235V18.1133Z" fill="#10CB93"/>
  <path d="M21.0235 16.7168H19.6196V18.1122H21.0235V16.7168Z" fill="#10CB93"/>
  <path d="M21.0235 15.3281H19.6196V16.7178H21.0235V15.3281Z" fill="#10CB93"/>
  <path d="M21.0235 13.9316H19.6196V15.327H21.0235V13.9316Z" fill="#10CB93"/>
  <path d="M21.0235 12.541H19.6196V13.9307H21.0235V12.541Z" fill="#10CB93"/>
  <path d="M21.0235 11.1465H19.6196V12.5419H21.0235V11.1465Z" fill="#10CB93"/>
  <path d="M21.0235 9.75195H19.6196V11.1474H21.0235V9.75195Z" fill="#10CB93"/>
  <path d="M21.0235 8.36133H19.6196V9.75101H21.0235V8.36133Z" fill="#10CB93"/>
  <path d="M21.0235 6.9668H19.6196V8.3622H21.0235V6.9668Z" fill="#10CB93"/>
  <path d="M21.0235 5.57617H19.6196V6.96586H21.0235V5.57617Z" fill="#10CB93"/>
  <path d="M21.0235 4.17969H19.6196V5.57509H21.0235V4.17969Z" fill="#10CB93"/>
  <path d="M21.0235 2.78516H19.6196V4.18056H21.0235V2.78516Z" fill="#008A58"/>
  <path d="M21.0235 1.39453H19.6196V2.78422H21.0235V1.39453Z" fill="#00605A"/>
  <path d="M21.0235 0H19.6196V1.3954H21.0235V0Z" fill="white"/>
  <path d="M19.6197 26.4668H18.2158V27.8622H19.6197V26.4668Z" fill="white"/>
  <path d="M19.6197 25.0762H18.2158V26.4659H19.6197V25.0762Z" fill="#00605A"/>
  <path d="M19.6197 23.6836H18.2158V25.079H19.6197V23.6836Z" fill="#10CB93"/>
  <path d="M19.6197 22.293H18.2158V23.6827H19.6197V22.293Z" fill="#10CB93"/>
  <path d="M19.6197 20.8984H18.2158V22.2938H19.6197V20.8984Z" fill="#10CB93"/>
  <path d="M19.6197 19.5078H18.2158V20.8975H19.6197V19.5078Z" fill="#10CB93"/>
  <path d="M19.6197 18.1133H18.2158V19.5087H19.6197V18.1133Z" fill="#10CB93"/>
  <path d="M19.6197 16.7168H18.2158V18.1122H19.6197V16.7168Z" fill="#10CB93"/>
  <path d="M19.6197 15.3281H18.2158V16.7178H19.6197V15.3281Z" fill="#10CB93"/>
  <path d="M19.6197 13.9316H18.2158V15.327H19.6197V13.9316Z" fill="#10CB93"/>
  <path d="M19.6197 12.541H18.2158V13.9307H19.6197V12.541Z" fill="#10CB93"/>
  <path d="M19.6197 11.1465H18.2158V12.5419H19.6197V11.1465Z" fill="#10CB93"/>
  <path d="M19.6197 9.75195H18.2158V11.1474H19.6197V9.75195Z" fill="#10CB93"/>
  <path d="M19.6197 8.36133H18.2158V9.75101H19.6197V8.36133Z" fill="#10CB93"/>
  <path d="M19.6197 6.9668H18.2158V8.3622H19.6197V6.9668Z" fill="#10CB93"/>
  <path d="M19.6197 5.57617H18.2158V6.96586H19.6197V5.57617Z" fill="#10CB93"/>
  <path d="M19.6197 4.17969H18.2158V5.57509H19.6197V4.17969Z" fill="#10CB93"/>
  <path d="M19.6197 2.78516H18.2158V4.18056H19.6197V2.78516Z" fill="#008A58"/>
  <path d="M19.6197 1.39453H18.2158V2.78422H19.6197V1.39453Z" fill="#00605A"/>
  <path d="M19.6197 0H18.2158V1.3954H19.6197V0Z" fill="white"/>
  <path d="M18.2155 26.4668H16.8174V27.8622H18.2155V26.4668Z" fill="white"/>
  <path d="M18.2155 25.0762H16.8174V26.4659H18.2155V25.0762Z" fill="#00605A"/>
  <path d="M18.2155 23.6836H16.8174V25.079H18.2155V23.6836Z" fill="#10CB93"/>
  <path d="M18.2155 22.293H16.8174V23.6827H18.2155V22.293Z" fill="#10CB93"/>
  <path d="M18.2155 20.8984H16.8174V22.2938H18.2155V20.8984Z" fill="#10CB93"/>
  <path d="M18.2155 19.5078H16.8174V20.8975H18.2155V19.5078Z" fill="#10CB93"/>
  <path d="M18.2155 18.1133H16.8174V19.5087H18.2155V18.1133Z" fill="#10CB93"/>
  <path d="M18.2155 16.7168H16.8174V18.1122H18.2155V16.7168Z" fill="#10CB93"/>
  <path d="M18.2155 15.3281H16.8174V16.7178H18.2155V15.3281Z" fill="#10CB93"/>
  <path d="M18.2155 13.9316H16.8174V15.327H18.2155V13.9316Z" fill="#10CB93"/>
  <path d="M18.2155 12.541H16.8174V13.9307H18.2155V12.541Z" fill="#10CB93"/>
  <path d="M18.2155 11.1465H16.8174V12.5419H18.2155V11.1465Z" fill="#10CB93"/>
  <path d="M18.2155 9.75195H16.8174V11.1474H18.2155V9.75195Z" fill="#10CB93"/>
  <path d="M18.2155 8.36133H16.8174V9.75101H18.2155V8.36133Z" fill="#10CB93"/>
  <path d="M18.2155 6.9668H16.8174V8.3622H18.2155V6.9668Z" fill="#10CB93"/>
  <path d="M18.2155 5.57617H16.8174V6.96586H18.2155V5.57617Z" fill="#10CB93"/>
  <path d="M18.2155 4.17969H16.8174V5.57509H18.2155V4.17969Z" fill="#10CB93"/>
  <path d="M18.2155 2.78516H16.8174V4.18056H18.2155V2.78516Z" fill="#008A58"/>
  <path d="M18.2155 1.39453H16.8174V2.78422H18.2155V1.39453Z" fill="#00605A"/>
  <path d="M18.2155 0H16.8174V1.3954H18.2155V0Z" fill="white"/>
  <path d="M16.8174 26.4668H15.4136V27.8622H16.8174V26.4668Z" fill="white"/>
  <path d="M16.8174 25.0762H15.4136V26.4659H16.8174V25.0762Z" fill="#00605A"/>
  <path d="M16.8174 23.6836H15.4136V25.079H16.8174V23.6836Z" fill="#10CB93"/>
  <path d="M16.8174 22.293H15.4136V23.6827H16.8174V22.293Z" fill="#10CB93"/>
  <path d="M16.8174 20.8984H15.4136V22.2938H16.8174V20.8984Z" fill="#10CB93"/>
  <path d="M16.8174 19.5078H15.4136V20.8975H16.8174V19.5078Z" fill="#10CB93"/>
  <path d="M16.8174 18.1133H15.4136V19.5087H16.8174V18.1133Z" fill="#10CB93"/>
  <path d="M16.8174 16.7168H15.4136V18.1122H16.8174V16.7168Z" fill="#10CB93"/>
  <path d="M16.8174 15.3281H15.4136V16.7178H16.8174V15.3281Z" fill="#10CB93"/>
  <path d="M16.8174 13.9316H15.4136V15.327H16.8174V13.9316Z" fill="#10CB93"/>
  <path d="M16.8174 12.541H15.4136V13.9307H16.8174V12.541Z" fill="#10CB93"/>
  <path d="M16.8174 11.1465H15.4136V12.5419H16.8174V11.1465Z" fill="#10CB93"/>
  <path d="M16.8174 9.75195H15.4136V11.1474H16.8174V9.75195Z" fill="#10CB93"/>
  <path d="M16.8174 8.36133H15.4136V9.75101H16.8174V8.36133Z" fill="#10CB93"/>
  <path d="M16.8174 6.9668H15.4136V8.3622H16.8174V6.9668Z" fill="#10CB93"/>
  <path d="M16.8174 5.57617H15.4136V6.96586H16.8174V5.57617Z" fill="#10CB93"/>
  <path d="M16.8174 4.17969H15.4136V5.57509H16.8174V4.17969Z" fill="#10CB93"/>
  <path d="M16.8174 2.78516H15.4136V4.18056H16.8174V2.78516Z" fill="#008A58"/>
  <path d="M16.8174 1.39453H15.4136V2.78422H16.8174V1.39453Z" fill="#00605A"/>
  <path d="M16.8174 0H15.4136V1.3954H16.8174V0Z" fill="white"/>
  <path d="M15.4137 26.4668H14.0156V27.8622H15.4137V26.4668Z" fill="white"/>
  <path d="M15.4137 25.0762H14.0156V26.4659H15.4137V25.0762Z" fill="#00605A"/>
  <path d="M15.4137 23.6836H14.0156V25.079H15.4137V23.6836Z" fill="#10CB93"/>
  <path d="M15.4137 22.293H14.0156V23.6827H15.4137V22.293Z" fill="#10CB93"/>
  <path d="M15.4137 20.8984H14.0156V22.2938H15.4137V20.8984Z" fill="#10CB93"/>
  <path d="M15.4137 19.5078H14.0156V20.8975H15.4137V19.5078Z" fill="#10CB93"/>
  <path d="M15.4137 18.1133H14.0156V19.5087H15.4137V18.1133Z" fill="#10CB93"/>
  <path d="M15.4137 16.7168H14.0156V18.1122H15.4137V16.7168Z" fill="#10CB93"/>
  <path d="M15.4137 15.3281H14.0156V16.7178H15.4137V15.3281Z" fill="#10CB93"/>
  <path d="M15.4137 13.9316H14.0156V15.327H15.4137V13.9316Z" fill="#10CB93"/>
  <path d="M15.4137 12.541H14.0156V13.9307H15.4137V12.541Z" fill="#10CB93"/>
  <path d="M15.4137 11.1465H14.0156V12.5419H15.4137V11.1465Z" fill="#10CB93"/>
  <path d="M15.4137 9.75195H14.0156V11.1474H15.4137V9.75195Z" fill="#10CB93"/>
  <path d="M15.4137 8.36133H14.0156V9.75101H15.4137V8.36133Z" fill="#10CB93"/>
  <path d="M15.4137 6.9668H14.0156V8.3622H15.4137V6.9668Z" fill="#10CB93"/>
  <path d="M15.4137 5.57617H14.0156V6.96586H15.4137V5.57617Z" fill="#10CB93"/>
  <path d="M15.4137 4.17969H14.0156V5.57509H15.4137V4.17969Z" fill="#10CB93"/>
  <path d="M15.4137 2.78516H14.0156V4.18056H15.4137V2.78516Z" fill="#008A58"/>
  <path d="M15.4137 1.39453H14.0156V2.78422H15.4137V1.39453Z" fill="#00605A"/>
  <path d="M15.4137 0H14.0156V1.3954H15.4137V0Z" fill="white"/>
  <path d="M14.0152 26.4668H12.6113V27.8622H14.0152V26.4668Z" fill="white"/>
  <path d="M14.0152 25.0762H12.6113V26.4659H14.0152V25.0762Z" fill="#00605A"/>
  <path d="M14.0152 23.6836H12.6113V25.079H14.0152V23.6836Z" fill="#10CB93"/>
  <path d="M14.0152 22.293H12.6113V23.6827H14.0152V22.293Z" fill="#10CB93"/>
  <path d="M14.0152 20.8984H12.6113V22.2938H14.0152V20.8984Z" fill="#10CB93"/>
  <path d="M14.0152 19.5078H12.6113V20.8975H14.0152V19.5078Z" fill="#10CB93"/>
  <path d="M14.0152 18.1133H12.6113V19.5087H14.0152V18.1133Z" fill="#10CB93"/>
  <path d="M14.0152 16.7168H12.6113V18.1122H14.0152V16.7168Z" fill="#10CB93"/>
  <path d="M14.0152 15.3281H12.6113V16.7178H14.0152V15.3281Z" fill="#10CB93"/>
  <path d="M14.0152 13.9316H12.6113V15.327H14.0152V13.9316Z" fill="#10CB93"/>
  <path d="M14.0152 12.541H12.6113V13.9307H14.0152V12.541Z" fill="#10CB93"/>
  <path d="M14.0152 11.1465H12.6113V12.5419H14.0152V11.1465Z" fill="#10CB93"/>
  <path d="M14.0152 9.75195H12.6113V11.1474H14.0152V9.75195Z" fill="#10CB93"/>
  <path d="M14.0152 8.36133H12.6113V9.75101H14.0152V8.36133Z" fill="#10CB93"/>
  <path d="M14.0152 6.9668H12.6113V8.3622H14.0152V6.9668Z" fill="#10CB93"/>
  <path d="M14.0152 5.57617H12.6113V6.96586H14.0152V5.57617Z" fill="#10CB93"/>
  <path d="M14.0152 4.17969H12.6113V5.57509H14.0152V4.17969Z" fill="#10CB93"/>
  <path d="M14.0152 2.78516H12.6113V4.18056H14.0152V2.78516Z" fill="#008A58"/>
  <path d="M14.0152 1.39453H12.6113V2.78422H14.0152V1.39453Z" fill="#00605A"/>
  <path d="M14.0152 0H12.6113V1.3954H14.0152V0Z" fill="white"/>
  <path d="M12.6114 26.4668H11.2075V27.8622H12.6114V26.4668Z" fill="white"/>
  <path d="M12.6114 25.0762H11.2075V26.4659H12.6114V25.0762Z" fill="#00605A"/>
  <path d="M12.6114 23.6836H11.2075V25.079H12.6114V23.6836Z" fill="#10CB93"/>
  <path d="M12.6114 22.293H11.2075V23.6827H12.6114V22.293Z" fill="#10CB93"/>
  <path d="M12.6114 20.8984H11.2075V22.2938H12.6114V20.8984Z" fill="#10CB93"/>
  <path d="M12.6114 19.5078H11.2075V20.8975H12.6114V19.5078Z" fill="#10CB93"/>
  <path d="M12.6114 18.1133H11.2075V19.5087H12.6114V18.1133Z" fill="#10CB93"/>
  <path d="M12.6114 16.7168H11.2075V18.1122H12.6114V16.7168Z" fill="#10CB93"/>
  <path d="M12.6114 15.3281H11.2075V16.7178H12.6114V15.3281Z" fill="#10CB93"/>
  <path d="M12.6114 13.9316H11.2075V15.327H12.6114V13.9316Z" fill="#10CB93"/>
  <path d="M12.6114 12.541H11.2075V13.9307H12.6114V12.541Z" fill="#10CB93"/>
  <path d="M12.6114 11.1465H11.2075V12.5419H12.6114V11.1465Z" fill="#10CB93"/>
  <path d="M12.6114 9.75195H11.2075V11.1474H12.6114V9.75195Z" fill="#10CB93"/>
  <path d="M12.6114 8.36133H11.2075V9.75101H12.6114V8.36133Z" fill="#10CB93"/>
  <path d="M12.6114 6.9668H11.2075V8.3622H12.6114V6.9668Z" fill="#10CB93"/>
  <path d="M12.6114 5.57617H11.2075V6.96586H12.6114V5.57617Z" fill="#10CB93"/>
  <path d="M12.6114 4.17969H11.2075V5.57509H12.6114V4.17969Z" fill="#10CB93"/>
  <path d="M12.6114 2.78516H11.2075V4.18056H12.6114V2.78516Z" fill="#008A58"/>
  <path d="M12.6114 1.39453H11.2075V2.78422H12.6114V1.39453Z" fill="#00605A"/>
  <path d="M12.6114 0H11.2075V1.3954H12.6114V0Z" fill="white"/>
  <path d="M11.2082 26.4668H9.81006V27.8622H11.2082V26.4668Z" fill="white"/>
  <path d="M11.2082 25.0762H9.81006V26.4659H11.2082V25.0762Z" fill="#00605A"/>
  <path d="M11.2082 23.6836H9.81006V25.079H11.2082V23.6836Z" fill="#10CB93"/>
  <path d="M11.2082 22.293H9.81006V23.6827H11.2082V22.293Z" fill="#10CB93"/>
  <path d="M11.2082 20.8984H9.81006V22.2938H11.2082V20.8984Z" fill="#10CB93"/>
  <path d="M11.2082 19.5078H9.81006V20.8975H11.2082V19.5078Z" fill="#10CB93"/>
  <path d="M11.2082 18.1133H9.81006V19.5087H11.2082V18.1133Z" fill="#10CB93"/>
  <path d="M11.2082 16.7168H9.81006V18.1122H11.2082V16.7168Z" fill="#10CB93"/>
  <path d="M11.2082 15.3281H9.81006V16.7178H11.2082V15.3281Z" fill="#10CB93"/>
  <path d="M11.2082 13.9316H9.81006V15.327H11.2082V13.9316Z" fill="#10CB93"/>
  <path d="M11.2082 12.541H9.81006V13.9307H11.2082V12.541Z" fill="#10CB93"/>
  <path d="M11.2082 11.1465H9.81006V12.5419H11.2082V11.1465Z" fill="#10CB93"/>
  <path d="M11.2082 9.75195H9.81006V11.1474H11.2082V9.75195Z" fill="#10CB93"/>
  <path d="M11.2082 8.36133H9.81006V9.75101H11.2082V8.36133Z" fill="#10CB93"/>
  <path d="M11.2082 6.9668H9.81006V8.3622H11.2082V6.9668Z" fill="#10CB93"/>
  <path d="M11.2082 5.57617H9.81006V6.96586H11.2082V5.57617Z" fill="#10CB93"/>
  <path d="M11.2082 4.17969H9.81006V5.57509H11.2082V4.17969Z" fill="#10CB93"/>
  <path d="M11.2082 2.78516H9.81006V4.18056H11.2082V2.78516Z" fill="#008A58"/>
  <path d="M11.2082 1.39453H9.81006V2.78422H11.2082V1.39453Z" fill="#00605A"/>
  <path d="M11.2082 0H9.81006V1.3954H11.2082V0Z" fill="white"/>
  <path d="M9.81011 25.0762H8.40625V26.4659H9.81011V25.0762Z" fill="white"/>
  <path d="M9.81011 23.6836H8.40625V25.079H9.81011V23.6836Z" fill="#00605A"/>
  <path d="M9.81011 22.293H8.40625V23.6827H9.81011V22.293Z" fill="#10CB93"/>
  <path d="M9.81011 20.8984H8.40625V22.2938H9.81011V20.8984Z" fill="#10CB93"/>
  <path d="M9.81011 19.5078H8.40625V20.8975H9.81011V19.5078Z" fill="#10CB93"/>
  <path d="M9.81011 18.1133H8.40625V19.5087H9.81011V18.1133Z" fill="#10CB93"/>
  <path d="M9.81011 16.7168H8.40625V18.1122H9.81011V16.7168Z" fill="#10CB93"/>
  <path d="M9.81011 15.3281H8.40625V16.7178H9.81011V15.3281Z" fill="#10CB93"/>
  <path d="M9.81011 13.9316H8.40625V15.327H9.81011V13.9316Z" fill="#10CB93"/>
  <path d="M9.81011 12.541H8.40625V13.9307H9.81011V12.541Z" fill="#10CB93"/>
  <path d="M9.81011 11.1465H8.40625V12.5419H9.81011V11.1465Z" fill="#10CB93"/>
  <path d="M9.81011 9.75195H8.40625V11.1474H9.81011V9.75195Z" fill="#10CB93"/>
  <path d="M9.81011 8.36133H8.40625V9.75101H9.81011V8.36133Z" fill="#10CB93"/>
  <path d="M9.81011 6.9668H8.40625V8.3622H9.81011V6.9668Z" fill="#10CB93"/>
  <path d="M9.81011 5.57617H8.40625V6.96586H9.81011V5.57617Z" fill="#10CB93"/>
  <path d="M9.81011 4.17969H8.40625V5.57509H9.81011V4.17969Z" fill="#008A58"/>
  <path d="M9.81011 2.78516H8.40625V4.18056H9.81011V2.78516Z" fill="#00605A"/>
  <path d="M9.81011 1.39453H8.40625V2.78422H9.81011V1.39453Z" fill="white"/>
  <path d="M8.40592 25.0762H7.00781V26.4659H8.40592V25.0762Z" fill="white"/>
  <path d="M8.40592 23.6836H7.00781V25.079H8.40592V23.6836Z" fill="#00605A"/>
  <path d="M8.40592 22.293H7.00781V23.6827H8.40592V22.293Z" fill="#10CB93"/>
  <path d="M8.40592 20.8984H7.00781V22.2938H8.40592V20.8984Z" fill="#10CB93"/>
  <path d="M8.40592 19.5078H7.00781V20.8975H8.40592V19.5078Z" fill="#10CB93"/>
  <path d="M8.40592 18.1133H7.00781V19.5087H8.40592V18.1133Z" fill="#10CB93"/>
  <path d="M8.40592 16.7168H7.00781V18.1122H8.40592V16.7168Z" fill="#10CB93"/>
  <path d="M8.40592 15.3281H7.00781V16.7178H8.40592V15.3281Z" fill="#10CB93"/>
  <path d="M8.40592 13.9316H7.00781V15.327H8.40592V13.9316Z" fill="#10CB93"/>
  <path d="M8.40592 12.541H7.00781V13.9307H8.40592V12.541Z" fill="#10CB93"/>
  <path d="M8.40592 11.1465H7.00781V12.5419H8.40592V11.1465Z" fill="#10CB93"/>
  <path d="M8.40592 9.75195H7.00781V11.1474H8.40592V9.75195Z" fill="#10CB93"/>
  <path d="M8.40592 8.36133H7.00781V9.75101H8.40592V8.36133Z" fill="#10CB93"/>
  <path d="M8.40592 6.9668H7.00781V8.3622H8.40592V6.9668Z" fill="#10CB93"/>
  <path d="M8.40592 5.57617H7.00781V6.96586H8.40592V5.57617Z" fill="#10CB93"/>
  <path d="M8.40592 4.17969H7.00781V5.57509H8.40592V4.17969Z" fill="#008A58"/>
  <path d="M8.40592 2.78516H7.00781V4.18056H8.40592V2.78516Z" fill="#00605A"/>
  <path d="M8.40592 1.39453H7.00781V2.78422H8.40592V1.39453Z" fill="white"/>
  <path d="M7.00786 23.6836H5.604V25.079H7.00786V23.6836Z" fill="white"/>
  <path d="M7.00786 22.293H5.604V23.6827H7.00786V22.293Z" fill="#00605A"/>
  <path d="M7.00786 20.8984H5.604V22.2938H7.00786V20.8984Z" fill="#10CB93"/>
  <path d="M7.00786 19.5078H5.604V20.8975H7.00786V19.5078Z" fill="#10CB93"/>
  <path d="M7.00786 18.1133H5.604V19.5087H7.00786V18.1133Z" fill="#10CB93"/>
  <path d="M7.00786 16.7168H5.604V18.1122H7.00786V16.7168Z" fill="#10CB93"/>
  <path d="M7.00786 15.3281H5.604V16.7178H7.00786V15.3281Z" fill="#10CB93"/>
  <path d="M7.00786 13.9316H5.604V15.327H7.00786V13.9316Z" fill="#10CB93"/>
  <path d="M7.00786 12.541H5.604V13.9307H7.00786V12.541Z" fill="#10CB93"/>
  <path d="M7.00786 11.1465H5.604V12.5419H7.00786V11.1465Z" fill="#10CB93"/>
  <path d="M7.00786 9.75195H5.604V11.1474H7.00786V9.75195Z" fill="#10CB93"/>
  <path d="M7.00786 8.36133H5.604V9.75101H7.00786V8.36133Z" fill="#10CB93"/>
  <path d="M7.00786 6.9668H5.604V8.3622H7.00786V6.9668Z" fill="#10CB93"/>
  <path d="M7.00786 5.57617H5.604V6.96586H7.00786V5.57617Z" fill="#008A58"/>
  <path d="M7.00786 4.17969H5.604V5.57509H7.00786V4.17969Z" fill="#00605A"/>
  <path d="M7.00786 2.78516H5.604V4.18056H7.00786V2.78516Z" fill="white"/>
  <path d="M5.60405 22.293H4.2002V23.6827H5.60405V22.293Z" fill="white"/>
  <path d="M5.60405 20.8984H4.2002V22.2938H5.60405V20.8984Z" fill="#00605A"/>
  <path d="M5.60405 19.5078H4.2002V20.8975H5.60405V19.5078Z" fill="#10CB93"/>
  <path d="M5.60405 18.1133H4.2002V19.5087H5.60405V18.1133Z" fill="#10CB93"/>
  <path d="M5.60405 16.7168H4.2002V18.1122H5.60405V16.7168Z" fill="#10CB93"/>
  <path d="M5.60405 15.3281H4.2002V16.7178H5.60405V15.3281Z" fill="#10CB93"/>
  <path d="M5.60405 13.9316H4.2002V15.327H5.60405V13.9316Z" fill="#10CB93"/>
  <path d="M5.60405 12.541H4.2002V13.9307H5.60405V12.541Z" fill="#10CB93"/>
  <path d="M5.60405 11.1465H4.2002V12.5419H5.60405V11.1465Z" fill="#10CB93"/>
  <path d="M5.60405 9.75195H4.2002V11.1474H5.60405V9.75195Z" fill="#10CB93"/>
  <path d="M5.60405 8.36133H4.2002V9.75101H5.60405V8.36133Z" fill="#10CB93"/>
  <path d="M5.60405 6.9668H4.2002V8.3622H5.60405V6.9668Z" fill="#008A58"/>
  <path d="M5.60405 5.57617H4.2002V6.96586H5.60405V5.57617Z" fill="#00605A"/>
  <path d="M5.60405 4.17969H4.2002V5.57509H5.60405V4.17969Z" fill="white"/>
  <path d="M4.20035 20.8984H2.80225V22.2938H4.20035V20.8984Z" fill="white"/>
  <path d="M4.20035 19.5078H2.80225V20.8975H4.20035V19.5078Z" fill="#00605A"/>
  <path d="M4.20035 18.1133H2.80225V19.5087H4.20035V18.1133Z" fill="#00605A"/>
  <path d="M4.20035 16.7168H2.80225V18.1122H4.20035V16.7168Z" fill="#10CB93"/>
  <path d="M4.20035 15.3281H2.80225V16.7178H4.20035V15.3281Z" fill="#10CB93"/>
  <path d="M4.20035 13.9316H2.80225V15.327H4.20035V13.9316Z" fill="#10CB93"/>
  <path d="M4.20035 12.541H2.80225V13.9307H4.20035V12.541Z" fill="#10CB93"/>
  <path d="M4.20035 11.1465H2.80225V12.5419H4.20035V11.1465Z" fill="#10CB93"/>
  <path d="M4.20035 9.75195H2.80225V11.1474H4.20035V9.75195Z" fill="#10CB93"/>
  <path d="M4.20035 8.36133H2.80225V9.75101H4.20035V8.36133Z" fill="#00605A"/>
  <path d="M4.20035 6.9668H2.80225V8.3622H4.20035V6.9668Z" fill="#00605A"/>
  <path d="M4.20035 5.57617H2.80225V6.96586H4.20035V5.57617Z" fill="white"/>
  <path d="M2.80181 19.5078H1.39795V20.8975H2.80181V19.5078Z" fill="white"/>
  <path d="M2.80181 18.1133H1.39795V19.5087H2.80181V18.1133Z" fill="white"/>
  <path d="M2.80181 16.7168H1.39795V18.1122H2.80181V16.7168Z" fill="#00605A"/>
  <path d="M2.80181 15.3281H1.39795V16.7178H2.80181V15.3281Z" fill="#00605A"/>
  <path d="M2.80181 13.9316H1.39795V15.327H2.80181V13.9316Z" fill="#00605A"/>
  <path d="M2.80181 12.541H1.39795V13.9307H2.80181V12.541Z" fill="#00605A"/>
  <path d="M2.80181 11.1465H1.39795V12.5419H2.80181V11.1465Z" fill="#00605A"/>
  <path d="M2.80181 9.75195H1.39795V11.1474H2.80181V9.75195Z" fill="#00605A"/>
  <path d="M2.80181 8.36133H1.39795V9.75101H2.80181V8.36133Z" fill="white"/>
  <path d="M2.80181 6.9668H1.39795V8.3622H2.80181V6.9668Z" fill="white"/>
  <path d="M1.3981 16.7168H0V18.1122H1.3981V16.7168Z" fill="white"/>
  <path d="M1.3981 15.3281H0V16.7178H1.3981V15.3281Z" fill="white"/>
  <path d="M1.3981 13.9316H0V15.327H1.3981V13.9316Z" fill="white"/>
  <path d="M1.3981 12.541H0V13.9307H1.3981V12.541Z" fill="white"/>
  <path d="M1.3981 11.1465H0V12.5419H1.3981V11.1465Z" fill="white"/>
  <path d="M1.3981 9.75195H0V11.1474H1.3981V9.75195Z" fill="white"/>
  <path d="M22.4268 16.7188H21.0229V18.1142H22.4268V16.7188Z" fill="#008A58"/>
  <path d="M22.4268 15.3281H21.0229V16.7235H22.4268V15.3281Z" fill="#008A58"/>
  <path d="M22.4268 13.9316H21.0229V15.327H22.4268V13.9316Z" fill="#008A58"/>
  <path d="M22.4268 12.543H21.0229V13.9384H22.4268V12.543Z" fill="#008A58"/>
  <path d="M22.4268 11.1465H21.0229V12.5419H22.4268V11.1465Z" fill="#008A58"/>
  <path d="M22.4268 9.75195H21.0229V11.1474H22.4268V9.75195Z" fill="#008A58"/>
  <path d="M21.0235 12.543H19.6196V13.9384H21.0235V12.543Z" fill="#008A58"/>
  <path d="M19.625 11.1465H18.2212V12.5419H19.625V11.1465Z" fill="#008A58"/>
  <path d="M18.2212 16.7188H16.8174V18.1142H18.2212V16.7188Z" fill="#008A58"/>
  <path d="M18.2212 15.3281H16.8174V16.7235H18.2212V15.3281Z" fill="#008A58"/>
  <path d="M18.2212 13.9316H16.8174V15.327H18.2212V13.9316Z" fill="#008A58"/>
  <path d="M18.2212 12.543H16.8174V13.9384H18.2212V12.543Z" fill="#008A58"/>
  <path d="M18.2212 11.1465H16.8174V12.5419H18.2212V11.1465Z" fill="#008A58"/>
  <path d="M18.2212 9.75195H16.8174V11.1474H18.2212V9.75195Z" fill="#008A58"/>
  <path d="M15.4195 15.3281H14.0156V16.7235H15.4195V15.3281Z" fill="#008A58"/>
  <path d="M15.4195 13.9316H14.0156V15.327H15.4195V13.9316Z" fill="#008A58"/>
  <path d="M15.4195 12.543H14.0156V13.9384H15.4195V12.543Z" fill="#008A58"/>
  <path d="M15.4195 11.1465H14.0156V12.5419H15.4195V11.1465Z" fill="#008A58"/>
  <path d="M14.0157 16.7188H12.6118V18.1142H14.0157V16.7188Z" fill="#008A58"/>
  <path d="M14.0157 9.75195H12.6118V11.1474H14.0157V9.75195Z" fill="#008A58"/>
  <path d="M12.6172 16.7188H11.2134V18.1142H12.6172V16.7188Z" fill="#008A58"/>
  <path d="M12.6172 9.75195H11.2134V11.1474H12.6172V9.75195Z" fill="#008A58"/>
  <path d="M11.2134 15.3281H9.80957V16.7235H11.2134V15.3281Z" fill="#008A58"/>
  <path d="M11.2134 13.9316H9.80957V15.327H11.2134V13.9316Z" fill="#008A58"/>
  <path d="M11.2134 12.543H9.80957V13.9384H11.2134V12.543Z" fill="#008A58"/>
  <path d="M11.2134 11.1465H9.80957V12.5419H11.2134V11.1465Z" fill="#008A58"/>
  </svg>
