<svg width="8" height="9" viewBox="0 0 8 9" fill="none" xmlns="http://www.w3.org/2000/svg">
  <path fill-rule="evenodd" clip-rule="evenodd"
    d="M5.60009 0C5.821 0 6.00009 0.179088 6.00009 0.400004V0.800033H6.80008C7.46282 0.800033 8.00009 1.3373 8.00009 2.00005V3.60005V7.60011C8.00009 8.26286 7.46282 8.80012 6.80008 8.80012H1.20001C0.537264 8.80012 0 8.26286 0 7.60011V3.60005V2.00005C0 1.3373 0.537264 0.800033 1.20001 0.800033H2.00004V0.400004C2.00004 0.179088 2.17913 0 2.40004 0C2.62096 0 2.80005 0.179088 2.80005 0.400004V0.800033H5.20008V0.400004C5.20008 0.179088 5.37917 0 5.60009 0ZM2.00004 1.60004V2.00002C2.00004 2.22094 2.17913 2.40003 2.40004 2.40003C2.62096 2.40003 2.80005 2.22094 2.80005 2.00002V1.60004H5.20008V2.00002C5.20008 2.22094 5.37917 2.40003 5.60009 2.40003C5.821 2.40003 6.00009 2.22094 6.00009 2.00002V1.60004H6.80008C7.02099 1.60004 7.20008 1.77913 7.20008 2.00005V3.20004H0.800009V2.00005C0.800009 1.77913 0.979097 1.60004 1.20001 1.60004H2.00004ZM7.20008 4.00005V7.60011C7.20008 7.82102 7.02099 8.00011 6.80008 8.00011H1.20001C0.979097 8.00011 0.800009 7.82102 0.800009 7.60011V4.00005H7.20008Z"
    fill="currentColor" />
</svg>
