<svg width="61" height="61" viewBox="0 0 61 61" fill="none" xmlns="http://www.w3.org/2000/svg">
<path fill-rule="evenodd" clip-rule="evenodd" d="M39.0061 8.73141C39.0245 8.85569 39.0408 8.97975 39.055 9.10355L39.0602 9.10034L39.0623 9.16922C39.125 9.74795 39.1412 10.3207 39.114 10.883L39.6517 28.7011L30.5305 22.3606V8.84185C30.5305 8.28957 30.0828 7.84185 29.5305 7.84185H29.2523C28.7 7.84185 28.2523 8.28957 28.2523 8.84185V20.7769L25.9421 19.1709C23.214 17.7419 21.1399 14.9278 20.6251 11.461C19.8047 5.9369 23.2544 0.847655 28.3302 0.0938903C33.406 -0.659874 38.1857 3.20727 39.0061 8.73141Z" fill="black"/>
<path fill-rule="evenodd" clip-rule="evenodd" d="M39.0061 8.73141C39.0245 8.85569 39.0408 8.97975 39.055 9.10355L39.0602 9.10034L39.0623 9.16922C39.125 9.74795 39.1412 10.3207 39.114 10.883L39.6517 28.7011L30.5305 22.3606V8.84185C30.5305 8.28957 30.0828 7.84185 29.5305 7.84185H29.2523C28.7 7.84185 28.2523 8.28957 28.2523 8.84185V20.7769L25.9421 19.1709C23.214 17.7419 21.1399 14.9278 20.6251 11.461C19.8047 5.9369 23.2544 0.847655 28.3302 0.0938903C33.406 -0.659874 38.1857 3.20727 39.0061 8.73141Z" fill="black"/>
<path fill-rule="evenodd" clip-rule="evenodd" d="M39.0061 8.73141C39.0245 8.85569 39.0408 8.97975 39.055 9.10355L39.0602 9.10034L39.0623 9.16922C39.125 9.74795 39.1412 10.3207 39.114 10.883L39.6517 28.7011L30.5305 22.3606V8.84185C30.5305 8.28957 30.0828 7.84185 29.5305 7.84185H29.2523C28.7 7.84185 28.2523 8.28957 28.2523 8.84185V20.7769L25.9421 19.1709C23.214 17.7419 21.1399 14.9278 20.6251 11.461C19.8047 5.9369 23.2544 0.847655 28.3302 0.0938903C33.406 -0.659874 38.1857 3.20727 39.0061 8.73141Z" fill="black"/>
<path fill-rule="evenodd" clip-rule="evenodd" d="M51.8667 39.0065C51.742 39.025 51.6174 39.0414 51.4931 39.0556L51.4963 39.0608L51.4277 39.0628C50.8498 39.1254 50.2778 39.1416 49.7164 39.1145L31.8956 39.6522L38.2362 30.531L51.7566 30.531C52.3089 30.531 52.7566 30.0833 52.7566 29.531L52.7566 29.2528C52.7566 28.7005 52.3089 28.2528 51.7566 28.2528L39.8198 28.2528L41.4315 25.9343C42.8619 23.2103 45.6739 21.1398 49.1371 20.6255C54.6612 19.8051 59.7505 23.2548 60.5043 28.3306C61.258 33.4064 57.3909 38.1861 51.8667 39.0065Z" fill="black"/>
<path fill-rule="evenodd" clip-rule="evenodd" d="M51.8667 39.0065C51.742 39.025 51.6174 39.0414 51.4931 39.0556L51.4963 39.0608L51.4277 39.0628C50.8498 39.1254 50.2778 39.1416 49.7164 39.1145L31.8956 39.6522L38.2362 30.531L51.7566 30.531C52.3089 30.531 52.7566 30.0833 52.7566 29.531L52.7566 29.2528C52.7566 28.7005 52.3089 28.2528 51.7566 28.2528L39.8198 28.2528L41.4315 25.9343C42.8619 23.2103 45.6739 21.1398 49.1371 20.6255C54.6612 19.8051 59.7505 23.2548 60.5043 28.3306C61.258 33.4064 57.3909 38.1861 51.8667 39.0065Z" fill="black"/>
<path fill-rule="evenodd" clip-rule="evenodd" d="M51.8667 39.0065C51.742 39.025 51.6174 39.0414 51.4931 39.0556L51.4963 39.0608L51.4277 39.0628C50.8498 39.1254 50.2778 39.1416 49.7164 39.1145L31.8956 39.6522L38.2362 30.531L51.7566 30.531C52.3089 30.531 52.7566 30.0833 52.7566 29.531L52.7566 29.2528C52.7566 28.7005 52.3089 28.2528 51.7566 28.2528L39.8198 28.2528L41.4315 25.9343C42.8619 23.2103 45.6739 21.1398 49.1371 20.6255C54.6612 19.8051 59.7505 23.2548 60.5043 28.3306C61.258 33.4064 57.3909 38.1861 51.8667 39.0065Z" fill="black"/>
<path fill-rule="evenodd" clip-rule="evenodd" d="M21.1504 51.8659C21.132 51.7416 21.1157 51.6176 21.1015 51.4938L21.0963 51.497L21.0942 51.4281C21.0315 50.8494 21.0153 50.2766 21.0425 49.7144L20.5048 31.8962L29.6259 38.2367L29.6259 51.7554C29.6259 52.3077 30.0736 52.7554 30.6259 52.7554L30.9041 52.7554C31.4564 52.7554 31.9041 52.3077 31.9041 51.7554L31.9041 39.8204L34.2144 41.4264C36.9425 42.8554 39.0166 45.6696 39.5314 49.1363C40.3518 54.6604 36.9021 59.7497 31.8263 60.5034C26.7505 61.2572 21.9708 57.39 21.1504 51.8659Z" fill="black"/>
<path fill-rule="evenodd" clip-rule="evenodd" d="M21.1504 51.8659C21.132 51.7416 21.1157 51.6176 21.1015 51.4938L21.0963 51.497L21.0942 51.4281C21.0315 50.8494 21.0153 50.2766 21.0425 49.7144L20.5048 31.8962L29.6259 38.2367L29.6259 51.7554C29.6259 52.3077 30.0736 52.7554 30.6259 52.7554L30.9041 52.7554C31.4564 52.7554 31.9041 52.3077 31.9041 51.7554L31.9041 39.8204L34.2144 41.4264C36.9425 42.8554 39.0166 45.6696 39.5314 49.1363C40.3518 54.6604 36.9021 59.7497 31.8263 60.5034C26.7505 61.2572 21.9708 57.39 21.1504 51.8659Z" fill="black"/>
<path fill-rule="evenodd" clip-rule="evenodd" d="M21.1504 51.8659C21.132 51.7416 21.1157 51.6176 21.1015 51.4938L21.0963 51.497L21.0942 51.4281C21.0315 50.8494 21.0153 50.2766 21.0425 49.7144L20.5048 31.8962L29.6259 38.2367L29.6259 51.7554C29.6259 52.3077 30.0736 52.7554 30.6259 52.7554L30.9041 52.7554C31.4564 52.7554 31.9041 52.3077 31.9041 51.7554L31.9041 39.8204L34.2144 41.4264C36.9425 42.8554 39.0166 45.6696 39.5314 49.1363C40.3518 54.6604 36.9021 59.7497 31.8263 60.5034C26.7505 61.2572 21.9708 57.39 21.1504 51.8659Z" fill="black"/>
<path fill-rule="evenodd" clip-rule="evenodd" d="M8.73141 21.147C8.8562 21.1285 8.98077 21.1121 9.10508 21.0979L9.10178 21.0925L9.17272 21.0904C9.74906 21.0281 10.3195 21.0119 10.8795 21.0389L28.7025 20.5011L22.3618 29.6225L8.84157 29.6225C8.28929 29.6225 7.84157 30.0702 7.84157 30.6225L7.84157 30.9007C7.84157 31.453 8.28929 31.9007 8.84157 31.9007L20.7781 31.9007L19.1672 34.2181C17.737 36.9427 14.9247 39.0136 11.461 39.528C5.9369 40.3483 0.847655 36.8986 0.09389 31.8229C-0.659875 26.7471 3.20727 21.9673 8.73141 21.147Z" fill="black"/>
<path fill-rule="evenodd" clip-rule="evenodd" d="M8.73141 21.147C8.8562 21.1285 8.98077 21.1121 9.10508 21.0979L9.10178 21.0925L9.17272 21.0904C9.74906 21.0281 10.3195 21.0119 10.8795 21.0389L28.7025 20.5011L22.3618 29.6225L8.84157 29.6225C8.28929 29.6225 7.84157 30.0702 7.84157 30.6225L7.84157 30.9007C7.84157 31.453 8.28929 31.9007 8.84157 31.9007L20.7781 31.9007L19.1672 34.2181C17.737 36.9427 14.9247 39.0136 11.461 39.528C5.9369 40.3483 0.847655 36.8986 0.09389 31.8229C-0.659875 26.7471 3.20727 21.9673 8.73141 21.147Z" fill="black"/>
<path fill-rule="evenodd" clip-rule="evenodd" d="M8.73141 21.147C8.8562 21.1285 8.98077 21.1121 9.10508 21.0979L9.10178 21.0925L9.17272 21.0904C9.74906 21.0281 10.3195 21.0119 10.8795 21.0389L28.7025 20.5011L22.3618 29.6225L8.84157 29.6225C8.28929 29.6225 7.84157 30.0702 7.84157 30.6225L7.84157 30.9007C7.84157 31.453 8.28929 31.9007 8.84157 31.9007L20.7781 31.9007L19.1672 34.2181C17.737 36.9427 14.9247 39.0136 11.461 39.528C5.9369 40.3483 0.847655 36.8986 0.09389 31.8229C-0.659875 26.7471 3.20727 21.9673 8.73141 21.147Z" fill="black"/>
</svg>
