<svg width="60" height="64" viewBox="0 0 60 64" fill="none" xmlns="http://www.w3.org/2000/svg">
<g clip-path="url(#clip0_54_1281)">
<path d="M60 33.5356C60 24.9492 58.4201 16.7883 55.5536 10.56C52.4196 3.75237 48.1328 0 43.4806 0H20.7445C12.2738 0 5.48589 12.3131 4.3846 28.799H0V29.5679C0 48.3759 7.2562 63.1034 16.5194 63.1034H39.2607C43.9129 63.1034 48.1997 59.3511 51.3337 52.5435C53.6701 47.4737 55.1471 41.1223 55.6205 34.3045H60.0051V33.5356H60ZM27.8875 50.2572C26.0451 45.6744 24.8615 40.1791 24.4498 34.3045H28.505V33.5356C28.505 25.9027 29.7813 18.6388 32.1125 12.8411C33.9549 17.4239 35.1385 22.9192 35.5502 28.7938H31.495V29.5628C31.495 37.1957 30.2187 44.4595 27.8875 50.2572ZM20.7445 1.53786C20.9915 1.53786 21.2334 1.55324 21.4804 1.57887C21.5627 1.58912 21.6399 1.6045 21.7223 1.61988C21.887 1.64551 22.0516 1.66601 22.2112 1.7019C22.3089 1.7224 22.4016 1.75316 22.4942 1.77879C22.6434 1.8198 22.7875 1.85056 22.9368 1.90182C23.0397 1.93258 23.1375 1.97871 23.2404 2.01459C23.3794 2.06586 23.5183 2.11712 23.6573 2.17863C23.7602 2.22477 23.8631 2.28116 23.966 2.33242C24.0998 2.39906 24.2336 2.46057 24.3674 2.53234C24.4755 2.58873 24.5784 2.66049 24.6814 2.72201C24.81 2.7989 24.9387 2.87579 25.0725 2.95781C25.1805 3.02958 25.2835 3.10647 25.3915 3.18337C25.5151 3.27564 25.6437 3.36278 25.7672 3.45505C25.8753 3.53707 25.9782 3.62935 26.0811 3.71649C26.2046 3.81901 26.3282 3.91641 26.4465 4.02406C26.5546 4.11633 26.6575 4.22398 26.7604 4.32138C26.8788 4.43416 26.9972 4.54693 27.1155 4.66484C27.2185 4.77249 27.3214 4.88526 27.4295 4.99804C27.5427 5.12107 27.661 5.2441 27.7743 5.37738C27.8772 5.49528 27.9801 5.62343 28.083 5.75159C28.1962 5.88487 28.3043 6.01815 28.4124 6.16168C28.5153 6.29497 28.6131 6.43337 28.716 6.57178C28.8241 6.71531 28.9322 6.85885 29.0351 7.01263C29.138 7.15617 29.2358 7.30995 29.3336 7.45861C29.4365 7.6124 29.5394 7.76618 29.6372 7.9251C29.735 8.08401 29.8327 8.24805 29.9305 8.40696C30.0283 8.571 30.1261 8.72991 30.2239 8.89907C30.3216 9.06824 30.4143 9.24253 30.5069 9.41682C30.5995 9.58598 30.6922 9.76027 30.7848 9.93456C30.8774 10.1191 30.9701 10.3036 31.0627 10.4933C31.1245 10.6266 31.1914 10.7548 31.2531 10.888C28.5668 16.8857 27.0486 24.6109 26.9611 32.7666H24.352C24.3005 31.7106 24.2748 30.6393 24.2748 29.5679V28.799H5.93361C7.00918 13.3947 13.2413 1.53786 20.7445 1.53786ZM49.9288 51.9027C47.1035 58.0439 43.213 61.5656 39.2607 61.5656C39.0136 61.5656 38.7718 61.5502 38.5247 61.5246C38.4424 61.5143 38.3652 61.4989 38.2829 61.4836C38.1182 61.4579 37.9535 61.4374 37.7888 61.4015C37.6962 61.381 37.5984 61.3503 37.5058 61.3247C37.3565 61.2836 37.2125 61.2529 37.0632 61.2016C36.9603 61.1709 36.8625 61.1247 36.7596 61.0889C36.6206 61.0376 36.4817 60.9863 36.3427 60.9248C36.2398 60.8787 36.1369 60.8223 36.034 60.7762C35.9002 60.7095 35.7612 60.648 35.6274 60.5711C35.5245 60.5147 35.4216 60.4481 35.3186 60.3866C35.1848 60.3097 35.051 60.2328 34.9224 60.1456C34.8195 60.079 34.7165 59.997 34.6136 59.9252C34.4849 59.8329 34.3563 59.7458 34.2276 59.6433C34.1247 59.5612 34.0218 59.4741 33.924 59.3921C33.7953 59.2896 33.6718 59.187 33.5432 59.0743C33.4403 58.982 33.3425 58.8846 33.2396 58.7872C33.116 58.6693 32.9925 58.5565 32.869 58.4284C32.7712 58.3258 32.6683 58.2131 32.5705 58.1105C32.4522 57.9824 32.3287 57.8542 32.2103 57.7158C32.1125 57.603 32.0148 57.48 31.917 57.3621C31.8038 57.2237 31.6854 57.0853 31.5722 56.9366C31.4744 56.8085 31.3766 56.6752 31.2788 56.547C31.1656 56.3984 31.0576 56.2497 30.9495 56.0908C30.8517 55.9524 30.7591 55.8037 30.6613 55.6602C30.5532 55.5013 30.4503 55.3424 30.3422 55.1783C30.2444 55.0246 30.1518 54.8708 30.0592 54.7119C29.9563 54.5427 29.8585 54.3787 29.7556 54.2044C29.6629 54.0403 29.5703 53.866 29.4777 53.6969C29.385 53.5226 29.2872 53.3483 29.1946 53.1689C29.102 52.9895 29.0093 52.8049 28.9219 52.6204C28.855 52.4871 28.7932 52.3538 28.7263 52.2205C31.4126 46.2229 32.9308 38.4977 33.0183 30.3419H35.6274C35.6789 31.3979 35.7046 32.4693 35.7046 33.5407V34.3096H54.0509C53.5878 40.9019 52.1623 47.0277 49.9134 51.9078L49.9288 51.9027Z" fill="black"/>
</g>
<defs>
<clipPath id="clip0_54_1281">
<rect width="60" height="63.1034" fill="white"/>
</clipPath>
</defs>
</svg>
