<svg width="41" height="41" viewBox="0 0 41 41" fill="none" xmlns="http://www.w3.org/2000/svg">
<path d="M16.5 2.8091C18.9752 1.38004 22.0247 1.38004 24.5 2.8091L33.8205 8.1903C36.2957 9.61936 37.8205 12.2604 37.8205 15.1185V25.8809C37.8205 28.739 36.2957 31.38 33.8205 32.8091L24.5 38.1903C22.0247 39.6194 18.9752 39.6194 16.5 38.1903L7.17944 32.8091C4.70423 31.38 3.17944 28.739 3.17944 25.8809V15.1185C3.17944 12.2604 4.70423 9.61936 7.17944 8.1903L16.5 2.8091Z" fill="#07070B"/>
<path fill-rule="evenodd" clip-rule="evenodd" d="M15.964 11.5C15.4868 11.5 15.1 11.8868 15.1 12.364V14.236C15.1 14.7132 14.7132 15.1 14.236 15.1L12.364 15.1L12.3634 15.1C11.8865 15.1004 11.5 15.487 11.5 15.964V18.7V29.5H15.1V25.9H25.9V29.5H29.5V18.7V15.964C29.5 15.487 29.1135 15.1004 28.6366 15.1C28.6364 15.1 28.6362 15.1 28.636 15.1L26.764 15.1C26.2868 15.1 25.9 14.7132 25.9 14.236V12.364C25.9 11.8868 25.5132 11.5 25.036 11.5H15.964ZM18.7 15.1H22.3L25.036 15.1C25.5132 15.1 25.9 15.4868 25.9 15.964V18.7V22.3H15.1V18.7V15.964C15.1 15.4868 15.4868 15.1 15.964 15.1L18.7 15.1Z" fill="white"/>
</svg>
