<svg width="58" height="55" viewBox="0 0 58 55" xmlns="http://www.w3.org/2000/svg">
<path d="M57.5327 11.6745C57.5327 11.5448 57.4893 11.4583 57.4893 11.4151V11.3719C57.4458 11.2854 57.4458 11.1989 57.4024 11.1557C57.3589 11.0692 57.3155 11.0259 57.272 10.9395L57.2285 10.8962C57.1851 10.853 57.0982 10.7665 57.0547 10.7233C57.0547 10.7233 57.0547 10.7233 57.0113 10.7233C56.9678 10.68 56.9244 10.68 56.8809 10.6368L38.6738 0.172953H38.6304C38.5869 0.129714 38.5434 0.129712 38.5 0.129712C38.4565 0.129712 38.4131 0.0864701 38.3696 0.0864701C38.3262 0.0864701 38.2827 0.0432416 38.2393 0.0432416C38.1958 0.0432416 38.1524 0.043239 38.1089 0C38.0655 0 38.022 0 37.9786 0C37.9351 0 37.8916 0 37.8482 0C37.8047 0 37.7613 2.63845e-06 37.7178 0.0432416C37.6744 0.0432416 37.6309 0.0432311 37.5875 0.0864701C37.544 0.0864701 37.5006 0.129712 37.4571 0.129712C37.4137 0.129712 37.3702 0.172953 37.3267 0.172953H37.2833L19.0762 10.6368L0.738712 21.0574C0.651804 21.1006 0.608351 21.1439 0.521443 21.1871L0.477987 21.2304C0.434533 21.2736 0.347628 21.3601 0.304175 21.4033C0.260721 21.4465 0.217266 21.533 0.173812 21.5763C0.173812 21.5763 0.173816 21.6195 0.130362 21.6195C0.0869088 21.706 0.0869035 21.7492 0.0434497 21.8357C0.0434497 21.9222 0 22.0087 0 22.0519C0 22.0951 0 22.0951 0 22.1384V22.1816V43.1093C0 43.6281 0.260721 44.1038 0.738712 44.3632L18.9458 54.827C19.1631 54.9568 19.4238 55 19.6845 55C19.9453 55 20.1625 54.9568 20.4232 54.827C20.8578 54.5676 21.162 54.092 21.162 53.5731V35.1101L37.2398 44.32C37.4571 44.4497 37.7178 44.4929 37.9786 44.4929C38.2393 44.4929 38.4565 44.4497 38.7173 44.32C39.1518 44.0605 39.456 43.5849 39.456 43.066V24.603L55.5339 33.8129C55.7511 33.9426 56.0118 33.9859 56.2726 33.9859C56.5333 33.9859 56.7506 33.9426 57.0113 33.8129C57.4458 33.5535 57.75 33.0778 57.75 32.559V11.6313C57.5327 11.8042 57.5327 11.7178 57.5327 11.6745ZM19.6411 31.0888L4.30192 22.2681L19.6411 13.4473L34.9802 22.2681L19.6411 31.0888ZM37.8916 20.625L22.5525 11.8042L37.8916 2.98349L53.2308 11.8042L37.8916 20.625ZM18.2071 51.195L2.86794 42.3742V24.7327L18.2071 33.5535V51.195ZM22.5525 32.7752L36.4577 24.7759V40.7311L22.5525 32.7752ZM40.7596 22.3113L54.6648 14.3121V30.2673L40.7596 22.3113Z" fill="currentColor"/>
</svg>
