<svg width="32" height="32" viewBox="0 0 32 32" fill="none" xmlns="http://www.w3.org/2000/svg">
<circle cx="16" cy="16" r="16" fill="white"/>
<path d="M28 15.8276C28 19.0069 27.4672 21.5858 26.8097 21.5858C26.1522 21.5858 25.6196 19.0076 25.6196 15.8276C25.6196 12.6476 26.1525 10.0693 26.8097 10.0693C27.467 10.0693 28 12.6473 28 15.8276Z" fill="black"/>
<path d="M24.9627 15.8281C24.9627 19.3775 23.4474 22.2559 21.5783 22.2559C19.7091 22.2559 18.1938 19.3775 18.1938 15.8281C18.1938 12.2788 19.7089 9.40039 21.578 9.40039C23.4472 9.40039 24.9625 12.2779 24.9625 15.8281" fill="black"/>
<path d="M17.5374 15.8277C17.5374 19.5984 14.5069 22.6552 10.7688 22.6552C7.03073 22.6552 4 19.5977 4 15.8277C4 12.0577 7.0305 9 10.7688 9C14.5072 9 17.5374 12.057 17.5374 15.8277Z" fill="black"/>
</svg>
