<svg width="73" height="80" viewBox="0 0 73 80" fill="none" xmlns="http://www.w3.org/2000/svg">
  <path fill-rule="evenodd" clip-rule="evenodd" d="M10.9951 0.207031H68.0031C70.4739 0.207031 72.4768 2.20995 72.4768 4.68068V73.6961C72.4768 76.9904 69.8062 79.661 66.5119 79.661H10.7503C8.41478 79.661 6.52148 77.7677 6.52148 75.4322V4.68068C6.52148 2.20995 8.52441 0.207031 10.9951 0.207031Z" fill="#373737"/>
  <path d="M57.9937 19.6465H16.4721C15.6483 19.6465 14.9805 20.3143 14.9805 21.1381C14.9805 21.9619 15.6483 22.6298 16.4721 22.6298H57.9937C58.8175 22.6298 59.4853 21.9619 59.4853 21.1381C59.4853 20.3143 58.8175 19.6465 57.9937 19.6465Z" fill="#4A4A4A"/>
  <path d="M32.0639 31.8184H16.4721C15.6483 31.8184 14.9805 32.4862 14.9805 33.31C14.9805 34.1338 15.6483 34.8016 16.4721 34.8016H32.0639C32.8878 34.8016 33.5556 34.1338 33.5556 33.31C33.5556 32.4862 32.8878 31.8184 32.0639 31.8184Z" fill="#4A4A4A"/>
  <path d="M43.0582 43.9883H16.4721C15.6483 43.9883 14.9805 44.6561 14.9805 45.4799C14.9805 46.3037 15.6483 46.9715 16.4721 46.9715H43.0582C43.882 46.9715 44.5498 46.3037 44.5498 45.4799C44.5498 44.6561 43.882 43.9883 43.0582 43.9883Z" fill="#4A4A4A"/>
  <path fill-rule="evenodd" clip-rule="evenodd" d="M0.492188 63.6289H62.0429V79.6906H6.45706C3.16275 79.6906 0.492188 77.02 0.492188 73.7257V63.6289ZM62.0429 72.9671C62.0429 76.6432 64.9895 79.6303 68.647 79.6897L68.758 79.6906H62.0429V72.9671Z" fill="url(#paint0_linear_4001_23317)"/>
  <defs>
  <linearGradient id="paint0_linear_4001_23317" x1="3572.01" y1="1669.79" x2="3572.01" y2="108.751" gradientUnits="userSpaceOnUse">
  <stop stop-color="#606060"/>
  <stop offset="1" stop-color="#444444"/>
  </linearGradient>
  </defs>
  </svg>
