<svg width="18" height="18" viewBox="0 0 18 18" fill="none" xmlns="http://www.w3.org/2000/svg">
  <path
    d="M13.1954 7.11333L12.7255 6.94235L13.1954 7.11333C13.3159 6.782 13.3159 6.41878 13.1954 6.08745L12.7255 6.25843L13.1954 6.08745C13.1282 5.90294 13.0207 5.75217 12.901 5.61285C12.7874 5.4807 12.6386 5.3319 12.4661 5.15943L12.4536 5.14684L12.441 5.13423C12.2685 4.96175 12.1197 4.81295 11.9875 4.69941C11.8482 4.57971 11.6975 4.47218 11.5129 4.40503C11.1816 4.28446 10.8184 4.28446 10.4871 4.40503C10.3026 4.47218 10.1518 4.57971 10.0125 4.69941C9.88032 4.81295 9.73151 4.96176 9.55904 5.13425L9.54645 5.14684L4.43817 10.2551C4.42714 10.2661 4.4162 10.2771 4.40533 10.2879C4.24286 10.45 4.09903 10.5936 3.99767 10.7726C3.8963 10.9516 3.84723 11.1488 3.7918 11.3715C3.78809 11.3864 3.78436 11.4014 3.78058 11.4166L3.38371 13.004C3.3815 13.0129 3.37927 13.0218 3.37703 13.0307C3.33779 13.1874 3.29588 13.3547 3.28213 13.4953C3.26699 13.65 3.27052 13.9111 3.47993 14.1205C3.68935 14.3299 3.9504 14.3334 4.10513 14.3183C4.24567 14.3045 4.41301 14.2626 4.5697 14.2234C4.57863 14.2211 4.58753 14.2189 4.59639 14.2167L6.18385 13.8198C6.19896 13.816 6.21397 13.8123 6.22885 13.8086C6.45159 13.7532 6.64877 13.7041 6.82781 13.6027C7.00684 13.5014 7.15036 13.3575 7.31249 13.1951C7.32333 13.1842 7.33425 13.1733 7.34527 13.1622L12.4536 8.05394L12.4661 8.04136C12.6386 7.86888 12.7874 7.72008 12.901 7.58793C13.0207 7.44861 13.1282 7.29784 13.1954 7.11333Z"
    stroke="currentColor" />
  <path d="M9.16667 5.49987L11.3667 4.0332L13.5667 6.2332L12.1 8.4332L9.16667 5.49987Z"
    fill="currentColor" />
</svg>
