<svg width="14" height="14" viewBox="0 0 14 14" fill="none" xmlns="http://www.w3.org/2000/svg">
  <path
    d="M1.54632 7.56641H6.14174V12.1618C6.14174 12.6289 6.52595 13.0206 7.00056 13.0206C7.47517 13.0206 7.85937 12.6289 7.85937 12.1618V7.56641H12.4548C12.9219 7.56641 13.3136 7.1822 13.3136 6.70759C13.3136 6.23298 12.9219 5.84877 12.4548 5.84877H7.85937V1.25335C7.85937 0.786272 7.47517 0.394531 7.00056 0.394531C6.52595 0.394531 6.14174 0.786272 6.14174 1.25335V5.84877H1.54632C1.07924 5.84877 0.6875 6.23298 0.6875 6.70759C0.6875 7.1822 1.07924 7.56641 1.54632 7.56641Z"
    fill="currentColor" />
</svg>
