<svg width="15" height="16" viewBox="0 0 15 16" fill="none" xmlns="http://www.w3.org/2000/svg">
<rect x="8.99982" width="2.66667" height="2.66667" transform="rotate(90 8.99982 0)" fill="#F8222A"/>
<rect x="8.99982" y="2.66669" width="2.66667" height="2.66667" transform="rotate(90 8.99982 2.66669)" fill="#F8222A"/>
<rect x="8.99982" y="5.33331" width="2.66667" height="2.66667" transform="rotate(90 8.99982 5.33331)" fill="#F8222A"/>
<rect x="8.99982" y="8" width="2.66667" height="2.66667" transform="rotate(90 8.99982 8)" fill="#F8222A"/>
<rect x="8.99982" y="10.6667" width="2.66667" height="2.66667" transform="rotate(90 8.99982 10.6667)" fill="#F8222A"/>
<rect x="8.99982" y="13.3333" width="2.66667" height="2.66667" transform="rotate(90 8.99982 13.3333)" fill="#F8222A"/>
<rect x="11.9998" y="9" width="3" height="3" transform="rotate(90 11.9998 9)" fill="#F8222A"/>
<rect x="6.33313" y="9" width="3" height="3" transform="rotate(90 6.33313 9)" fill="#F8222A"/>
<rect x="3.33313" y="6" width="3" height="3" transform="rotate(90 3.33313 6)" fill="#F8222A"/>
<rect x="14.9998" y="6" width="3" height="3" transform="rotate(90 14.9998 6)" fill="#F8222A"/>
</svg>
