<svg width="24" height="24" viewBox="0 0 24 24" fill="none" xmlns="http://www.w3.org/2000/svg">
<path d="M2 16L1.29289 16.7071L0.585786 16L1.29289 15.2929L2 16ZM17 15C17.5523 15 18 15.4477 18 16C18 16.5523 17.5523 17 17 17L17 15ZM6.29289 21.7071L1.29289 16.7071L2.70711 15.2929L7.70711 20.2929L6.29289 21.7071ZM1.29289 15.2929L6.29289 10.2929L7.70711 11.7071L2.70711 16.7071L1.29289 15.2929ZM2 15L17 15L17 17L2 17L2 15Z" fill="white"/>
<path d="M22 8L22.7071 8.70711L23.4142 8L22.7071 7.29289L22 8ZM7 7C6.44771 7 6 7.44772 6 8C6 8.55228 6.44771 9 7 9V7ZM17.7071 13.7071L22.7071 8.70711L21.2929 7.29289L16.2929 12.2929L17.7071 13.7071ZM22.7071 7.29289L17.7071 2.29289L16.2929 3.70711L21.2929 8.70711L22.7071 7.29289ZM22 7H7V9H22V7Z" fill="white"/>
</svg>
