<svg width="61" height="61" viewBox="0 0 61 61" fill="none" xmlns="http://www.w3.org/2000/svg">
<g clip-path="url(#clip0_54_1266)">
<path d="M61 28.1054H42.0614V31.6576L41.553 34.0336L40.564 36.2602L39.1367 38.2253L37.3314 39.8544L35.2276 41.0681L32.9186 41.8196L30.5023 42.0717L28.086 41.8196L25.7723 41.0681L23.6686 39.8544L21.8633 38.2253L20.436 36.2602L19.4424 34.0336L18.9386 31.6576V29.2257L19.4564 26.7984L19.4657 26.803L20.4126 24.6698L3.11134 16.9631L2.16441 19.0917L19.3771 26.7657L0.932936 22.84L0.401162 25.3513L17.7444 29.0389H0V31.8397H16.0605L0.326527 35.1866L1.00757 38.3841L15.6453 35.2706L1.97316 41.3622L3.30259 44.3496L15.9485 38.7108L4.72998 46.8703L6.92238 49.8904L17.0541 42.5245L8.67164 51.8416L11.5124 54.4043L19.6709 45.3345L13.5742 55.9027L16.9281 57.8398L22.9689 47.3697L19.2325 58.8714L22.9176 60.0664L26.7519 48.252L25.4551 60.5986L29.1682 60.9907L30.4417 48.8635L31.7151 61L35.6615 60.5892L34.4533 49.1202L38.0171 60.0898L41.8328 58.8481L38.339 48.0933L43.9926 57.8865L47.5051 55.856L41.9681 46.2541L49.3849 54.4976L52.431 51.7482L45.0934 43.5888L53.9703 50.0444L56.382 46.7209L47.5051 40.2652L57.5295 44.7324L59.1994 40.9794L49.8934 36.8343L59.8711 38.9582L60.7948 34.6171L52.1324 32.7733H61V28.1054Z" fill="black"/>
<path d="M58.0796 17.3898L40.7783 25.0981L41.3475 26.3774L58.6488 18.6691L58.0796 17.3898Z" fill="black"/>
<path d="M54.7528 11.9159L39.4312 23.0554L40.2811 24.226L55.6028 13.0866L54.7528 11.9159Z" fill="black"/>
<path d="M50.3528 7.26052L37.6804 21.3443L38.7897 22.3438L51.4621 8.26002L50.3528 7.26052Z" fill="black"/>
<path d="M45.0818 3.62634L35.6125 20.0389L36.9457 20.8091L46.415 4.39654L45.0818 3.62634Z" fill="black"/>
<path d="M39.1697 1.17322L33.3174 19.1973L34.8258 19.6877L40.6781 1.66365L39.1697 1.17322Z" fill="black"/>
<path d="M32.8728 0.00357975L30.8965 18.8517L32.5202 19.0222L34.4965 0.174071L32.8728 0.00357975Z" fill="black"/>
<path d="M28.1449 -0.000147429L26.4749 0.175507L28.4545 19.0233L30.1246 18.8477L28.1449 -0.000147429Z" fill="black"/>
<path d="M21.8968 1.14808L20.2554 1.68179L26.1077 19.7059L27.7492 19.1722L21.8968 1.14808Z" fill="black"/>
<path d="M16.0546 3.5446L14.4387 4.47818L23.908 20.8908L25.5239 19.9572L16.0546 3.5446Z" fill="black"/>
<path d="M10.839 7.08765L9.34839 8.43073L22.0208 22.5145L23.5114 21.1715L10.839 7.08765Z" fill="black"/>
<path d="M6.44159 11.6521L5.20776 13.3514L20.5294 24.4909L21.7632 22.7916L6.44159 11.6521Z" fill="black"/>
</g>
<defs>
<clipPath id="clip0_54_1266">
<rect width="61" height="61" fill="white"/>
</clipPath>
</defs>
</svg>
