<svg width="20" height="20" viewBox="0 0 20 20" fill="none" xmlns="http://www.w3.org/2000/svg">
  <g clip-path="url(#clip0_4001_5720)">
    <path
      d="M14.9993 5.83333H17.4993C17.7204 5.83333 17.9323 5.92113 18.0886 6.07741C18.2449 6.23369 18.3327 6.44565 18.3327 6.66667V16.6667C18.3327 16.8877 18.2449 17.0996 18.0886 17.2559C17.9323 17.4122 17.7204 17.5 17.4993 17.5H2.49935C2.27834 17.5 2.06637 17.4122 1.91009 17.2559C1.75381 17.0996 1.66602 16.8877 1.66602 16.6667V3.33333C1.66602 3.11232 1.75381 2.90036 1.91009 2.74408C2.06637 2.5878 2.27834 2.5 2.49935 2.5H14.9993V5.83333ZM3.33268 7.5V15.8333H16.666V7.5H3.33268ZM3.33268 4.16667V5.83333H13.3327V4.16667H3.33268ZM12.4993 10.8333H14.9993V12.5H12.4993V10.8333Z"
      fill="currentColor" />
  </g>
  <defs>
    <clipPath id="clip0_4001_5720">
      <rect width="20" height="20" fill="currentColor" />
    </clipPath>
  </defs>
</svg>
