<svg width="12" height="12" viewBox="0 0 12 12" fill="none" xmlns="http://www.w3.org/2000/svg">
  <path
    d="M10.8871 5.013L7.17544 1.10139C7.03661 0.966202 6.78795 0.966202 6.64912 1.10139C6.56674 1.1831 6.53776 1.29006 6.53776 1.39851V3.50214C3.46529 3.50214 1 5.90288 1 8.86964C1 9.59759 1.16629 10.3255 1.4714 11C1.91381 8.76119 4.10298 7.06314 6.53928 7.06314V9.16676C6.51182 9.27521 6.56674 9.38217 6.65065 9.46388C6.70557 9.5441 6.81693 9.57233 6.9283 9.57233C7.03966 9.57233 7.1495 9.51885 7.20595 9.43714L10.8886 5.5805C10.971 5.50028 11 5.41857 11 5.31161C10.9969 5.20167 10.942 5.09322 10.8871 5.013Z"
    fill="currentColor" />
</svg>
