<svg width="114" height="50" viewBox="0 0 114 50" fill="none" xmlns="http://www.w3.org/2000/svg">
  <path
    d="M23.04 27.2C23.508 27.2 23.868 27.56 23.868 28.028V33.572C23.868 34.04 23.508 34.4 23.04 34.4H21.024C20.556 34.4 20.196 34.76 20.196 35.228V37.172C20.196 37.64 19.836 38 19.368 38H2.664C2.196 38 1.836 37.64 1.836 37.172V28.028C1.836 27.56 2.196 27.2 2.664 27.2H4.68C5.148 27.2 5.508 26.84 5.508 26.372V24.428C5.508 23.96 5.148 23.6 4.68 23.6H2.664C2.196 23.6 1.836 23.24 1.836 22.772V13.628C1.836 13.16 2.196 12.8 2.664 12.8H19.368C19.836 12.8 20.196 13.16 20.196 13.628V15.572C20.196 16.04 20.556 16.4 21.024 16.4H23.04C23.508 16.4 23.868 16.76 23.868 17.228V22.772C23.868 23.24 23.508 23.6 23.04 23.6H21.024C20.556 23.6 20.196 23.96 20.196 24.428V26.372C20.196 26.84 20.556 27.2 21.024 27.2H23.04ZM5.508 34.4H19.368C19.836 34.4 20.196 34.04 20.196 33.572V28.028C20.196 27.56 19.836 27.2 19.368 27.2H6.336C5.868 27.2 5.508 27.56 5.508 28.028V34.4ZM5.508 22.772C5.508 23.24 5.868 23.6 6.336 23.6H19.368C19.836 23.6 20.196 23.24 20.196 22.772V17.228C20.196 16.76 19.836 16.4 19.368 16.4H5.508V22.772Z"
    fill="#78EDC1" />
  <path
    d="M34.8072 13.628C34.8072 13.16 35.1672 12.8 35.6352 12.8H48.6672C49.1352 12.8 49.4952 13.16 49.4952 13.628V15.572C49.4952 16.04 49.8552 16.4 50.3232 16.4H52.3392C52.8072 16.4 53.1672 16.76 53.1672 17.228V20H49.4952V17.228C49.4952 16.76 49.1352 16.4 48.6672 16.4H35.6352C35.1672 16.4 34.8072 16.76 34.8072 17.228V22.772C34.8072 23.24 35.1672 23.6 35.6352 23.6H45.8232V27.2H35.6352C35.1672 27.2 34.8072 27.56 34.8072 28.028V33.572C34.8072 34.04 35.1672 34.4 35.6352 34.4H48.6672C49.1352 34.4 49.4952 34.04 49.4952 33.572V30.8H53.1672V33.572C53.1672 34.04 52.8072 34.4 52.3392 34.4H50.3232C49.8552 34.4 49.4952 34.76 49.4952 35.228V37.172C49.4952 37.64 49.1352 38 48.6672 38H35.6352C35.1672 38 34.8072 37.64 34.8072 37.172V35.228C34.8072 34.76 34.4472 34.4 33.9792 34.4H31.9632C31.4952 34.4 31.1352 34.04 31.1352 33.572V28.028C31.1352 27.56 31.4952 27.2 31.9632 27.2H33.9792C34.4472 27.2 34.8072 26.84 34.8072 26.372V24.428C34.8072 23.96 34.4472 23.6 33.9792 23.6H31.9632C31.4952 23.6 31.1352 23.24 31.1352 22.772V17.228C31.1352 16.76 31.4952 16.4 31.9632 16.4H33.9792C34.4472 16.4 34.8072 16.04 34.8072 15.572V13.628Z"
    fill="#4CD6A2" />
  <path
    d="M64.1064 13.628C64.1064 13.16 64.4664 12.8 64.9344 12.8H77.9664C78.4344 12.8 78.7944 13.16 78.7944 13.628V15.572C78.7944 16.04 79.1544 16.4 79.6224 16.4H81.6384C82.1064 16.4 82.4664 16.76 82.4664 17.228V20H78.7944V17.228C78.7944 16.76 78.4344 16.4 77.9664 16.4H64.9344C64.4664 16.4 64.1064 16.76 64.1064 17.228V22.772C64.1064 23.24 64.4664 23.6 64.9344 23.6H75.1224V27.2H64.9344C64.4664 27.2 64.1064 27.56 64.1064 28.028V33.572C64.1064 34.04 64.4664 34.4 64.9344 34.4H77.9664C78.4344 34.4 78.7944 34.04 78.7944 33.572V30.8H82.4664V33.572C82.4664 34.04 82.1064 34.4 81.6384 34.4H79.6224C79.1544 34.4 78.7944 34.76 78.7944 35.228V37.172C78.7944 37.64 78.4344 38 77.9664 38H64.9344C64.4664 38 64.1064 37.64 64.1064 37.172V35.228C64.1064 34.76 63.7464 34.4 63.2784 34.4H61.2624C60.7944 34.4 60.4344 34.04 60.4344 33.572V28.028C60.4344 27.56 60.7944 27.2 61.2624 27.2H63.2784C63.7464 27.2 64.1064 26.84 64.1064 26.372V24.428C64.1064 23.96 63.7464 23.6 63.2784 23.6H61.2624C60.7944 23.6 60.4344 23.24 60.4344 22.772V17.228C60.4344 16.76 60.7944 16.4 61.2624 16.4H63.2784C63.7464 16.4 64.1064 16.04 64.1064 15.572V13.628Z"
    fill="#24C789" />
  <path
    d="M108.094 26.372C108.094 26.84 107.734 27.2 107.266 27.2H97.0417V23.6H107.266C107.734 23.6 108.094 23.24 108.094 22.772V17.228C108.094 16.76 107.734 16.4 107.266 16.4H94.2337C93.7657 16.4 93.4057 16.76 93.4057 17.228V38H89.7337V17.228C89.7337 16.76 90.0937 16.4 90.5617 16.4H92.5777C93.0457 16.4 93.4057 16.04 93.4057 15.572V13.628C93.4057 13.16 93.7657 12.8 94.2337 12.8H107.266C107.734 12.8 108.094 13.16 108.094 13.628V15.572C108.094 16.04 108.454 16.4 108.922 16.4H110.938C111.406 16.4 111.766 16.76 111.766 17.228V22.772C111.766 23.24 111.406 23.6 110.938 23.6H108.922C108.454 23.6 108.094 23.96 108.094 24.428V26.372Z"
    fill="#00A365" />
</svg>
