<svg width="111" height="26" viewBox="0 0 111 26" fill="none" xmlns="http://www.w3.org/2000/svg">
  <path
    d="M22.04 15.2C22.508 15.2 22.868 15.56 22.868 16.028V21.572C22.868 22.04 22.508 22.4 22.04 22.4H20.024C19.556 22.4 19.196 22.76 19.196 23.228V25.172C19.196 25.64 18.836 26 18.368 26H1.664C1.196 26 0.836 25.64 0.836 25.172V16.028C0.836 15.56 1.196 15.2 1.664 15.2H3.68C4.148 15.2 4.508 14.84 4.508 14.372V12.428C4.508 11.96 4.148 11.6 3.68 11.6H1.664C1.196 11.6 0.836 11.24 0.836 10.772V1.628C0.836 1.16 1.196 0.799998 1.664 0.799998H18.368C18.836 0.799998 19.196 1.16 19.196 1.628V3.572C19.196 4.04 19.556 4.4 20.024 4.4H22.04C22.508 4.4 22.868 4.76 22.868 5.228V10.772C22.868 11.24 22.508 11.6 22.04 11.6H20.024C19.556 11.6 19.196 11.96 19.196 12.428V14.372C19.196 14.84 19.556 15.2 20.024 15.2H22.04ZM4.508 22.4H18.368C18.836 22.4 19.196 22.04 19.196 21.572V16.028C19.196 15.56 18.836 15.2 18.368 15.2H5.336C4.868 15.2 4.508 15.56 4.508 16.028V22.4ZM4.508 10.772C4.508 11.24 4.868 11.6 5.336 11.6H18.368C18.836 11.6 19.196 11.24 19.196 10.772V5.228C19.196 4.76 18.836 4.4 18.368 4.4H4.508V10.772Z"
    fill="#78EDC1" />
  <path
    d="M33.8072 1.628C33.8072 1.16 34.1672 0.799998 34.6352 0.799998H47.6672C48.1352 0.799998 48.4952 1.16 48.4952 1.628V3.572C48.4952 4.04 48.8552 4.4 49.3232 4.4H51.3392C51.8072 4.4 52.1672 4.76 52.1672 5.228V8H48.4952V5.228C48.4952 4.76 48.1352 4.4 47.6672 4.4H34.6352C34.1672 4.4 33.8072 4.76 33.8072 5.228V10.772C33.8072 11.24 34.1672 11.6 34.6352 11.6H44.8232V15.2H34.6352C34.1672 15.2 33.8072 15.56 33.8072 16.028V21.572C33.8072 22.04 34.1672 22.4 34.6352 22.4H47.6672C48.1352 22.4 48.4952 22.04 48.4952 21.572V18.8H52.1672V21.572C52.1672 22.04 51.8072 22.4 51.3392 22.4H49.3232C48.8552 22.4 48.4952 22.76 48.4952 23.228V25.172C48.4952 25.64 48.1352 26 47.6672 26H34.6352C34.1672 26 33.8072 25.64 33.8072 25.172V23.228C33.8072 22.76 33.4472 22.4 32.9792 22.4H30.9632C30.4952 22.4 30.1352 22.04 30.1352 21.572V16.028C30.1352 15.56 30.4952 15.2 30.9632 15.2H32.9792C33.4472 15.2 33.8072 14.84 33.8072 14.372V12.428C33.8072 11.96 33.4472 11.6 32.9792 11.6H30.9632C30.4952 11.6 30.1352 11.24 30.1352 10.772V5.228C30.1352 4.76 30.4952 4.4 30.9632 4.4H32.9792C33.4472 4.4 33.8072 4.04 33.8072 3.572V1.628Z"
    fill="#4CD6A2" />
  <path
    d="M63.1064 1.628C63.1064 1.16 63.4664 0.799998 63.9344 0.799998H76.9664C77.4344 0.799998 77.7944 1.16 77.7944 1.628V3.572C77.7944 4.04 78.1544 4.4 78.6224 4.4H80.6384C81.1064 4.4 81.4664 4.76 81.4664 5.228V8H77.7944V5.228C77.7944 4.76 77.4344 4.4 76.9664 4.4H63.9344C63.4664 4.4 63.1064 4.76 63.1064 5.228V10.772C63.1064 11.24 63.4664 11.6 63.9344 11.6H74.1224V15.2H63.9344C63.4664 15.2 63.1064 15.56 63.1064 16.028V21.572C63.1064 22.04 63.4664 22.4 63.9344 22.4H76.9664C77.4344 22.4 77.7944 22.04 77.7944 21.572V18.8H81.4664V21.572C81.4664 22.04 81.1064 22.4 80.6384 22.4H78.6224C78.1544 22.4 77.7944 22.76 77.7944 23.228V25.172C77.7944 25.64 77.4344 26 76.9664 26H63.9344C63.4664 26 63.1064 25.64 63.1064 25.172V23.228C63.1064 22.76 62.7464 22.4 62.2784 22.4H60.2624C59.7944 22.4 59.4344 22.04 59.4344 21.572V16.028C59.4344 15.56 59.7944 15.2 60.2624 15.2H62.2784C62.7464 15.2 63.1064 14.84 63.1064 14.372V12.428C63.1064 11.96 62.7464 11.6 62.2784 11.6H60.2624C59.7944 11.6 59.4344 11.24 59.4344 10.772V5.228C59.4344 4.76 59.7944 4.4 60.2624 4.4H62.2784C62.7464 4.4 63.1064 4.04 63.1064 3.572V1.628Z"
    fill="#24C789" />
  <path
    d="M107.094 14.372C107.094 14.84 106.734 15.2 106.266 15.2H96.0417V11.6H106.266C106.734 11.6 107.094 11.24 107.094 10.772V5.228C107.094 4.76 106.734 4.4 106.266 4.4H93.2337C92.7657 4.4 92.4057 4.76 92.4057 5.228V26H88.7337V5.228C88.7337 4.76 89.0937 4.4 89.5617 4.4H91.5777C92.0457 4.4 92.4057 4.04 92.4057 3.572V1.628C92.4057 1.16 92.7657 0.799998 93.2337 0.799998H106.266C106.734 0.799998 107.094 1.16 107.094 1.628V3.572C107.094 4.04 107.454 4.4 107.922 4.4H109.938C110.406 4.4 110.766 4.76 110.766 5.228V10.772C110.766 11.24 110.406 11.6 109.938 11.6H107.922C107.454 11.6 107.094 11.96 107.094 12.428V14.372Z"
    fill="#00A365" />
</svg>
