<svg width="162" height="44" viewBox="0 0 162 44" fill="none" xmlns="http://www.w3.org/2000/svg">
<path d="M19 1.73205C20.8564 0.660254 23.1436 0.660254 25 1.73205L38.0526 9.26795C39.909 10.3397 41.0526 12.3205 41.0526 14.4641V29.5359C41.0526 31.6795 39.909 33.6603 38.0526 34.7321L25 42.2679C23.1436 43.3397 20.8564 43.3397 19 42.2679L5.94744 34.7321C4.09104 33.6603 2.94744 31.6795 2.94744 29.5359V14.4641C2.94744 12.3205 4.09103 10.3397 5.94744 9.26795L19 1.73205Z" fill="#EA3323"/>
<rect x="13.1997" y="29.04" width="3.52" height="3.52" fill="black"/>
<rect x="13.1997" y="25.5198" width="3.52" height="3.52" fill="black"/>
<rect x="16.7197" y="22.0011" width="3.52" height="3.52" fill="black"/>
<rect x="20.2402" y="22.0011" width="3.52" height="3.52" fill="black"/>
<rect x="27.2793" y="29.04" width="3.52" height="3.52" fill="black"/>
<rect x="23.7603" y="25.5198" width="3.52" height="3.52" fill="black"/>
<rect x="13.1997" y="18.4808" width="3.52" height="3.52" fill="black"/>
<rect x="13.1997" y="14.9606" width="3.52" height="3.52" fill="black"/>
<rect x="13.1997" y="11.4403" width="3.52" height="3.52" fill="black"/>
<rect x="20.2402" y="18.4808" width="3.52" height="3.52" fill="black"/>
<rect x="23.7603" y="14.9606" width="3.52" height="3.52" fill="black"/>
<rect x="27.2793" y="11.4403" width="3.52" height="3.52" fill="black"/>
<path fill-rule="evenodd" clip-rule="evenodd" d="M61 11H64.2294V18.9889C64.2294 19.2582 64.4325 19.4613 64.7018 19.4613H69.1581C69.4274 19.4613 69.6306 19.2582 69.6306 18.9889V17.4659C69.6306 17.0019 69.9915 16.6409 70.4555 16.6409H72.035C72.3043 16.6409 72.5074 16.4378 72.5074 16.1685V14.6454C72.5074 14.1814 72.8684 13.8204 73.3324 13.8204H74.9118C75.1811 13.8204 75.3843 13.6173 75.3843 13.348V11.825C75.3843 11.361 75.7452 11 76.2092 11H77.7887C78.2527 11 78.6137 11.361 78.6137 11.825V13.348C78.6137 13.812 78.2527 14.173 77.7887 14.173H76.2375C75.9582 14.173 75.7368 14.3858 75.7368 14.6454V16.1685C75.7368 16.6325 75.3759 16.9934 74.9118 16.9934H73.3606C73.0814 16.9934 72.86 17.2062 72.86 17.4659V18.9889C72.86 19.4529 72.499 19.8139 72.035 19.8139H70.4555C70.1862 19.8139 69.9831 20.017 69.9831 20.2863V21.8094C69.9831 22.0787 70.1862 22.2818 70.4555 22.2818H72.035C72.499 22.2818 72.86 22.6427 72.86 23.1068V24.6298C72.86 24.8895 73.0814 25.1022 73.3606 25.1022H74.9118C75.3759 25.1022 75.7368 25.4632 75.7368 25.9272V27.4502C75.7368 27.7099 75.9582 27.9227 76.2375 27.9227H77.7887C78.2527 27.9227 78.6137 28.2836 78.6137 28.7476V30.2707C78.6137 30.7347 78.2527 31.0957 77.7887 31.0957H76.2092C75.7452 31.0957 75.3843 30.7347 75.3843 30.2707V28.7476C75.3843 28.4783 75.1811 28.2752 74.9118 28.2752H73.3324C72.8684 28.2752 72.5074 27.9143 72.5074 27.4502V25.9272C72.5074 25.6579 72.3043 25.4548 72.035 25.4548H70.4555C69.9915 25.4548 69.6306 25.0938 69.6306 24.6298V23.1068C69.6306 22.8375 69.4274 22.6343 69.1581 22.6343H64.7018C64.4325 22.6343 64.2294 22.8375 64.2294 23.1068V31.0957H61V23.1068C61 22.6427 61.361 22.2818 61.825 22.2818H63.4044C63.6737 22.2818 63.8769 22.0787 63.8769 21.8094V20.2863C63.8769 20.017 63.6737 19.8139 63.4044 19.8139H61.825C61.361 19.8139 61 19.4529 61 18.9889V11ZM82.8088 31.0957V27.9227H87.3251C87.5944 27.9227 87.7975 27.7195 87.7975 27.4502V14.6454C87.7975 14.3761 87.5944 14.173 87.3251 14.173H82.8088V11H87.3251C87.7891 11 88.1501 11.361 88.1501 11.825V13.348C88.1501 13.6173 88.3532 13.8204 88.6225 13.8204H90.2019C90.4712 13.8204 90.6744 13.6173 90.6744 13.348V11.825C90.6744 11.361 91.0353 11 91.4993 11H96.0156V14.173H91.4993C91.23 14.173 91.0269 14.3761 91.0269 14.6454V27.4502C91.0269 27.7195 91.23 27.9227 91.4993 27.9227H96.0156V31.0957H91.4993C91.0353 31.0957 90.6744 30.7347 90.6744 30.2707V28.7476C90.6744 28.4783 90.4712 28.2752 90.2019 28.2752H88.6225C88.3532 28.2752 88.1501 28.4783 88.1501 28.7476V30.2707C88.1501 30.7347 87.7891 31.0957 87.3251 31.0957H82.8088ZM139.633 16.9934H136.404V14.6454C136.404 14.3761 136.201 14.173 135.931 14.173H125.721C125.452 14.173 125.249 14.3761 125.249 14.6454V18.9889C125.249 19.2582 125.452 19.4613 125.721 19.4613H135.931C136.395 19.4613 136.756 19.8223 136.756 20.2863V21.8094C136.756 22.0787 136.96 22.2818 137.229 22.2818H138.808C139.272 22.2818 139.633 22.6427 139.633 23.1068V27.4502C139.633 27.9143 139.272 28.2752 138.808 28.2752H137.229C136.96 28.2752 136.756 28.4783 136.756 28.7476V30.2707C136.756 30.7347 136.395 31.0957 135.931 31.0957H125.721C125.257 31.0957 124.896 30.7347 124.896 30.2707V28.7476C124.896 28.4783 124.693 28.2752 124.424 28.2752H122.845C122.381 28.2752 122.02 27.9143 122.02 27.4502V25.1022H125.249V27.4502C125.249 27.7195 125.452 27.9227 125.721 27.9227H135.931C136.201 27.9227 136.404 27.7195 136.404 27.4502V23.1068C136.404 22.8375 136.201 22.6343 135.931 22.6343H125.721C125.257 22.6343 124.896 22.2734 124.896 21.8094V20.2863C124.896 20.017 124.693 19.8139 124.424 19.8139H122.845C122.381 19.8139 122.02 19.4529 122.02 18.9889V14.6454C122.02 14.1814 122.381 13.8204 122.845 13.8204H124.424C124.693 13.8204 124.896 13.6173 124.896 13.348V11.825C124.896 11.361 125.257 11 125.721 11H135.931C136.395 11 136.756 11.361 136.756 11.825V13.348C136.756 13.6173 136.96 13.8204 137.229 13.8204H138.808C139.272 13.8204 139.633 14.1814 139.633 14.6454V16.9934ZM143.828 11H147.058V18.9889C147.058 19.2582 147.261 19.4613 147.53 19.4613H151.987C152.256 19.4613 152.459 19.2582 152.459 18.9889V17.4659C152.459 17.0019 152.82 16.6409 153.284 16.6409H154.863C155.133 16.6409 155.336 16.4378 155.336 16.1685V14.6454C155.336 14.1814 155.697 13.8204 156.161 13.8204H157.74C158.01 13.8204 158.213 13.6173 158.213 13.348V11.825C158.213 11.361 158.574 11 159.038 11H160.617C161.081 11 161.442 11.361 161.442 11.825V13.348C161.442 13.812 161.081 14.173 160.617 14.173H159.066C158.787 14.173 158.565 14.3858 158.565 14.6454V16.1685C158.565 16.6325 158.204 16.9934 157.74 16.9934H156.189C155.91 16.9934 155.688 17.2062 155.688 17.4659V18.9889C155.688 19.4529 155.327 19.8139 154.863 19.8139H153.284C153.015 19.8139 152.812 20.017 152.812 20.2863V21.8094C152.812 22.0787 153.015 22.2818 153.284 22.2818H154.863C155.327 22.2818 155.688 22.6427 155.688 23.1068V24.6298C155.688 24.8895 155.91 25.1022 156.189 25.1022H157.74C158.204 25.1022 158.565 25.4632 158.565 25.9272V27.4502C158.565 27.7099 158.787 27.9227 159.066 27.9227H160.617C161.081 27.9227 161.442 28.2836 161.442 28.7476V30.2707C161.442 30.7347 161.081 31.0957 160.617 31.0957H159.038C158.574 31.0957 158.213 30.7347 158.213 30.2707V28.7476C158.213 28.4783 158.01 28.2752 157.74 28.2752H156.161C155.697 28.2752 155.336 27.9143 155.336 27.4502V25.9272C155.336 25.6579 155.133 25.4548 154.863 25.4548H153.284C152.82 25.4548 152.459 25.0938 152.459 24.6298V23.1068C152.459 22.8375 152.256 22.6343 151.987 22.6343H147.53C147.261 22.6343 147.058 22.8375 147.058 23.1068V31.0957H143.828V23.1068C143.828 22.6427 144.189 22.2818 144.653 22.2818H146.233C146.502 22.2818 146.705 22.0787 146.705 21.8094V20.2863C146.705 20.017 146.502 19.8139 146.233 19.8139H144.653C144.189 19.8139 143.828 19.4529 143.828 18.9889V11ZM103.913 31.0957C103.449 31.0957 103.088 30.7347 103.088 30.2707V28.7476C103.088 28.4783 102.884 28.2752 102.615 28.2752H101.036C100.572 28.2752 100.211 27.9143 100.211 27.4502V14.6454C100.211 14.1814 100.572 13.8204 101.036 13.8204H102.615C102.884 13.8204 103.088 13.6173 103.088 13.348V11.825C103.088 11.361 103.449 11 103.913 11H114.123C114.587 11 114.948 11.361 114.948 11.825V13.348C114.948 13.6173 115.151 13.8204 115.42 13.8204H116.999C117.463 13.8204 117.824 14.1814 117.824 14.6454V27.4502C117.824 27.9143 117.463 28.2752 116.999 28.2752H115.42C115.151 28.2752 114.948 28.4783 114.948 28.7476V30.2707C114.948 30.7347 114.587 31.0957 114.123 31.0957H103.913ZM103.44 27.4502C103.44 27.7195 103.643 27.9227 103.913 27.9227H114.123C114.392 27.9227 114.595 27.7195 114.595 27.4502V14.6454C114.595 14.3761 114.392 14.173 114.123 14.173H103.913C103.643 14.173 103.44 14.3761 103.44 14.6454V27.4502Z" fill="white"/>
</svg>
