<svg width="161" height="44" viewBox="0 0 161 44" fill="none" xmlns="http://www.w3.org/2000/svg">
  <path
    d="M19 1.73205C20.8564 0.660254 23.1436 0.660254 25 1.73205L38.0526 9.26795C39.909 10.3397 41.0526 12.3205 41.0526 14.4641V29.5359C41.0526 31.6795 39.909 33.6603 38.0526 34.7321L25 42.2679C23.1436 43.3397 20.8564 43.3397 19 42.2679L5.94744 34.7321C4.09104 33.6603 2.94744 31.6795 2.94744 29.5359V14.4641C2.94744 12.3205 4.09103 10.3397 5.94744 9.26795L19 1.73205Z"
    fill="#222325" />
  <rect x="13.1997" y="29.0391" width="3.52" height="3.52" fill="white" />
  <rect x="13.1997" y="25.5195" width="3.52" height="3.52" fill="white" />
  <rect x="16.7197" y="22" width="3.52" height="3.52" fill="white" />
  <rect x="20.2402" y="22" width="3.52" height="3.52" fill="white" />
  <rect x="27.2793" y="29.0391" width="3.52" height="3.52" fill="white" />
  <rect x="23.7603" y="25.5195" width="3.52" height="3.52" fill="white" />
  <rect x="13.1997" y="18.4805" width="3.52" height="3.52" fill="white" />
  <rect x="13.1997" y="14.959" width="3.52" height="3.52" fill="white" />
  <rect x="13.1997" y="11.4395" width="3.52" height="3.52" fill="white" />
  <rect x="20.2402" y="18.4805" width="3.52" height="3.52" fill="white" />
  <rect x="23.7603" y="14.959" width="3.52" height="3.52" fill="white" />
  <rect x="27.2793" y="11.4395" width="3.52" height="3.52" fill="white" />
  <path fill-rule="evenodd" clip-rule="evenodd"
    d="M60 11.9531H63.2294V19.942C63.2294 20.2113 63.4325 20.4145 63.7018 20.4145H68.1581C68.4274 20.4145 68.6306 20.2113 68.6306 19.942V18.419C68.6306 17.955 68.9915 17.594 69.4555 17.594H71.035C71.3043 17.594 71.5074 17.3909 71.5074 17.1216V15.5985C71.5074 15.1345 71.8684 14.7736 72.3324 14.7736H73.9118C74.1811 14.7736 74.3843 14.5704 74.3843 14.3011V12.7781C74.3843 12.3141 74.7452 11.9531 75.2092 11.9531H76.7887C77.2527 11.9531 77.6137 12.3141 77.6137 12.7781V14.3011C77.6137 14.7652 77.2527 15.1261 76.7887 15.1261H75.2375C74.9582 15.1261 74.7368 15.3389 74.7368 15.5985V17.1216C74.7368 17.5856 74.3759 17.9466 73.9118 17.9466H72.3606C72.0814 17.9466 71.86 18.1593 71.86 18.419V19.942C71.86 20.406 71.499 20.767 71.035 20.767H69.4555C69.1862 20.767 68.9831 20.9701 68.9831 21.2394V22.7625C68.9831 23.0318 69.1862 23.2349 69.4555 23.2349H71.035C71.499 23.2349 71.86 23.5959 71.86 24.0599V25.5829C71.86 25.8426 72.0814 26.0553 72.3606 26.0553H73.9118C74.3759 26.0553 74.7368 26.4163 74.7368 26.8803V28.4034C74.7368 28.663 74.9582 28.8758 75.2375 28.8758H76.7887C77.2527 28.8758 77.6137 29.2368 77.6137 29.7008V31.2238C77.6137 31.6878 77.2527 32.0488 76.7887 32.0488H75.2092C74.7452 32.0488 74.3843 31.6878 74.3843 31.2238V29.7008C74.3843 29.4315 74.1811 29.2283 73.9118 29.2283H72.3324C71.8684 29.2283 71.5074 28.8674 71.5074 28.4034V26.8803C71.5074 26.611 71.3043 26.4079 71.035 26.4079H69.4555C68.9915 26.4079 68.6306 26.0469 68.6306 25.5829V24.0599C68.6306 23.7906 68.4274 23.5875 68.1581 23.5875H63.7018C63.4325 23.5875 63.2294 23.7906 63.2294 24.0599V32.0488H60V24.0599C60 23.5959 60.361 23.2349 60.825 23.2349H62.4044C62.6737 23.2349 62.8769 23.0318 62.8769 22.7625V21.2394C62.8769 20.9701 62.6737 20.767 62.4044 20.767H60.825C60.361 20.767 60 20.406 60 19.942V11.9531ZM81.8088 32.0488V28.8758H86.3251C86.5944 28.8758 86.7975 28.6727 86.7975 28.4034V15.5985C86.7975 15.3292 86.5944 15.1261 86.3251 15.1261H81.8088V11.9531H86.3251C86.7891 11.9531 87.1501 12.3141 87.1501 12.7781V14.3011C87.1501 14.5704 87.3532 14.7736 87.6225 14.7736H89.2019C89.4712 14.7736 89.6744 14.5704 89.6744 14.3011V12.7781C89.6744 12.3141 90.0353 11.9531 90.4993 11.9531H95.0156V15.1261H90.4993C90.23 15.1261 90.0269 15.3292 90.0269 15.5985V28.4034C90.0269 28.6727 90.23 28.8758 90.4993 28.8758H95.0156V32.0488H90.4993C90.0353 32.0488 89.6744 31.6878 89.6744 31.2238V29.7008C89.6744 29.4315 89.4712 29.2283 89.2019 29.2283H87.6225C87.3532 29.2283 87.1501 29.4315 87.1501 29.7008V31.2238C87.1501 31.6878 86.7891 32.0488 86.3251 32.0488H81.8088ZM138.633 17.9466H135.404V15.5985C135.404 15.3292 135.201 15.1261 134.931 15.1261H124.721C124.452 15.1261 124.249 15.3292 124.249 15.5985V19.942C124.249 20.2113 124.452 20.4145 124.721 20.4145H134.931C135.395 20.4145 135.756 20.7754 135.756 21.2394V22.7625C135.756 23.0318 135.96 23.2349 136.229 23.2349H137.808C138.272 23.2349 138.633 23.5959 138.633 24.0599V28.4034C138.633 28.8674 138.272 29.2283 137.808 29.2283H136.229C135.96 29.2283 135.756 29.4315 135.756 29.7008V31.2238C135.756 31.6878 135.395 32.0488 134.931 32.0488H124.721C124.257 32.0488 123.896 31.6878 123.896 31.2238V29.7008C123.896 29.4315 123.693 29.2283 123.424 29.2283H121.845C121.381 29.2283 121.02 28.8674 121.02 28.4034V26.0553H124.249V28.4034C124.249 28.6727 124.452 28.8758 124.721 28.8758H134.931C135.201 28.8758 135.404 28.6727 135.404 28.4034V24.0599C135.404 23.7906 135.201 23.5875 134.931 23.5875H124.721C124.257 23.5875 123.896 23.2265 123.896 22.7625V21.2394C123.896 20.9701 123.693 20.767 123.424 20.767H121.845C121.381 20.767 121.02 20.406 121.02 19.942V15.5985C121.02 15.1345 121.381 14.7736 121.845 14.7736H123.424C123.693 14.7736 123.896 14.5704 123.896 14.3011V12.7781C123.896 12.3141 124.257 11.9531 124.721 11.9531H134.931C135.395 11.9531 135.756 12.3141 135.756 12.7781V14.3011C135.756 14.5704 135.96 14.7736 136.229 14.7736H137.808C138.272 14.7736 138.633 15.1345 138.633 15.5985V17.9466ZM142.828 11.9531H146.058V19.942C146.058 20.2113 146.261 20.4145 146.53 20.4145H150.987C151.256 20.4145 151.459 20.2113 151.459 19.942V18.419C151.459 17.955 151.82 17.594 152.284 17.594H153.863C154.133 17.594 154.336 17.3909 154.336 17.1216V15.5985C154.336 15.1345 154.697 14.7736 155.161 14.7736H156.74C157.01 14.7736 157.213 14.5704 157.213 14.3011V12.7781C157.213 12.3141 157.574 11.9531 158.038 11.9531H159.617C160.081 11.9531 160.442 12.3141 160.442 12.7781V14.3011C160.442 14.7652 160.081 15.1261 159.617 15.1261H158.066C157.787 15.1261 157.565 15.3389 157.565 15.5985V17.1216C157.565 17.5856 157.204 17.9466 156.74 17.9466H155.189C154.91 17.9466 154.688 18.1593 154.688 18.419V19.942C154.688 20.406 154.327 20.767 153.863 20.767H152.284C152.015 20.767 151.812 20.9701 151.812 21.2394V22.7625C151.812 23.0318 152.015 23.2349 152.284 23.2349H153.863C154.327 23.2349 154.688 23.5959 154.688 24.0599V25.5829C154.688 25.8426 154.91 26.0553 155.189 26.0553H156.74C157.204 26.0553 157.565 26.4163 157.565 26.8803V28.4034C157.565 28.663 157.787 28.8758 158.066 28.8758H159.617C160.081 28.8758 160.442 29.2368 160.442 29.7008V31.2238C160.442 31.6878 160.081 32.0488 159.617 32.0488H158.038C157.574 32.0488 157.213 31.6878 157.213 31.2238V29.7008C157.213 29.4315 157.01 29.2283 156.74 29.2283H155.161C154.697 29.2283 154.336 28.8674 154.336 28.4034V26.8803C154.336 26.611 154.133 26.4079 153.863 26.4079H152.284C151.82 26.4079 151.459 26.0469 151.459 25.5829V24.0599C151.459 23.7906 151.256 23.5875 150.987 23.5875H146.53C146.261 23.5875 146.058 23.7906 146.058 24.0599V32.0488H142.828V24.0599C142.828 23.5959 143.189 23.2349 143.653 23.2349H145.233C145.502 23.2349 145.705 23.0318 145.705 22.7625V21.2394C145.705 20.9701 145.502 20.767 145.233 20.767H143.653C143.189 20.767 142.828 20.406 142.828 19.942V11.9531ZM102.913 32.0488C102.449 32.0488 102.088 31.6878 102.088 31.2238V29.7008C102.088 29.4315 101.884 29.2283 101.615 29.2283H100.036C99.5717 29.2283 99.2107 28.8674 99.2107 28.4034V15.5985C99.2107 15.1345 99.5717 14.7736 100.036 14.7736H101.615C101.884 14.7736 102.088 14.5704 102.088 14.3011V12.7781C102.088 12.3141 102.449 11.9531 102.913 11.9531H113.123C113.587 11.9531 113.948 12.3141 113.948 12.7781V14.3011C113.948 14.5704 114.151 14.7736 114.42 14.7736H115.999C116.463 14.7736 116.824 15.1345 116.824 15.5985V28.4034C116.824 28.8674 116.463 29.2283 115.999 29.2283H114.42C114.151 29.2283 113.948 29.4315 113.948 29.7008V31.2238C113.948 31.6878 113.587 32.0488 113.123 32.0488H102.913ZM102.44 28.4034C102.44 28.6727 102.643 28.8758 102.913 28.8758H113.123C113.392 28.8758 113.595 28.6727 113.595 28.4034V15.5985C113.595 15.3292 113.392 15.1261 113.123 15.1261H102.913C102.643 15.1261 102.44 15.3292 102.44 15.5985V28.4034Z"
    fill="black" />
</svg>
