<svg width="50" height="11" viewBox="0 0 50 11" fill="none" xmlns="http://www.w3.org/2000/svg">
  <path fill-rule="evenodd" clip-rule="evenodd"
    d="M0 0.498047H1.6076V4.47492C1.6076 4.60898 1.70871 4.71009 1.84277 4.71009H4.06111C4.19517 4.71009 4.29629 4.60898 4.29629 4.47492V3.71675C4.29629 3.48577 4.47598 3.30608 4.70696 3.30608H5.49321C5.62727 3.30608 5.72838 3.20496 5.72838 3.07091V2.31274C5.72838 2.08175 5.90807 1.90206 6.13906 1.90206H6.92531C7.05936 1.90206 7.16048 1.80095 7.16048 1.66689V0.908721C7.16048 0.677736 7.34017 0.498047 7.57115 0.498047H8.3574C8.58839 0.498047 8.76807 0.677736 8.76807 0.908721V1.66689C8.76807 1.89787 8.58839 2.07756 8.3574 2.07756H7.58519C7.4462 2.07756 7.33598 2.18347 7.33598 2.31274V3.07091C7.33598 3.30189 7.15629 3.48158 6.92531 3.48158H6.1531C6.0141 3.48158 5.90388 3.58749 5.90388 3.71675V4.47492C5.90388 4.7059 5.7242 4.88559 5.49321 4.88559H4.70696C4.5729 4.88559 4.47179 4.98671 4.47179 5.12077V5.87894C4.47179 6.01299 4.5729 6.11411 4.70696 6.11411H5.49321C5.7242 6.11411 5.90388 6.2938 5.90388 6.52478V7.28295C5.90388 7.41222 6.0141 7.51812 6.1531 7.51812H6.92531C7.15629 7.51812 7.33598 7.69781 7.33598 7.9288V8.68696C7.33598 8.81623 7.4462 8.92214 7.58519 8.92214H8.3574C8.58839 8.92214 8.76807 9.10183 8.76807 9.33281V10.091C8.76807 10.322 8.58839 10.5017 8.3574 10.5017H7.57115C7.34017 10.5017 7.16048 10.322 7.16048 10.091V9.33281C7.16048 9.19875 7.05936 9.09764 6.92531 9.09764H6.13906C5.90807 9.09764 5.72838 8.91795 5.72838 8.68696V7.9288C5.72838 7.79474 5.62727 7.69362 5.49321 7.69362H4.70696C4.47598 7.69362 4.29629 7.51393 4.29629 7.28295V6.52478C4.29629 6.39072 4.19517 6.28961 4.06111 6.28961H1.84277C1.70871 6.28961 1.6076 6.39072 1.6076 6.52478V10.5017H0V6.52478C0 6.2938 0.179689 6.11411 0.410674 6.11411H1.19692C1.33098 6.11411 1.4321 6.01299 1.4321 5.87894V5.12077C1.4321 4.98671 1.33098 4.88559 1.19692 4.88559H0.410674C0.179689 4.88559 0 4.70591 0 4.47492V0.498047ZM10.8564 10.5017V8.92214H13.1046C13.2387 8.92214 13.3398 8.82102 13.3398 8.68696V2.31274C13.3398 2.17868 13.2387 2.07756 13.1046 2.07756H10.8564V0.498047H13.1046C13.3356 0.498047 13.5153 0.677735 13.5153 0.908721V1.66689C13.5153 1.80095 13.6164 1.90206 13.7505 1.90206H14.5367C14.6708 1.90206 14.7719 1.80095 14.7719 1.66689V0.908721C14.7719 0.677735 14.9516 0.498047 15.1825 0.498047H17.4307V2.07756H15.1825C15.0485 2.07756 14.9474 2.17868 14.9474 2.31274V8.68696C14.9474 8.82102 15.0485 8.92214 15.1825 8.92214H17.4307V10.5017H15.1825C14.9516 10.5017 14.7719 10.322 14.7719 10.091V9.33281C14.7719 9.19875 14.6708 9.09764 14.5367 9.09764H13.7505C13.6164 9.09764 13.5153 9.19875 13.5153 9.33281V10.091C13.5153 10.322 13.3356 10.5017 13.1046 10.5017H10.8564ZM39.1436 3.48158H37.536V2.31274C37.536 2.17868 37.4349 2.07756 37.3008 2.07756H32.2183C32.0842 2.07756 31.9831 2.17868 31.9831 2.31274V4.47492C31.9831 4.60898 32.0842 4.71009 32.2183 4.71009H37.3008C37.5318 4.71009 37.7115 4.88978 37.7115 5.12077V5.87894C37.7115 6.01299 37.8126 6.11411 37.9467 6.11411H38.7329C38.9639 6.11411 39.1436 6.2938 39.1436 6.52478V8.68696C39.1436 8.91795 38.9639 9.09764 38.7329 9.09764H37.9467C37.8126 9.09764 37.7115 9.19875 37.7115 9.33281V10.091C37.7115 10.322 37.5318 10.5017 37.3008 10.5017H32.2183C31.9873 10.5017 31.8076 10.322 31.8076 10.091V9.33281C31.8076 9.19875 31.7065 9.09764 31.5724 9.09764H30.7862C30.5552 9.09764 30.3755 8.91795 30.3755 8.68696V7.51812H31.9831V8.68696C31.9831 8.82102 32.0842 8.92214 32.2183 8.92214H37.3008C37.4349 8.92214 37.536 8.82102 37.536 8.68696V6.52478C37.536 6.39072 37.4349 6.28961 37.3008 6.28961H32.2183C31.9873 6.28961 31.8076 6.10992 31.8076 5.87894V5.12077C31.8076 4.98671 31.7065 4.88559 31.5724 4.88559H30.7862C30.5552 4.88559 30.3755 4.7059 30.3755 4.47492V2.31274C30.3755 2.08175 30.5552 1.90206 30.7862 1.90206H31.5724C31.7065 1.90206 31.8076 1.80095 31.8076 1.66689V0.908721C31.8076 0.677736 31.9873 0.498047 32.2183 0.498047H37.3008C37.5318 0.498047 37.7115 0.677736 37.7115 0.908721V1.66689C37.7115 1.80095 37.8126 1.90206 37.9467 1.90206H38.7329C38.9639 1.90206 39.1436 2.08175 39.1436 2.31274V3.48158ZM41.2319 0.498047H42.8395V4.47492C42.8395 4.60898 42.9406 4.71009 43.0747 4.71009H45.293C45.4271 4.71009 45.5282 4.60898 45.5282 4.47492V3.71675C45.5282 3.48577 45.7079 3.30608 45.9389 3.30608H46.7251C46.8592 3.30608 46.9603 3.20496 46.9603 3.07091V2.31274C46.9603 2.08175 47.14 1.90206 47.371 1.90206H48.1572C48.2913 1.90206 48.3924 1.80095 48.3924 1.66689V0.908721C48.3924 0.677736 48.5721 0.498047 48.8031 0.498047H49.5893C49.8203 0.498047 50 0.677736 50 0.908721V1.66689C50 1.89787 49.8203 2.07756 49.5893 2.07756H48.8171C48.6781 2.07756 48.5679 2.18347 48.5679 2.31274V3.07091C48.5679 3.30189 48.3882 3.48158 48.1572 3.48158H47.385C47.246 3.48158 47.1358 3.58749 47.1358 3.71675V4.47492C47.1358 4.7059 46.9561 4.88559 46.7251 4.88559H45.9389C45.8048 4.88559 45.7037 4.98671 45.7037 5.12077V5.87894C45.7037 6.01299 45.8048 6.11411 45.9389 6.11411H46.7251C46.9561 6.11411 47.1358 6.2938 47.1358 6.52478V7.28295C47.1358 7.41221 47.246 7.51812 47.385 7.51812H48.1572C48.3882 7.51812 48.5679 7.69781 48.5679 7.9288V8.68696C48.5679 8.81623 48.6781 8.92214 48.8171 8.92214H49.5893C49.8203 8.92214 50 9.10183 50 9.33281V10.091C50 10.322 49.8203 10.5017 49.5893 10.5017H48.8031C48.5721 10.5017 48.3924 10.322 48.3924 10.091V9.33281C48.3924 9.19875 48.2913 9.09764 48.1572 9.09764H47.371C47.14 9.09764 46.9603 8.91795 46.9603 8.68696V7.9288C46.9603 7.79474 46.8592 7.69362 46.7251 7.69362H45.9389C45.7079 7.69362 45.5282 7.51393 45.5282 7.28295V6.52478C45.5282 6.39072 45.4271 6.28961 45.293 6.28961H43.0747C42.9406 6.28961 42.8395 6.39072 42.8395 6.52478V10.5017H41.2319V6.52478C41.2319 6.2938 41.4116 6.11411 41.6426 6.11411H42.4288C42.5629 6.11411 42.664 6.01299 42.664 5.87894V5.12077C42.664 4.98671 42.5629 4.88559 42.4288 4.88559H41.6426C41.4116 4.88559 41.2319 4.7059 41.2319 4.47492V0.498047ZM21.3618 10.5017C21.1309 10.5017 20.9512 10.322 20.9512 10.091V9.33281C20.9512 9.19875 20.8501 9.09764 20.716 9.09764H19.9297C19.6988 9.09764 19.5191 8.91795 19.5191 8.68696V2.31274C19.5191 2.08175 19.6988 1.90206 19.9297 1.90206H20.716C20.8501 1.90206 20.9512 1.80095 20.9512 1.66689V0.908721C20.9512 0.677736 21.1309 0.498047 21.3618 0.498047H26.4444C26.6754 0.498047 26.8551 0.677736 26.8551 0.908721V1.66689C26.8551 1.80095 26.9562 1.90206 27.0902 1.90206H27.8765C28.1075 1.90206 28.2871 2.08175 28.2871 2.31274V8.68696C28.2871 8.91795 28.1075 9.09764 27.8765 9.09764H27.0902C26.9562 9.09764 26.8551 9.19875 26.8551 9.33281V10.091C26.8551 10.322 26.6754 10.5017 26.4444 10.5017H21.3618ZM21.1267 8.68696C21.1267 8.82102 21.2278 8.92214 21.3618 8.92214H26.4444C26.5784 8.92214 26.6796 8.82102 26.6796 8.68696V2.31274C26.6796 2.17868 26.5784 2.07756 26.4444 2.07756H21.3618C21.2278 2.07756 21.1267 2.17868 21.1267 2.31274V8.68696Z"
    fill="#ED3733" />
</svg>
