<svg width="24" height="24" viewBox="0 0 24 24" fill="none" xmlns="http://www.w3.org/2000/svg">
<circle cx="12" cy="12" r="12" fill="white"/>
<g clip-path="url(#clip0_190_4309)">
<path d="M15.7399 9.542C15.4772 9.3919 15.1395 9.3919 14.8393 9.542L12.7378 10.7804L11.3118 11.5684L9.2478 12.8068C8.98511 12.9569 8.64737 12.9569 8.34716 12.8068L6.73351 11.8311C6.47082 11.681 6.28319 11.3808 6.28319 11.0431V9.16674C6.28319 8.86652 6.4333 8.56631 6.73351 8.37868L8.34716 7.44051C8.60984 7.2904 8.94758 7.2904 9.2478 7.44051L10.8614 8.4162C11.1241 8.56631 11.3118 8.86652 11.3118 9.20426V10.4426L12.7378 9.61706V8.34115C12.7378 8.04094 12.5877 7.74072 12.2875 7.55309L9.28532 5.78934C9.02264 5.63923 8.6849 5.63923 8.38468 5.78934L5.3075 7.59062C5.00728 7.74072 4.85718 8.04094 4.85718 8.34115V11.8687C4.85718 12.1689 5.00728 12.4691 5.3075 12.6567L8.34716 14.4205C8.60984 14.5706 8.94758 14.5706 9.2478 14.4205L11.3118 13.2196L12.7378 12.394L14.8017 11.1932C15.0644 11.0431 15.4022 11.0431 15.7024 11.1932L17.316 12.1313C17.5787 12.2814 17.7663 12.5817 17.7663 12.9194V14.7957C17.7663 15.0959 17.6162 15.3962 17.316 15.5838L15.7399 16.522C15.4772 16.6721 15.1395 16.6721 14.8393 16.522L13.2256 15.5838C12.9629 15.4337 12.7753 15.1335 12.7753 14.7957V13.5949L11.3493 14.4205V15.6588C11.3493 15.9591 11.4994 16.2593 11.7996 16.4469L14.8393 18.2107C15.102 18.3608 15.4397 18.3608 15.7399 18.2107L18.7796 16.4469C19.0423 16.2968 19.2299 15.9966 19.2299 15.6588V12.0938C19.2299 11.7936 19.0798 11.4934 18.7796 11.3058L15.7399 9.542Z" fill="#8247E5"/>
</g>
<defs>
<clipPath id="clip0_190_4309">
<rect width="14.4102" height="12.5714" fill="white" transform="translate(4.85718 5.71436)"/>
</clipPath>
</defs>
</svg>
