<svg width="24" height="24" viewBox="0 0 24 24" fill="none" xmlns="http://www.w3.org/2000/svg">
<circle cx="12" cy="12" r="12" fill="#F6F6F6"/>
<path fill-rule="evenodd" clip-rule="evenodd" d="M7.66759 15.9308C8.55771 17.2376 10.1521 18.0176 11.9323 18.0176C13.7125 18.0176 15.3066 17.2376 16.197 15.9308C17.0872 14.6243 17.0872 13.0642 16.197 11.7574L12.4461 6.25141C12.2178 5.9162 11.6469 5.9162 11.4185 6.25141L7.66759 11.7574C6.77747 13.0639 6.77747 14.624 7.66759 15.9308ZM10.8757 8.87086L11.6754 7.69689C11.7896 7.52928 12.075 7.52928 12.1892 7.69689L15.2658 12.2133C15.8311 13.043 15.9372 14.0033 15.5841 14.882C15.5474 14.7386 15.496 14.5919 15.4267 14.4438C15.0018 13.5348 14.0408 12.8334 12.5702 12.3589C11.559 12.0339 10.9136 11.5558 10.6514 10.9379C10.3136 10.1415 10.6664 9.27305 10.8757 8.87086ZM9.512 10.8727L8.59878 12.2133C7.90294 13.2347 7.90294 14.454 8.59878 15.4755C9.29463 16.4969 10.5406 17.1065 11.9323 17.1065C12.8566 17.1065 13.7169 16.8374 14.3943 16.3573C14.4827 16.1688 14.7563 15.4788 14.4183 14.7676C14.1061 14.1109 13.3548 13.5866 12.1852 13.209C10.8631 12.784 10.0042 12.1204 9.63275 11.2373C9.58159 11.1158 9.54184 10.9939 9.512 10.8727Z" fill="black"/>
</svg>
