<?xml version="1.0" encoding="utf-8"?>
<!-- Generator: Adobe Illustrator 25.0.1, SVG Export Plug-In . SVG Version: 6.00 Build 0)  -->
<svg version="1.1" id="Layer_1" xmlns="http://www.w3.org/2000/svg" xmlns:xlink="http://www.w3.org/1999/xlink" x="0px" y="0px"
	 viewBox="0 0 29.1 10" style="enable-background:new 0 0 29.1 10;" xml:space="preserve">
<style type="text/css">
	.st0{fill:#F29500;}
</style>
<rect x="14.1" y="45" class="st0" width="21.4" height="21.4"/>
<g>
	<g>
		<path class="st0" d="M0.6,2.4H0V1.2h0.6V2.4z M0.6,4.2H0V3.6h0.6V4.2z M2.4,1.2H0.6V0.6h1.8V1.2z M2.4,3H0.6V2.4h1.8V3z M2.4,4.8
			H0.6V4.2h1.8V4.8z M3.1,1.8H2.4V1.2h0.6V1.8z M3.1,4.2H2.4V3h0.6V4.2z"/>
		<path class="st0" d="M4.3,4.2H3.7V2.4h0.6V4.2z M6.7,2.4H4.3V1.8h2.4V2.4z M6.7,4.8H4.3V4.2h2.4V4.8z"/>
		<path class="st0" d="M7.9,3.6v1.2H7.3V1.8h0.6V3h0.6v0.6H7.9z M9.2,3H8.6V2.4h0.6V3z M10.4,2.4H9.2V1.8h1.2V2.4z"/>
		<path class="st0" d="M11.6,4.2H11V2.4h0.6V4.2z M13.4,2.4h-1.8V1.8h1.8V2.4z M13.4,4.8h-1.8V4.2h1.8V4.8z M14.1,4.2h-0.6V2.4h0.6
			V4.2z"/>
		<path class="st0" d="M14.7,4.8V1.8h0.6v2.4h2.4v0.6H14.7z"/>
		<path class="st0" d="M18.3,4.8V1.8h0.6v2.4h2.4v0.6H18.3z"/>
		<path class="st0" d="M22.6,3.6v0.6H22V2.4h0.6V3h1.8V2.4h0.6v1.2H22.6z M24.4,2.4h-1.8V1.8h1.8V2.4z M25.1,4.8h-2.4V4.2h2.4V4.8z"
			/>
		<path class="st0" d="M26.3,3.6v1.2h-0.6V1.8h0.6V3h0.6v0.6H26.3z M27.5,3h-0.6V2.4h0.6V3z M28.7,2.4h-1.2V1.8h1.2V2.4z"/>
		<path class="st0" d="M2.4,5.2v0.6H0.6V7h1.8v0.6H0.6v1.8H0V5.2H2.4z M3.1,7H2.4V5.8h0.6V7z"/>
		<path class="st0" d="M4.3,8.8H3.7V7h0.6V8.8z M5.5,7H4.3V6.4h1.2V7z M5.5,9.4H4.3V8.8h1.2V9.4z M6.1,7.6H5.5V7h0.6V6.4h0.6v3.1
			H6.1V8.8H5.5V8.2h0.6V7.6z"/>
		<path class="st0" d="M7.9,7.6H7.3V7h0.6V7.6z M9.8,9.4H7.3V8.8h2.4V9.4z M10.4,7H7.9V6.4h2.4V7z M9.8,8.2H7.9V7.6h1.8V8.2z
			 M10.4,8.8H9.8V8.2h0.6V8.8z"/>
		<path class="st0" d="M11.6,7.6H11V7h0.6V7.6z M13.4,9.4H11V8.8h2.4V9.4z M14.1,7h-2.4V6.4h2.4V7z M13.4,8.2h-1.8V7.6h1.8V8.2z
			 M14.1,8.8h-0.6V8.2h0.6V8.8z"/>
	</g>
</g>
</svg>
