<svg width="101" height="22" viewBox="0 0 101 22" fill="none" xmlns="http://www.w3.org/2000/svg">
  <path fill-rule="evenodd" clip-rule="evenodd"
    d="M0 0.953125H3.22941V8.94203C3.22941 9.21134 3.43253 9.41446 3.70183 9.41446H8.15814C8.42744 9.41446 8.63056 9.21134 8.63056 8.94203V7.41899C8.63056 6.95498 8.99153 6.59402 9.45554 6.59402H11.035C11.3043 6.59402 11.5074 6.39089 11.5074 6.12159V4.59855C11.5074 4.13453 11.8684 3.77357 12.3324 3.77357H13.9118C14.1811 3.77357 14.3843 3.57045 14.3843 3.30114V1.77811C14.3843 1.31409 14.7452 0.953125 15.2092 0.953125H16.7887C17.2527 0.953125 17.6137 1.31409 17.6137 1.77811V3.30114C17.6137 3.76516 17.2527 4.12613 16.7887 4.12613H15.2375C14.9582 4.12613 14.7368 4.33888 14.7368 4.59855V6.12159C14.7368 6.5856 14.3759 6.94657 13.9118 6.94657H12.3606C12.0814 6.94657 11.86 7.15932 11.86 7.41899V8.94203C11.86 9.40605 11.499 9.76701 11.035 9.76701H9.45554C9.18624 9.76701 8.98312 9.97014 8.98312 10.2394V11.7625C8.98312 12.0318 9.18624 12.2349 9.45554 12.2349H11.035C11.499 12.2349 11.86 12.5959 11.86 13.0599V14.5829C11.86 14.8426 12.0814 15.0553 12.3606 15.0553H13.9118C14.3759 15.0553 14.7368 15.4163 14.7368 15.8803V17.4034C14.7368 17.663 14.9582 17.8758 15.2375 17.8758H16.7887C17.2527 17.8758 17.6137 18.2368 17.6137 18.7008V20.2238C17.6137 20.6878 17.2527 21.0488 16.7887 21.0488H15.2092C14.7452 21.0488 14.3843 20.6878 14.3843 20.2238V18.7008C14.3843 18.4315 14.1811 18.2283 13.9118 18.2283H12.3324C11.8684 18.2283 11.5074 17.8674 11.5074 17.4034V15.8803C11.5074 15.611 11.3043 15.4079 11.035 15.4079H9.45554C8.99153 15.4079 8.63056 15.0469 8.63056 14.5829V13.0599C8.63056 12.7906 8.42744 12.5875 8.15814 12.5875H3.70183C3.43253 12.5875 3.22941 12.7906 3.22941 13.0599V21.0488H0V13.0599C0 12.5959 0.360967 12.2349 0.82498 12.2349H2.40443C2.67373 12.2349 2.87685 12.0318 2.87685 11.7625V10.2394C2.87685 9.97014 2.67373 9.76701 2.40443 9.76701H0.82498C0.360967 9.76701 0 9.40605 0 8.94203V0.953125ZM21.8088 21.0488V17.8758H26.3251C26.5944 17.8758 26.7975 17.6727 26.7975 17.4034V4.59855C26.7975 4.32925 26.5944 4.12613 26.3251 4.12613H21.8088V0.953125H26.3251C26.7891 0.953125 27.1501 1.31409 27.1501 1.77811V3.30114C27.1501 3.57045 27.3532 3.77357 27.6225 3.77357H29.2019C29.4712 3.77357 29.6744 3.57045 29.6744 3.30114V1.77811C29.6744 1.31409 30.0353 0.953125 30.4993 0.953125H35.0156V4.12613H30.4993C30.23 4.12613 30.0269 4.32925 30.0269 4.59855V17.4034C30.0269 17.6727 30.23 17.8758 30.4993 17.8758H35.0156V21.0488H30.4993C30.0353 21.0488 29.6744 20.6878 29.6744 20.2238V18.7008C29.6744 18.4315 29.4712 18.2283 29.2019 18.2283H27.6225C27.3532 18.2283 27.1501 18.4315 27.1501 18.7008V20.2238C27.1501 20.6878 26.7891 21.0488 26.3251 21.0488H21.8088ZM78.6333 6.94657H75.4038V4.59855C75.4038 4.32925 75.2007 4.12613 74.9314 4.12613H64.7214C64.4521 4.12613 64.249 4.32925 64.249 4.59855V8.94203C64.249 9.21134 64.4521 9.41446 64.7214 9.41446H74.9314C75.3954 9.41446 75.7564 9.77543 75.7564 10.2394V11.7625C75.7564 12.0318 75.9595 12.2349 76.2288 12.2349H77.8083C78.2723 12.2349 78.6333 12.5959 78.6333 13.0599V17.4034C78.6333 17.8674 78.2723 18.2283 77.8083 18.2283H76.2288C75.9595 18.2283 75.7564 18.4315 75.7564 18.7008V20.2238C75.7564 20.6878 75.3954 21.0488 74.9314 21.0488H64.7214C64.2574 21.0488 63.8964 20.6878 63.8964 20.2238V18.7008C63.8964 18.4315 63.6933 18.2283 63.424 18.2283H61.8446C61.3805 18.2283 61.0196 17.8674 61.0196 17.4034V15.0553H64.249V17.4034C64.249 17.6727 64.4521 17.8758 64.7214 17.8758H74.9314C75.2007 17.8758 75.4038 17.6727 75.4038 17.4034V13.0599C75.4038 12.7906 75.2007 12.5875 74.9314 12.5875H64.7214C64.2574 12.5875 63.8964 12.2265 63.8964 11.7625V10.2394C63.8964 9.97014 63.6933 9.76701 63.424 9.76701H61.8446C61.3805 9.76701 61.0196 9.40605 61.0196 8.94203V4.59855C61.0196 4.13454 61.3805 3.77357 61.8446 3.77357H63.424C63.6933 3.77357 63.8964 3.57045 63.8964 3.30114V1.77811C63.8964 1.31409 64.2574 0.953125 64.7214 0.953125H74.9314C75.3954 0.953125 75.7564 1.31409 75.7564 1.77811V3.30114C75.7564 3.57045 75.9595 3.77357 76.2288 3.77357H77.8083C78.2723 3.77357 78.6333 4.13453 78.6333 4.59855V6.94657ZM82.8284 0.953125H86.0578V8.94203C86.0578 9.21134 86.2609 9.41446 86.5303 9.41446H90.9866C91.2559 9.41446 91.459 9.21134 91.459 8.94203V7.41899C91.459 6.95498 91.8199 6.59402 92.284 6.59402H93.8634C94.1327 6.59402 94.3358 6.39089 94.3358 6.12159V4.59855C94.3358 4.13454 94.6968 3.77357 95.1608 3.77357H96.7403C97.0096 3.77357 97.2127 3.57045 97.2127 3.30114V1.77811C97.2127 1.31409 97.5737 0.953125 98.0377 0.953125H99.6171C100.081 0.953125 100.442 1.31409 100.442 1.77811V3.30114C100.442 3.76516 100.081 4.12613 99.6171 4.12613H98.0659C97.7867 4.12613 97.5652 4.33888 97.5652 4.59855V6.12159C97.5652 6.5856 97.2043 6.94657 96.7403 6.94657H95.189C94.9098 6.94657 94.6884 7.15932 94.6884 7.41899V8.94203C94.6884 9.40605 94.3274 9.76701 93.8634 9.76701H92.284C92.0147 9.76701 91.8115 9.97014 91.8115 10.2394V11.7625C91.8115 12.0318 92.0147 12.2349 92.284 12.2349H93.8634C94.3274 12.2349 94.6884 12.5959 94.6884 13.0599V14.5829C94.6884 14.8426 94.9098 15.0553 95.189 15.0553H96.7403C97.2043 15.0553 97.5652 15.4163 97.5652 15.8803V17.4034C97.5652 17.663 97.7867 17.8758 98.0659 17.8758H99.6171C100.081 17.8758 100.442 18.2368 100.442 18.7008V20.2238C100.442 20.6878 100.081 21.0488 99.6171 21.0488H98.0377C97.5737 21.0488 97.2127 20.6878 97.2127 20.2238V18.7008C97.2127 18.4315 97.0096 18.2283 96.7403 18.2283H95.1608C94.6968 18.2283 94.3358 17.8674 94.3358 17.4034V15.8803C94.3358 15.611 94.1327 15.4079 93.8634 15.4079H92.284C91.8199 15.4079 91.459 15.0469 91.459 14.5829V13.0599C91.459 12.7906 91.2559 12.5875 90.9866 12.5875H86.5303C86.2609 12.5875 86.0578 12.7906 86.0578 13.0599V21.0488H82.8284V13.0599C82.8284 12.5959 83.1894 12.2349 83.6534 12.2349H85.2328C85.5021 12.2349 85.7053 12.0318 85.7053 11.7625V10.2394C85.7053 9.97014 85.5021 9.76701 85.2328 9.76701H83.6534C83.1894 9.76701 82.8284 9.40605 82.8284 8.94203V0.953125ZM42.9126 21.0488C42.4486 21.0488 42.0876 20.6878 42.0876 20.2238V18.7008C42.0876 18.4315 41.8845 18.2283 41.6152 18.2283H40.0357C39.5717 18.2283 39.2107 17.8674 39.2107 17.4034V4.59855C39.2107 4.13454 39.5717 3.77357 40.0357 3.77357H41.6152C41.8845 3.77357 42.0876 3.57045 42.0876 3.30114V1.77811C42.0876 1.31409 42.4486 0.953125 42.9126 0.953125H53.1226C53.5866 0.953125 53.9476 1.31409 53.9476 1.77811V3.30114C53.9476 3.57045 54.1507 3.77357 54.42 3.77357H55.9994C56.4634 3.77357 56.8244 4.13453 56.8244 4.59855V17.4034C56.8244 17.8674 56.4634 18.2283 55.9994 18.2283H54.42C54.1507 18.2283 53.9476 18.4315 53.9476 18.7008V20.2238C53.9476 20.6878 53.5866 21.0488 53.1226 21.0488H42.9126ZM42.4401 17.4034C42.4401 17.6727 42.6433 17.8758 42.9126 17.8758H53.1226C53.3919 17.8758 53.595 17.6727 53.595 17.4034V4.59855C53.595 4.32925 53.3919 4.12613 53.1226 4.12613H42.9126C42.6433 4.12613 42.4401 4.32925 42.4401 4.59855V17.4034Z"
    fill="currentColor" />
</svg>
