<svg width="44" height="44" viewBox="0 0 44 44" fill="none" xmlns="http://www.w3.org/2000/svg">
  <path
    d="M19 1.73205C20.8564 0.660254 23.1436 0.660254 25 1.73205L38.0526 9.26795C39.909 10.3397 41.0526 12.3205 41.0526 14.4641V29.5359C41.0526 31.6795 39.909 33.6603 38.0526 34.7321L25 42.2679C23.1436 43.3397 20.8564 43.3397 19 42.2679L5.94744 34.7321C4.09104 33.6603 2.94744 31.6795 2.94744 29.5359V14.4641C2.94744 12.3205 4.09103 10.3397 5.94744 9.26795L19 1.73205Z"
    fill="#EA3323" />
  <rect x="13.1997" y="29.04" width="3.52" height="3.52" fill="currentColor" />
  <rect x="13.1997" y="25.5198" width="3.52" height="3.52" fill="currentColor" />
  <rect x="16.7197" y="22.0011" width="3.52" height="3.52" fill="currentColor" />
  <rect x="20.2402" y="22.0011" width="3.52" height="3.52" fill="currentColor" />
  <rect x="27.2793" y="29.04" width="3.52" height="3.52" fill="currentColor" />
  <rect x="23.7603" y="25.5198" width="3.52" height="3.52" fill="currentColor" />
  <rect x="13.1997" y="18.4808" width="3.52" height="3.52" fill="currentColor" />
  <rect x="13.1997" y="14.9606" width="3.52" height="3.52" fill="currentColor" />
  <rect x="13.1997" y="11.4403" width="3.52" height="3.52" fill="currentColor" />
  <rect x="20.2402" y="18.4808" width="3.52" height="3.52" fill="currentColor" />
  <rect x="23.7603" y="14.9606" width="3.52" height="3.52" fill="currentColor" />
  <rect x="27.2793" y="11.4403" width="3.52" height="3.52" fill="currentColor" />
</svg>
