<svg width="205" height="33" viewBox="0 0 205 33" fill="none" xmlns="http://www.w3.org/2000/svg">
<path d="M0 31.5739V1.62964H13.1933C15.2686 1.62964 17.0475 1.92612 18.3816 2.51907C19.7158 2.96379 20.7534 3.85322 21.6429 5.03913C22.3841 6.22504 22.8288 7.55919 22.6805 9.04158C22.6805 10.8204 22.2358 12.1546 21.3464 13.3405C20.457 14.5264 19.271 15.2676 17.6404 15.7123L17.4922 14.9711C18.6781 15.2676 19.864 15.7123 21.0499 16.4535C23.1253 17.7877 24.1629 20.1595 24.1629 22.6796C24.1629 24.0137 23.8665 25.3479 23.4217 26.682C22.977 27.7197 22.2358 28.7574 21.1982 29.4985C20.1605 30.2397 18.9746 30.8327 17.7887 31.2774C16.4545 31.7221 14.9721 31.8704 13.4897 31.8704L0 31.5739ZM6.81899 13.637H12.1556C12.7485 13.637 13.4897 13.4887 14.0827 13.3405C14.5274 13.1923 14.9721 12.7476 15.2686 12.3028C15.5651 11.8581 15.7133 11.2652 15.7133 10.6722C15.7133 9.78278 15.4168 9.04158 14.8239 8.44863C14.2309 7.85567 13.1933 7.70743 12.0073 7.70743H6.96723V13.637H6.81899ZM6.81899 25.4961H13.3415C14.0827 25.4961 14.6756 25.3479 15.4168 25.0514C16.0098 24.7549 16.4545 24.4584 16.751 23.8655C17.0475 23.2725 17.1957 22.6796 17.1957 22.0866C17.1957 21.4936 17.0475 20.9007 16.751 20.456C16.4545 20.0113 15.8616 19.5665 15.4168 19.4183C14.6756 19.1218 13.9345 18.9736 13.3415 19.1218H6.96723L6.81899 25.4961Z" fill="black"/>
<path d="M29.2019 31.5749V0H36.0209V31.5749H29.2019Z" fill="black"/>
<path d="M49.6611 32.0193C48.1787 32.0193 46.6963 31.7228 45.3621 30.9816C44.1762 30.2404 43.1385 29.2028 42.6938 27.8686C41.9526 26.3862 41.6562 24.6074 41.8044 22.9767V8.89404H48.4751V21.9391C48.4751 22.6803 48.6234 23.5697 48.9199 24.3109C49.2163 24.9038 49.661 25.4968 50.254 25.7933C50.847 26.0898 51.5882 26.3862 52.3293 26.3862C52.9223 26.3862 53.5153 26.238 53.96 26.0898C54.4047 25.9415 54.8494 25.645 55.2941 25.2003C55.5906 24.9038 55.8871 24.4591 56.1836 24.0144C56.3318 23.5697 56.48 22.9767 56.48 22.3838V8.89404H63.299V31.5746H56.7765L56.48 26.9792L57.8142 26.5345C57.5177 27.5721 56.9248 28.6098 56.0353 29.351C55.2941 30.2404 54.2565 30.8334 53.2188 31.4264C52.0329 31.8711 50.847 32.0193 49.6611 32.0193Z" fill="black"/>
<path d="M80.1977 32.0205C77.6776 32.0205 75.4541 31.5757 73.6752 30.5381C71.8963 29.6486 70.4139 28.1663 69.3763 26.3874C68.3386 24.6085 67.7456 22.5332 67.8939 20.3096C67.8939 18.679 68.1904 17.0483 68.7833 15.5659C69.3763 14.0836 70.1175 12.8976 71.1551 11.7117C72.1928 10.6741 73.3787 9.78464 74.8611 9.19168C76.3435 8.59872 77.9741 8.30225 79.4565 8.30225C80.9389 8.30225 82.4213 8.59872 83.7554 9.19168C85.0896 9.78464 86.2755 10.5258 87.1649 11.5635C88.2026 12.6012 88.9438 13.7871 89.3885 15.2695C89.9815 16.7519 90.1297 18.2342 90.1297 19.8649V21.6437H72.0446L71.0069 17.7895H84.4966L83.7554 18.5307V17.6413C83.7554 16.9001 83.459 16.3071 83.1625 15.7142C82.7178 15.1212 82.2731 14.6765 81.6801 14.38C81.0871 14.0836 80.3459 13.9353 79.6048 13.9353C78.5671 13.9353 77.6776 14.0836 76.7882 14.5283C76.047 14.973 75.4541 15.7142 75.0093 16.4554C74.5646 17.4931 74.4164 18.5307 74.4164 19.5684C74.4164 20.7543 74.7129 21.792 75.1576 22.8297C75.7505 23.7191 76.4917 24.4603 77.5294 25.0532C78.7153 25.6462 79.9012 25.7944 81.0871 25.7944C81.9766 25.7944 82.866 25.6462 83.6072 25.3497C84.4966 25.0532 85.3861 24.4603 86.1273 23.8673L89.3885 28.4627C88.4991 29.2039 87.6096 29.7969 86.572 30.3898C85.5343 30.8346 84.4966 31.2793 83.459 31.4275C82.273 31.8722 81.2354 32.0205 80.1977 32.0205Z" fill="black"/>
<path d="M95.1685 31.5739V1.62964H101.691L112.661 19.4183H108.065L119.035 1.77788H125.261V31.7221H118.145V22.3831C118.145 19.863 118.145 17.4912 118.294 15.4159C118.442 13.3405 118.59 11.2652 118.887 9.33806L119.628 11.5616L111.326 24.4584H108.51L100.357 11.7099L101.246 9.33806C101.543 11.2652 101.839 13.1923 101.839 15.2676C101.987 17.343 101.987 19.7148 101.987 22.3831V31.7221H95.1685V31.5739Z" fill="black"/>
<path d="M142.608 32.0191C140.384 32.0191 138.161 31.5743 136.234 30.5367C130.601 27.4236 128.525 20.3082 131.638 14.6751C132.676 12.748 134.307 11.1174 136.234 10.0797C140.236 8.00436 144.832 8.00436 148.834 10.0797C150.613 11.1174 152.095 12.4515 153.133 14.2304C154.171 16.0093 154.764 18.2328 154.764 20.3082C154.764 22.3835 154.319 24.6071 153.133 26.386C152.095 28.1648 150.613 29.6472 148.834 30.5367C147.055 31.5743 144.832 32.0191 142.608 32.0191ZM142.608 26.0895C143.646 26.0895 144.535 25.793 145.276 25.3483C146.017 24.7554 146.759 24.1624 147.203 23.273C147.648 22.3835 147.945 21.3459 147.796 20.3082C147.796 19.2705 147.648 18.2328 147.203 17.1952C146.759 16.3057 146.166 15.5645 145.276 15.1198C144.387 14.6751 143.497 14.3786 142.608 14.3786C141.57 14.3786 140.681 14.6751 139.791 15.1198C138.902 15.5645 138.309 16.3057 137.864 17.1952C137.42 18.0846 137.123 19.2705 137.271 20.3082C137.271 21.3459 137.42 22.3835 137.864 23.273C138.309 24.1624 138.902 24.9036 139.791 25.3483C140.681 25.793 141.719 26.0895 142.608 26.0895Z" fill="black"/>
<path d="M165.732 31.5746L156.244 8.89404H163.805L169.438 25.9415L167.807 26.0898L173.588 8.89404H181L171.068 31.5746H165.732Z" fill="black"/>
<path d="M194.786 32.0205C192.266 32.0205 190.043 31.5757 188.264 30.5381C186.485 29.6486 185.003 28.1663 183.965 26.3874C182.927 24.6085 182.334 22.5332 182.483 20.3096C182.483 18.679 182.779 17.0483 183.372 15.5659C183.965 14.0836 184.706 12.8976 185.744 11.7117C186.781 10.6741 187.967 9.78464 189.45 9.19168C190.932 8.59872 192.563 8.30225 194.045 8.30225C195.528 8.30225 197.01 8.59872 198.492 9.19168C199.826 9.78464 201.012 10.5258 201.902 11.5635C202.939 12.6012 203.681 13.7871 204.125 15.2695C204.718 16.7519 204.867 18.2342 204.867 19.8649V21.6437H186.781L185.744 17.7895H199.233L198.492 18.5307V17.6413C198.492 16.9001 198.196 16.3071 197.899 15.7142C197.455 15.1212 197.01 14.6765 196.417 14.38C195.824 14.0836 195.083 13.9353 194.342 13.9353C193.304 13.9353 192.415 14.0836 191.525 14.5283C190.784 14.973 190.191 15.7142 189.746 16.4554C189.302 17.4931 189.153 18.5307 189.153 19.5684C189.153 20.7543 189.45 21.792 189.894 22.8297C190.487 23.7191 191.229 24.4603 192.266 25.0532C193.452 25.6462 194.638 25.7944 195.824 25.7944C196.713 25.7944 197.603 25.6462 198.344 25.3497C199.234 25.0532 200.123 24.4603 200.864 23.8673L204.125 28.4627C203.236 29.2039 202.347 29.7969 201.309 30.3898C200.271 30.8346 199.382 31.2793 198.196 31.4275C196.862 31.8722 195.824 32.0205 194.786 32.0205Z" fill="black"/>
</svg>
