<svg width="162" height="44" viewBox="0 0 162 44" fill="none" xmlns="http://www.w3.org/2000/svg">
<path d="M13.2343 34.2812C11.3092 34.2812 9.5416 33.9871 7.93237 33.3979C6.32227 32.8097 4.92918 31.9703 3.75048 30.8799C2.57178 29.7904 1.65299 28.4802 0.991445 26.9477C0.329903 25.417 0 23.6944 0 21.7799C0 19.8949 0.337778 18.1786 1.01332 16.6326C1.68799 15.0866 2.63041 13.7694 3.83711 12.6789C5.04381 11.5903 6.45965 10.75 8.08288 10.1609C9.70611 9.57174 11.4667 9.2776 13.3639 9.2776C14.14 9.2776 14.9223 9.34398 15.7134 9.4758C16.5036 9.60851 17.2657 9.79323 17.9981 10.0282C18.7306 10.2649 19.4061 10.5294 20.0239 10.8236C20.6417 11.1186 21.1667 11.4423 21.5981 11.7956L16.6401 19.1291C16.2953 18.731 15.8429 18.4252 15.2828 18.2127C14.7219 17.9992 14.1829 17.8916 13.6657 17.8916C13.1766 17.8916 12.7023 17.9732 12.2429 18.1346C11.7826 18.2969 11.3731 18.548 11.0143 18.8861C10.6547 19.2251 10.3607 19.6367 10.1305 20.1227C9.90038 20.6087 9.78576 21.1764 9.78576 21.8238C9.78576 22.4712 9.90038 23.0389 10.1305 23.5249C10.3607 24.0109 10.6547 24.4082 11.0143 24.7167C11.3731 25.026 11.7826 25.2628 12.2429 25.4242C12.7023 25.5865 13.1766 25.6672 13.6657 25.6672C14.2407 25.6672 14.8007 25.5569 15.3467 25.3363C15.8928 25.1148 16.3382 24.8135 16.6829 24.4297L21.6839 31.556C20.7353 32.3192 19.5067 32.963 17.9981 33.4903C16.4895 34.0176 14.9013 34.2812 13.2343 34.2812Z" fill="#151514"/>
<path d="M23.5801 0H33.7535V33.3979H23.5801V0Z" fill="#151514"/>
<path d="M62.3346 33.3979H52.6346V30.8351H52.5489C51.974 31.6896 51.119 32.4339 49.9841 33.0661C48.8483 33.6992 47.5479 34.0167 46.0822 34.0167C44.473 34.0167 43.1516 33.7288 42.1165 33.1549C41.0821 32.5801 40.2552 31.8295 39.6383 30.9023C39.0196 29.9742 38.5882 28.9295 38.345 27.7655C38.0999 26.6025 37.9783 25.4457 37.9783 24.297V10.1609H47.9365V22.4425C47.9365 23.6208 48.1176 24.4458 48.4807 24.9157C48.843 25.3874 49.3873 25.6223 50.1127 25.6223C50.7804 25.6223 51.3246 25.3506 51.7455 24.8054C52.1656 24.2611 52.3765 23.4738 52.3765 22.4425V10.1609H62.3346V33.3979Z" fill="#151514"/>
<path d="M76.7757 34.0167C73.7296 34.0167 71.4737 33.3468 70.008 32.0062C68.5423 30.6665 67.809 28.5825 67.809 25.7551V17.4504H64.6194V10.1609H67.7661V4.94819H77.4223V10.1609H82.3367V17.4504H77.4223V23.6343C77.4223 24.7543 77.6595 25.512 78.1337 25.9102C78.608 26.3074 79.2617 26.5065 80.0947 26.5065C80.4115 26.5065 80.7414 26.4769 81.0871 26.4178C81.4318 26.3595 81.704 26.3003 81.9061 26.2411V33.2212C81.3881 33.4562 80.6627 33.6481 79.729 33.7952C78.7944 33.9431 77.8108 34.0167 76.7757 34.0167Z" fill="#151514"/>
<path d="M97.3815 34.2812C95.4555 34.2812 93.6879 33.9871 92.0786 33.3979C90.4685 32.8097 89.0755 31.9703 87.8976 30.8799C86.7189 29.7904 85.7993 28.4802 85.1386 26.9477C84.4771 25.417 84.1472 23.6944 84.1472 21.7799C84.1472 19.8949 84.484 18.1786 85.1596 16.6326C85.8351 15.0866 86.7767 13.7694 87.9834 12.6789C89.1909 11.5903 90.6059 10.75 92.23 10.1609C93.8532 9.57174 95.6139 9.2776 97.511 9.2776C98.2863 9.2776 99.0695 9.34398 99.8597 9.4758C100.65 9.60851 101.412 9.79323 102.145 10.0282C102.878 10.2649 103.552 10.5294 104.171 10.8236C104.789 11.1186 105.313 11.4423 105.744 11.7956L100.787 19.1291C100.442 18.731 99.9891 18.4252 99.4291 18.2127C98.8691 17.9992 98.3292 17.8916 97.812 17.8916C97.3237 17.8916 96.8494 17.9732 96.39 18.1346C95.9297 18.2969 95.5202 18.548 95.1615 18.8861C94.8018 19.2251 94.5069 19.6367 94.2777 20.1227C94.0475 20.6087 93.9329 21.1764 93.9329 21.8238C93.9329 22.4712 94.0475 23.0389 94.2777 23.5249C94.5069 24.0109 94.8018 24.4082 95.1615 24.7167C95.5202 25.026 95.9297 25.2628 96.39 25.4242C96.8494 25.5865 97.3237 25.6672 97.812 25.6672C98.3869 25.6672 98.9478 25.5569 99.4939 25.3363C100.039 25.1148 100.485 24.8135 100.83 24.4297L105.831 31.556C104.882 32.3192 103.654 32.963 102.145 33.4903C100.636 34.0176 99.0476 34.2812 97.3815 34.2812Z" fill="#151514"/>
<path d="M123.96 9.54215C125.536 9.54215 126.847 9.83716 127.893 10.4263C128.939 11.0155 129.77 11.7732 130.385 12.7013C131.001 13.6286 131.431 14.667 131.675 15.8157C131.918 16.9644 132.04 18.1131 132.04 19.2618V33.3979H122.083V21.0284C122.083 19.851 121.902 19.026 121.544 18.5543C121.184 18.0835 120.645 17.8477 119.926 17.8477C119.351 17.8477 118.834 18.1059 118.375 18.6207C117.915 19.1363 117.685 19.9541 117.685 21.0723V33.3979H107.727V0H117.685V12.7238H117.771C118.344 11.8692 119.161 11.1258 120.221 10.4927C121.281 9.85958 122.527 9.54215 123.96 9.54215Z" fill="#151514"/>
<path d="M142.989 32.4752L133.807 10.1609H144.843L148.206 22.3977H148.378L151.352 10.1609H162L152.689 34.8112C152.142 36.254 151.525 37.5426 150.835 38.677C150.146 39.8105 149.341 40.7753 148.421 41.5707C147.501 42.3661 146.417 42.9687 145.167 43.3821C143.916 43.7937 142.457 44 140.79 44C140.273 44 139.741 43.9776 139.196 43.9345C138.65 43.8888 138.125 43.8296 137.623 43.7561C137.12 43.6816 136.652 43.6081 136.221 43.5346C135.79 43.4593 135.431 43.3786 135.144 43.2898L136.394 34.856C136.767 35.0031 137.219 35.1277 137.751 35.2309C138.283 35.334 138.765 35.386 139.196 35.386C140.287 35.386 141.099 35.1573 141.631 34.7018C142.163 34.2462 142.558 33.666 142.817 32.9603L142.989 32.4752Z" fill="#151514"/>
</svg>
