<svg width="196" height="39" viewBox="0 0 196 39" fill="none" xmlns="http://www.w3.org/2000/svg">
<path d="M3.56744 16.3471C3.56744 16.3471 2.35603 21.3218 5.08755 24.9384C7.84006 28.5836 12.9622 28.1652 15.0282 27.6038C17.0373 27.0572 20.4628 24.8699 23.1091 22.1323C23.6549 21.5677 24.1756 21.0485 24.6735 20.5705M3.56744 16.3471C3.56744 16.3471 -0.685139 26.0812 5.52076 33.1094C11.1686 39.5055 19.5432 38.4719 25.467 34.45C30.2476 31.2042 34.2797 26.4323 38.014 26.4895C43.6178 26.5743 45.7972 31.6885 45.7972 31.6885L46.0665 32.3109C47.9312 27.5553 49.4167 21.104 43.8314 16.6682C40.617 14.1148 36.5222 14.573 35.706 14.6812C33.9492 14.9165 32.2785 15.1399 30.0991 16.3471M3.56744 16.3471C5.37282 10.1209 11.8507 4.30038 19.0199 2.27188M24.6735 20.5705C26.8535 18.4782 28.5971 17.1789 30.0991 16.3471M24.6735 20.5705C22.789 21.5135 18.4689 22.4888 14.9501 19.8651C11.0817 16.9807 9.5907 5.93075 19.0199 2.27188M30.0991 16.3471C27.2657 17.3981 20.9945 16.9405 21.5989 10.4002C22.404 1.68943 32.2371 4.02183 37.7174 5.19999C34.7757 3.53433 29.3357 -0.000508541 20.3094 1.95008C19.8777 2.04338 19.4476 2.15089 19.0199 2.27188" stroke="black" stroke-width="1.41553" stroke-miterlimit="10"/>
<path d="M66.2969 31.5444C64.2468 31.5444 62.4927 31.2345 61.0349 30.6144C59.5769 29.9943 58.472 29.1791 57.7204 28.1685C56.9686 27.158 56.5699 26.0557 56.5244 24.8614C56.5244 24.6777 56.5928 24.517 56.7294 24.3792C56.8661 24.2184 57.037 24.1381 57.242 24.1381H60.3514C60.602 24.1381 60.807 24.1954 60.9665 24.3103C61.1259 24.4251 61.2741 24.5859 61.4107 24.7926C61.6385 25.5734 62.151 26.2279 62.9483 26.7561C63.7684 27.2843 64.8846 27.5485 66.2969 27.5485C67.8915 27.5485 69.0875 27.2843 69.8848 26.7561C70.7049 26.2049 71.1149 25.4586 71.1149 24.517C71.1149 23.8969 70.9099 23.3802 70.4999 22.9668C70.0898 22.5534 69.4634 22.1974 68.6205 21.8988C67.8005 21.5773 66.5703 21.1984 64.9302 20.7621C62.2422 20.119 60.2718 19.2693 59.0188 18.2128C57.7659 17.1564 57.1395 15.6407 57.1395 13.6657C57.1395 12.3336 57.5039 11.1509 58.233 10.1174C58.9619 9.06099 59.9984 8.23423 61.3424 7.63712C62.7091 7.04001 64.2923 6.74146 66.0919 6.74146C67.9827 6.74146 69.6114 7.07446 70.9783 7.74047C72.3678 8.40647 73.4156 9.24472 74.1219 10.2552C74.8508 11.2427 75.238 12.2303 75.2835 13.2178C75.2835 13.4015 75.2152 13.5737 75.0785 13.7346C74.9418 13.8724 74.7711 13.9413 74.5661 13.9413H71.32C70.8187 13.9413 70.477 13.7346 70.2948 13.3212C70.181 12.5862 69.7367 11.9777 68.9622 11.4954C68.1877 10.9901 67.2309 10.7375 66.0919 10.7375C64.8391 10.7375 63.8481 10.9786 63.1192 11.4609C62.4131 11.9432 62.0599 12.6437 62.0599 13.5623C62.0599 14.1824 62.2422 14.6992 62.6066 15.1124C62.9711 15.5258 63.5406 15.8933 64.3152 16.2148C65.0896 16.5134 66.2173 16.8579 67.698 17.2483C69.7253 17.7076 71.3313 18.2244 72.5158 18.7984C73.7232 19.3727 74.6116 20.0961 75.181 20.9688C75.7506 21.8415 76.0353 22.9553 76.0353 24.3103C76.0353 25.8031 75.6253 27.1006 74.8053 28.2029C74.0079 29.2823 72.8689 30.1091 71.3883 30.6833C69.9303 31.2574 68.2332 31.5444 66.2969 31.5444Z" fill="black"/>
<path d="M80.7364 31.2001C80.5085 31.2001 80.315 31.1196 80.1555 30.9589C79.9961 30.7981 79.9163 30.6028 79.9163 30.3733V7.94716C79.9163 7.69453 79.9846 7.48785 80.1213 7.32707C80.2808 7.16632 80.4858 7.08594 80.7364 7.08594H83.88C84.1305 7.08594 84.3355 7.16632 84.4951 7.32707C84.6544 7.48785 84.7342 7.69453 84.7342 7.94716V16.8005H94.7118V7.94716C94.7118 7.69453 94.7915 7.48785 94.951 7.32707C95.1104 7.16632 95.3041 7.08594 95.5318 7.08594H98.7097C98.9602 7.08594 99.1538 7.16632 99.2905 7.32707C99.45 7.48785 99.5297 7.69453 99.5297 7.94716V30.3733C99.5297 30.6028 99.45 30.7981 99.2905 30.9589C99.1538 31.1196 98.9602 31.2001 98.7097 31.2001H95.5318C95.3041 31.2001 95.1104 31.1196 94.951 30.9589C94.7915 30.7981 94.7118 30.6028 94.7118 30.3733V21.1755H84.7342V30.3733C84.7342 30.6028 84.6544 30.7981 84.4951 30.9589C84.3355 31.1196 84.1305 31.2001 83.88 31.2001H80.7364Z" fill="black"/>
<path d="M105.696 31.2001C105.468 31.2001 105.275 31.1196 105.115 30.9589C104.956 30.7981 104.876 30.6028 104.876 30.3733V7.91271C104.876 7.66008 104.956 7.46487 105.115 7.32707C105.275 7.16632 105.468 7.08594 105.696 7.08594H108.977C109.227 7.08594 109.421 7.16632 109.557 7.32707C109.717 7.46487 109.797 7.66008 109.797 7.91271V30.3733C109.797 30.6028 109.717 30.7981 109.557 30.9589C109.421 31.1196 109.227 31.2001 108.977 31.2001H105.696Z" fill="black"/>
<path d="M115.94 31.2001C115.713 31.2001 115.519 31.1196 115.36 30.9589C115.2 30.7981 115.12 30.6028 115.12 30.3733V7.94716C115.12 7.69453 115.189 7.48785 115.325 7.32707C115.485 7.16632 115.69 7.08594 115.94 7.08594H118.606C119.038 7.08594 119.369 7.28115 119.597 7.67156L129.369 22.9668V7.94716C129.369 7.69453 129.437 7.48785 129.574 7.32707C129.734 7.16632 129.939 7.08594 130.189 7.08594H133.128C133.378 7.08594 133.583 7.16632 133.743 7.32707C133.903 7.48785 133.981 7.69453 133.981 7.94716V30.3388C133.981 30.5914 133.903 30.7981 133.743 30.9589C133.583 31.1196 133.39 31.2001 133.161 31.2001H130.463C130.007 31.2001 129.666 31.0048 129.437 30.6144L119.699 15.6636V30.3733C119.699 30.6028 119.619 30.7981 119.46 30.9589C119.323 31.1196 119.13 31.2001 118.879 31.2001H115.94Z" fill="black"/>
<path d="M137.81 31.2001C137.605 31.2001 137.435 31.1312 137.298 30.9934C137.161 30.8556 137.093 30.6833 137.093 30.4766L137.161 30.1666L145.361 7.94716C145.589 7.37302 145.999 7.08594 146.591 7.08594H150.35C150.943 7.08594 151.353 7.37302 151.58 7.94716L159.781 30.1666L159.85 30.4766C159.85 30.6833 159.77 30.8556 159.61 30.9934C159.473 31.1312 159.315 31.2001 159.133 31.2001H156.091C155.612 31.2001 155.282 30.9818 155.101 30.5455L153.529 26.3772H143.414L141.842 30.5455C141.66 30.9818 141.33 31.2001 140.852 31.2001H137.81ZM144.609 22.3811H152.332L148.471 11.771L144.609 22.3811Z" fill="black"/>
<path d="M163.825 31.2001C163.597 31.2001 163.403 31.1196 163.243 30.9589C163.085 30.7981 163.005 30.6028 163.005 30.3733V7.94716C163.005 7.69453 163.073 7.48785 163.21 7.32707C163.369 7.16632 163.574 7.08594 163.825 7.08594H166.592C167.025 7.08594 167.367 7.30412 167.617 7.74046L174.212 20.0731L180.807 7.74046C181.058 7.30412 181.399 7.08594 181.832 7.08594H184.566C184.816 7.08594 185.021 7.16632 185.181 7.32707C185.34 7.48785 185.42 7.69453 185.42 7.94716V30.3733C185.42 30.6258 185.34 30.8325 185.181 30.9934C185.021 31.1312 184.816 31.2001 184.566 31.2001H181.627C181.399 31.2001 181.206 31.1196 181.046 30.9589C180.887 30.7981 180.807 30.6028 180.807 30.3733V15.5603L176.057 24.6548C175.807 25.16 175.432 25.4126 174.93 25.4126H173.495C173.016 25.4126 172.63 25.16 172.333 24.6548L167.584 15.5603V30.3733C167.584 30.6028 167.504 30.7981 167.344 30.9589C167.207 31.1196 167.014 31.2001 166.764 31.2001H163.825Z" fill="black"/>
<path d="M191.554 31.2001C191.327 31.2001 191.132 31.1196 190.974 30.9589C190.814 30.7981 190.734 30.6028 190.734 30.3733V7.91271C190.734 7.66008 190.814 7.46487 190.974 7.32707C191.132 7.16632 191.327 7.08594 191.554 7.08594H194.834C195.086 7.08594 195.279 7.16632 195.416 7.32707C195.575 7.46487 195.655 7.66008 195.655 7.91271V30.3733C195.655 30.6028 195.575 30.7981 195.416 30.9589C195.279 31.1196 195.086 31.2001 194.834 31.2001H191.554Z" fill="black"/>
</svg>
