<svg width="16" height="13" viewBox="0 0 16 13" fill="none" xmlns="http://www.w3.org/2000/svg">
  <path fill-rule="evenodd" clip-rule="evenodd"
    d="M9.44273 6.74383C9.36215 6.74964 8.9458 6.7735 8.01709 6.7735C7.27842 6.7735 6.75396 6.75222 6.56997 6.74383C3.71534 6.62324 1.58461 6.146 1.58461 5.57461C1.58461 5.00322 3.71534 4.52663 6.56997 4.4041V6.26853C6.75665 6.28143 7.29118 6.31174 8.02985 6.31174C8.91626 6.31174 9.36013 6.27627 9.44004 6.26918V4.40539C12.2886 4.52728 14.4147 5.00451 14.4147 5.57461C14.4147 6.14471 12.2893 6.62195 9.44004 6.74319L9.44273 6.74383ZM9.44273 4.21256V2.54417H13.4181V0H2.59457V2.54417H6.56929V4.21191C3.33861 4.35444 0.909058 4.96904 0.909058 5.70553C0.909058 6.44202 3.33861 7.05597 6.56929 7.19914V12.5455H9.44205V7.19721C12.6653 7.05468 15.0909 6.44073 15.0909 5.70488C15.0909 4.96904 12.6674 4.35508 9.44205 4.21191L9.44273 4.21256Z"
    fill="currentColor" />
</svg>
