<svg width="21" height="21" viewBox="0 0 21 21" fill="none" xmlns="http://www.w3.org/2000/svg">
  <path fill-rule="evenodd" clip-rule="evenodd"
    d="M7.77862 19.5787C7.77862 19.9049 7.52111 20.0766 7.21209 19.9908C5.13433 19.3261 3.32148 18.0185 2.03521 16.2566C0.748944 14.4947 0.0557861 12.3696 0.0557861 10.1882C0.0557861 8.00671 0.748944 5.88166 2.03521 4.11975C3.32148 2.35784 5.13433 1.05021 7.21209 0.385603C7.52111 0.282598 7.77862 0.47144 7.77862 0.79762V1.58732C7.77862 1.8105 7.60694 2.05084 7.40093 2.11951C4.12196 3.32122 1.77003 6.48002 1.77003 10.171C1.77003 13.862 4.12196 17.0208 7.40093 18.2225C7.60694 18.2912 7.77862 18.5487 7.77862 18.7547V19.5616V19.5787Z"
    fill="currentColor" />
  <path fill-rule="evenodd" clip-rule="evenodd"
    d="M11.2121 16.6266C11.2121 16.8669 11.0232 17.0558 10.7829 17.0558H9.92451C9.68416 17.0558 9.49532 16.8669 9.49532 16.6266V15.2704C7.62408 15.0128 6.71421 13.9656 6.45669 12.5407C6.40519 12.3004 6.6112 12.0772 6.85154 12.0772H7.83009C8.03609 12.0772 8.20777 12.2146 8.2421 12.4206C8.43094 13.2789 8.91163 13.9141 10.4224 13.9141C11.5382 13.9141 12.3108 13.2961 12.3108 12.3691C12.3108 11.442 11.8473 11.0987 10.2164 10.824C7.81292 10.4978 6.67987 9.77679 6.67987 7.88838C6.67987 6.42915 7.77858 5.31327 9.47815 5.05576V3.73387C9.47815 3.49353 9.66699 3.30469 9.90734 3.30469H10.7657C11.0061 3.30469 11.1949 3.49353 11.1949 3.73387V5.10726C12.5854 5.34761 13.461 6.13731 13.7357 7.44203C13.7872 7.68237 13.5983 7.92271 13.3408 7.92271H12.4309C12.2421 7.92271 12.0704 7.78537 12.0189 7.6137C11.7786 6.78967 11.1777 6.42915 10.1648 6.42915C9.0318 6.42915 8.44811 6.97851 8.44811 7.75104C8.44811 8.55791 8.77429 8.96992 10.5254 9.22743C12.8773 9.55361 14.0962 10.2231 14.0962 12.2317C14.0962 13.7596 12.9631 14.9957 11.1949 15.2704V16.6266H11.2121Z"
    fill="currentColor" />
  <path fill-rule="evenodd" clip-rule="evenodd"
    d="M13.4954 19.9896C13.1863 20.0926 12.9288 19.9038 12.9288 19.5776V18.7879C12.9288 18.5476 13.0662 18.3244 13.3065 18.2557C16.5855 17.054 18.9374 13.8952 18.9374 10.2042C18.9374 6.51323 16.5855 3.35443 13.3065 2.15271C13.2003 2.10791 13.1087 2.03437 13.042 1.94035C12.9752 1.84634 12.9361 1.73558 12.9288 1.62052V0.830823C12.9288 0.504643 13.1863 0.315801 13.4954 0.418806C17.6499 1.74069 20.6542 5.63769 20.6542 10.2214C20.6542 14.8051 17.6499 18.6849 13.4954 20.024V19.9896Z"
    fill="currentColor" />
</svg>
