<svg width="19" height="23" viewBox="0 0 19 23" fill="none" xmlns="http://www.w3.org/2000/svg">
  <path
    d="M18.2085 10.9768L9.94667 0.461783C9.87639 0.372358 9.78672 0.300061 9.68443 0.250348C9.58213 0.200636 9.46988 0.174805 9.35614 0.174805C9.2424 0.174805 9.13015 0.200636 9.02786 0.250348C8.92556 0.300061 8.83589 0.372358 8.76561 0.461783L0.503807 10.9768C0.399954 11.1091 0.343506 11.2724 0.343506 11.4406C0.343506 11.6088 0.399954 11.7721 0.503807 11.9044L8.76561 22.4194C8.83589 22.5088 8.92556 22.5811 9.02786 22.6308C9.13015 22.6805 9.2424 22.7064 9.35614 22.7064C9.46988 22.7064 9.58213 22.6805 9.68443 22.6308C9.78672 22.5811 9.87639 22.5088 9.94667 22.4194L18.2085 11.9044C18.3123 11.7721 18.3688 11.6088 18.3688 11.4406C18.3688 11.2724 18.3123 11.1091 18.2085 10.9768ZM10.1072 3.09711L16.4369 11.1524L10.1072 14.0299V3.09711ZM8.60507 14.0299L2.2754 11.1524L8.60507 3.09711V14.0299ZM8.60507 15.6795V19.7841L3.58884 13.4L8.60507 15.6795ZM10.1072 15.6795L15.1234 13.399L10.1072 19.7831V15.6795Z"
    fill="currentColor" />
</svg>
