<svg width="20" height="20" viewBox="0 0 20 20" fill="none" xmlns="http://www.w3.org/2000/svg">
  <path
    d="M10 20C15.5228 20 20 15.5228 20 10C20 4.47715 15.5228 0 10 0C4.47715 0 0 4.47715 0 10C0 15.5228 4.47715 20 10 20Z"
    fill="#F0B90B" />
  <path
    d="M11.1284 14.0506V15.3392L9.98371 16L8.87272 15.3392V14.0506L9.98371 14.7114L11.1284 14.0506ZM5 9.58891L6.11099 10.2497V12.464L8.03052 13.5874V14.8761L5 13.1249V9.58891ZM14.9669 9.58891V13.1249L11.9027 14.8761V13.5874L13.8222 12.464V10.2497L14.9669 9.58891ZM11.9027 7.83771L13.0473 8.49854V9.78715L11.1278 10.9106V13.1579L10.0168 13.8187L8.90584 13.1579V10.9106L6.91898 9.78715V8.49854L8.06364 7.83771L9.98317 8.96112L11.9027 7.83771ZM6.91953 10.7128L8.03052 11.3737V12.6623L6.91953 12.0015V10.7128ZM13.0479 10.7128V12.0015L11.9369 12.6623V11.3737L13.0479 10.7128ZM6.11099 6.71431L7.25565 7.37513L6.11099 8.03596V9.32457L5 8.66375V7.37513L6.11099 6.71431ZM13.8553 6.71431L15 7.37513V8.66375L13.8553 9.32457V8.03596L12.7444 7.37513L13.8553 6.71431ZM9.98317 6.71431L11.1278 7.37513L9.98317 8.03596L8.87218 7.37513L9.98317 6.71431ZM9.98317 4.5L13.0473 6.25119L11.9364 6.91202L10.0168 5.78861L8.06364 6.91202L6.95265 6.25119L9.98317 4.5Z"
    fill="white" />
</svg>
