<svg width="20" height="20" viewBox="0 0 20 20" fill="none" xmlns="http://www.w3.org/2000/svg">
  <path
    d="M19.7007 12.4191C18.3649 17.7763 12.9384 21.0365 7.58001 19.7006C2.22382 18.365 -1.03684 12.9388 0.29955 7.58198C1.63469 2.22422 7.06121 -1.03637 12.418 0.299246C17.7761 1.63486 21.0364 7.06168 19.7007 12.4191Z"
    fill="#F7931A" />
  <path
    d="M14.4096 8.57527C14.6087 7.24466 13.5954 6.52935 12.21 6.05217L12.6594 4.24968L11.5621 3.97625L11.1246 5.73123C10.8361 5.65935 10.5398 5.59155 10.2454 5.52436L10.6861 3.75781L9.58939 3.48438L9.13965 5.28623C8.90088 5.23185 8.66648 5.17811 8.43895 5.12155L8.4402 5.11592L6.92692 4.73811L6.63502 5.90997C6.63502 5.90997 7.44916 6.09654 7.43197 6.1081C7.8764 6.21903 7.95671 6.51309 7.94327 6.74621L7.43134 8.79964C7.46197 8.80745 7.50167 8.8187 7.54543 8.8362C7.50886 8.82714 7.46979 8.81713 7.42948 8.80745L6.71189 11.684C6.65751 11.819 6.51969 12.0215 6.20903 11.9446C6.21997 11.9605 5.41145 11.7455 5.41145 11.7455L4.8667 13.0015L6.29466 13.3574C6.56032 13.424 6.82065 13.4936 7.07693 13.5593L6.62283 15.3824L7.71888 15.6558L8.16861 13.8521C8.46802 13.9333 8.75868 14.0083 9.04308 14.079L8.59491 15.8743L9.69221 16.1477L10.1463 14.328C12.0175 14.6821 13.4245 14.5393 14.0167 12.8471C14.494 11.4846 13.993 10.6987 13.0085 10.1862C13.7255 10.0209 14.2655 9.54932 14.4096 8.57527ZM11.9024 12.0905C11.5633 13.453 9.26904 12.7165 8.52521 12.5318L9.12778 10.1165C9.87161 10.3021 12.2569 10.6696 11.9024 12.0905ZM12.2419 8.55557C11.9324 9.79494 10.0229 9.16526 9.40343 9.01088L9.94974 6.82029C10.5692 6.97466 12.5641 7.26277 12.2419 8.55557Z"
    fill="white" />
</svg>
