<svg width="20" height="20" viewBox="0 0 20 20" fill="none" xmlns="http://www.w3.org/2000/svg">
  <path
    d="M10 20C15.5228 20 20 15.5228 20 10C20 4.47715 15.5228 0 10 0C4.47715 0 0 4.47715 0 10C0 15.5228 4.47715 20 10 20Z"
    fill="#5065E4" />
  <path d="M9.99902 4.0918V8.46058L13.634 10.1106L9.99902 4.0918Z" fill="white" fill-opacity="0.602" />
  <path d="M9.99898 4.0918L6.36353 10.1106L9.99898 8.46058V4.0918Z" fill="white" />
  <path d="M9.99878 12.9423V15.9108L13.6362 10.7988L9.99878 12.9423Z" fill="white"
    fill-opacity="0.602" />
  <path d="M9.99898 15.9108V12.9418L6.36353 10.7988L9.99898 15.9108Z" fill="white" />
  <path d="M9.99878 12.254L13.6337 10.1099L9.99878 8.46094V12.254Z" fill="white" fill-opacity="0.2" />
  <path d="M6.36353 10.1099L9.99898 12.254V8.46094L6.36353 10.1099Z" fill="white"
    fill-opacity="0.602" />
</svg>
