<svg width="20" height="20" viewBox="0 0 20 20" fill="none" xmlns="http://www.w3.org/2000/svg">
  <path
    d="M10 20C15.5228 20 20 15.5228 20 10C20 4.47715 15.5228 0 10 0C4.47715 0 0 4.47715 0 10C0 15.5228 4.47715 20 10 20Z"
    fill="#8247E5" />
  <path fill-rule="evenodd" clip-rule="evenodd"
    d="M7.05385 5.07403C7.23233 4.97532 7.44931 4.97532 7.6278 5.07403L10.2869 6.54462C10.4745 6.64835 10.5908 6.84521 10.5908 7.05882V8.01521L9.409 8.67647V7.40494L7.34082 6.26115L5.27264 7.40494V9.65388L7.34082 10.7977L12.372 8.01521C12.5505 7.9165 12.7675 7.9165 12.946 8.01521L15.6051 9.48579C15.7927 9.58953 15.909 9.78638 15.909 10V12.9412C15.909 13.1548 15.7927 13.3516 15.6051 13.4554L12.946 14.926C12.7675 15.0247 12.5505 15.0247 12.372 14.926L9.71294 13.4554C9.52535 13.3516 9.409 13.1548 9.409 12.9412V11.9848L10.5908 11.3235V12.5951L12.659 13.7389L14.7272 12.5951V10.3461L12.659 9.20232L7.6278 11.9848C7.44931 12.0835 7.23233 12.0835 7.05385 11.9848L4.39475 10.5142C4.20717 10.4105 4.09082 10.2136 4.09082 10V7.05882C4.09082 6.84521 4.20717 6.64835 4.39475 6.54462L7.05385 5.07403Z"
    fill="white" />
</svg>
