<svg id="Layer_1" data-name="Layer 1" xmlns="http://www.w3.org/2000/svg" viewBox="0 0 29 29"><defs><style>.cls-1{fill:#fff;}.cls-2{fill:#ffeeda;}.cls-3{fill:#ebc28e;}.cls-4{fill:#190602;}</style></defs><circle class="cls-1" cx="14.5" cy="14.5" r="14.5"/><path class="cls-2" d="M22.65,18V7.58A1.58,1.58,0,0,0,21.08,6H10.23A4.3,4.3,0,0,0,6,10.31a4.22,4.22,0,0,0,.54,2.07,4.9,4.9,0,0,0,1.13,1.31,2.35,2.35,0,0,0,.43.29,4.91,4.91,0,0,0,1.09.47v6.21a3.78,3.78,0,0,0,.12.84A2.81,2.81,0,0,0,11,23.38a3.27,3.27,0,0,0,1.15.23l8.66,0A3.14,3.14,0,0,0,22.65,18Z"/><path class="cls-3" d="M22.86,20.56a2.07,2.07,0,0,1-2.06,2l-6,0a3.11,3.11,0,0,0,.77-2,3.39,3.39,0,0,0-.74-2.07H20.8a2.07,2.07,0,0,1,2.06,2.07Z"/><path class="cls-4" d="M8.23,12.79A3.41,3.41,0,0,1,7.06,10.3v-.11a3.28,3.28,0,0,1,3.16-3.13H21.07a.51.51,0,0,1,.51.51v9.17a4.21,4.21,0,0,1,.61.16,4.75,4.75,0,0,1,.45.22V7.57A1.58,1.58,0,0,0,21.07,6H10.22A4.3,4.3,0,0,0,6,10.3a4.24,4.24,0,0,0,1.64,3.35.42.42,0,0,0,.32.13.51.51,0,0,0,.53-.53A.56.56,0,0,0,8.23,12.79Z"/><path class="cls-4" d="M20.8,17.36H12.29a1,1,0,0,0-1,1v1.22a1.1,1.1,0,0,0,1.06,1.05H13V19.62h-.63v-1.2h.35a2,2,0,0,1,1.86,2.07,2.14,2.14,0,0,1-4.27,0V10.12a.84.84,0,0,0-.85-.85H8.56v1.06h.63V20.49a2.91,2.91,0,0,0,3,3.11l8.58,0a3.14,3.14,0,0,0,0-6.27Zm2.06,3.2a2.07,2.07,0,0,1-2.06,2l-6,0a3.11,3.11,0,0,0,.77-2,3.39,3.39,0,0,0-.74-2.07H20.8a2.07,2.07,0,0,1,2.06,2.07Z"/><path class="cls-4" d="M18.57,10.51H12.1v-1h6.47a.46.46,0,0,1,.47.46v.13A.46.46,0,0,1,18.57,10.51Z"/><path class="cls-4" d="M18.57,15.51H12.1v-1h6.47a.46.46,0,0,1,.47.46v.13A.47.47,0,0,1,18.57,15.51Z"/><path class="cls-4" d="M19.7,13H12.09V12H19.7a.47.47,0,0,1,.46.47v.12A.46.46,0,0,1,19.7,13Z"/></svg>