<svg width="24" height="24" viewBox="0 0 24 24" fill="none" xmlns="http://www.w3.org/2000/svg">
<circle cx="12" cy="12" r="12" fill="white"/>
<g clip-path="url(#clip0_190_4308)">
<path d="M17.9382 15.1917L15.9572 17.2844C15.9142 17.3298 15.8621 17.3661 15.8042 17.3909C15.7463 17.4156 15.6838 17.4284 15.6207 17.4284H6.22998C6.18517 17.4284 6.14134 17.4155 6.10387 17.3913C6.0664 17.3671 6.03692 17.3326 6.01906 17.2921C6.0012 17.2517 5.99573 17.2069 6.00333 17.1634C6.01093 17.1199 6.03126 17.0796 6.06183 17.0473L8.04429 14.9546C8.08724 14.9093 8.13917 14.8731 8.19688 14.8484C8.2546 14.8236 8.31686 14.8108 8.37981 14.8107H17.77C17.8148 14.8107 17.8587 14.8236 17.8962 14.8478C17.9336 14.872 17.9631 14.9064 17.981 14.9469C17.9988 14.9874 18.0043 15.0321 17.9967 15.0756C17.9891 15.1191 17.9688 15.1595 17.9382 15.1917ZM15.9572 10.9778C15.9142 10.9323 15.8621 10.8961 15.8042 10.8713C15.7463 10.8465 15.6838 10.8338 15.6207 10.8338H6.22998C6.18517 10.8338 6.14134 10.8467 6.10387 10.8709C6.0664 10.8951 6.03692 10.9296 6.01906 10.97C6.0012 11.0105 5.99573 11.0553 6.00333 11.0988C6.01093 11.1422 6.03126 11.1826 6.06183 11.2149L8.04429 13.3075C8.08724 13.3529 8.13917 13.389 8.19688 13.4138C8.2546 13.4385 8.31686 13.4514 8.37981 13.4515H17.77C17.8148 13.4515 17.8587 13.4386 17.8962 13.4144C17.9336 13.3902 17.9631 13.3557 17.981 13.3153C17.9988 13.2748 18.0043 13.23 17.9967 13.1865C17.9891 13.1431 17.9688 13.1027 17.9382 13.0704L15.9572 10.9778ZM6.22998 9.47462H15.6207C15.6838 9.47465 15.7463 9.46189 15.8042 9.43712C15.8621 9.41235 15.9142 9.3761 15.9572 9.33065L17.9382 7.23801C17.9688 7.20574 17.9891 7.16538 17.9967 7.12188C18.0043 7.07838 17.9988 7.03365 17.981 6.99317C17.9631 6.95269 17.9336 6.91824 17.8962 6.89403C17.8587 6.86983 17.8148 6.85694 17.77 6.85693H8.37981C8.31686 6.85704 8.2546 6.86987 8.19688 6.89464C8.13917 6.9194 8.08724 6.95557 8.04429 7.00091L6.06234 9.09355C6.0318 9.12578 6.01148 9.16611 6.00386 9.20954C5.99625 9.253 6.00167 9.2977 6.01947 9.33816C6.03727 9.37862 6.06666 9.41307 6.10406 9.43731C6.14145 9.46155 6.18521 9.47452 6.22998 9.47462Z" fill="url(#paint0_linear_190_4308)"/>
</g>
<defs>
<linearGradient id="paint0_linear_190_4308" x1="7.01294" y1="17.6803" x2="16.6944" y2="6.60027" gradientUnits="userSpaceOnUse">
<stop offset="0.08" stop-color="#9945FF"/>
<stop offset="0.3" stop-color="#8752F3"/>
<stop offset="0.5" stop-color="#5497D5"/>
<stop offset="0.6" stop-color="#43B4CA"/>
<stop offset="0.72" stop-color="#28E0B9"/>
<stop offset="0.97" stop-color="#19FB9B"/>
</linearGradient>
<clipPath id="clip0_190_4308">
<rect width="12" height="10.5714" fill="white" transform="translate(6 6.85693)"/>
</clipPath>
</defs>
</svg>
