<svg width="21" height="20" viewBox="0 0 21 20" fill="none" xmlns="http://www.w3.org/2000/svg">
  <path
    d="M10.5 20C16.0417 20 20.5 15.5417 20.5 10C20.5 4.4583 16.0417 0 10.5 0C4.9583 0 0.5 4.4583 0.5 10C0.5 15.5417 4.9583 20 10.5 20Z"
    fill="#2775CA" />
  <path
    d="M13.2493 11.584C13.2493 10.1257 12.3743 9.62568 10.6243 9.41738C9.37432 9.25068 9.12432 8.91738 9.12432 8.33398C9.12432 7.75058 9.54102 7.37568 10.3743 7.37568C11.1243 7.37568 11.541 7.62568 11.7493 8.25068C11.791 8.37568 11.916 8.45898 12.041 8.45898H12.7076C12.8743 8.45898 12.9993 8.33398 12.9993 8.16738V8.12568C12.8326 7.20898 12.0826 6.50068 11.1243 6.41738V5.41738C11.1243 5.25068 10.9993 5.12568 10.791 5.08398H10.166C9.99932 5.08398 9.87432 5.20898 9.83262 5.41738V6.37568C8.58262 6.54238 7.79102 7.37568 7.79102 8.41738C7.79102 9.79238 8.62432 10.334 10.3743 10.5424C11.541 10.7507 11.916 11.0007 11.916 11.6674C11.916 12.3341 11.3326 12.7924 10.541 12.7924C9.45762 12.7924 9.08262 12.334 8.95762 11.709C8.91602 11.5424 8.79102 11.459 8.66602 11.459H7.95762C7.79102 11.459 7.66602 11.584 7.66602 11.7507V11.7924C7.83262 12.834 8.49932 13.584 9.87432 13.7924V14.7924C9.87432 14.959 9.99932 15.084 10.2076 15.1257H10.8326C10.9993 15.1257 11.1243 15.0007 11.166 14.7924V13.7924C12.416 13.584 13.2493 12.709 13.2493 11.584Z"
    fill="white" />
  <path
    d="M8.37581 15.9576C5.12581 14.791 3.45911 11.166 4.66751 7.95762C5.29251 6.20762 6.66751 4.87432 8.37581 4.24932C8.54251 4.16602 8.62581 4.04102 8.62581 3.83262V3.24932C8.62581 3.08262 8.54251 2.95762 8.37581 2.91602C8.33411 2.91602 8.25081 2.91602 8.20911 2.95762C4.25081 4.20762 2.08411 8.41602 3.33411 12.3743C4.08411 14.7076 5.87581 16.4993 8.20911 17.2493C8.37581 17.3326 8.54251 17.2493 8.58411 17.0826C8.62581 17.041 8.62581 16.9993 8.62581 16.916V16.3326C8.62581 16.2076 8.50081 16.041 8.37581 15.9576ZM12.7925 2.95762C12.6258 2.87432 12.4591 2.95762 12.4175 3.12432C12.3758 3.16602 12.3758 3.20762 12.3758 3.29102V3.87432C12.3758 4.04102 12.5008 4.20762 12.6258 4.29102C15.8758 5.45762 17.5425 9.08262 16.3341 12.291C15.7091 14.041 14.3341 15.3743 12.6258 15.9993C12.4591 16.0826 12.3758 16.2076 12.3758 16.416V16.9993C12.3758 17.166 12.4591 17.291 12.6258 17.3326C12.6675 17.3326 12.7508 17.3326 12.7925 17.291C16.7508 16.041 18.9175 11.8326 17.6675 7.87432C16.9175 5.49932 15.0841 3.70762 12.7925 2.95762Z"
    fill="white" />
</svg>
