<svg width="20" height="20" viewBox="0 0 20 20" fill="none" xmlns="http://www.w3.org/2000/svg">
  <path
    d="M10 20C15.5228 20 20 15.5228 20 10C20 4.47715 15.5228 0 10 0C4.47715 0 0 4.47715 0 10C0 15.5228 4.47715 20 10 20Z"
    fill="#28B78E" />
  <path fill-rule="evenodd" clip-rule="evenodd"
    d="M11.2022 10.6199C11.1351 10.6247 10.7881 10.6446 10.0142 10.6446C9.39862 10.6446 8.96158 10.6268 8.80825 10.6199C6.42939 10.5194 4.65378 10.1217 4.65378 9.64551C4.65378 9.16935 6.42939 8.77219 8.80825 8.67008V10.2238C8.96381 10.2345 9.40925 10.2598 10.0248 10.2598C10.7635 10.2598 11.1334 10.2302 11.2 10.2243V8.67116C13.5738 8.77273 15.3455 9.17042 15.3455 9.64551C15.3455 10.1206 13.5744 10.5183 11.2 10.6193L11.2022 10.6199ZM11.2022 8.51047V7.12015H14.515V5H5.49542V7.12015H8.80768V8.50993C6.11545 8.6287 4.09082 9.14087 4.09082 9.75461C4.09082 10.3683 6.11545 10.88 8.80768 10.9993V15.4545H11.2017V10.9977C13.8877 10.8789 15.909 10.3673 15.909 9.75407C15.909 9.14087 13.8894 8.62924 11.2017 8.50993L11.2022 8.51047Z"
    fill="white" />
</svg>
