<svg width="24" height="20" viewBox="0 0 24 20" fill="none" xmlns="http://www.w3.org/2000/svg">
  <path
    d="M10 20C15.5228 20 20 15.5228 20 10C20 4.47715 15.5228 0 10 0C4.47715 0 0 4.47715 0 10C0 15.5228 4.47715 20 10 20Z"
    fill="#5065E4" />
  <path d="M9.99915 4.08984V8.45863L13.6341 10.1086L9.99915 4.08984Z" fill="white"
    fill-opacity="0.602" />
  <path d="M9.9991 4.08984L6.36365 10.1086L9.9991 8.45863V4.08984Z" fill="white" />
  <path d="M9.9989 12.9404V15.9089L13.6363 10.7969L9.9989 12.9404Z" fill="white"
    fill-opacity="0.602" />
  <path d="M9.99898 15.9089V12.9399L6.36353 10.7969L9.99898 15.9089Z" fill="white" />
  <path d="M9.9989 12.254L13.6339 10.1099L9.9989 8.46094V12.254Z" fill="white" fill-opacity="0.2" />
  <path d="M6.36353 10.1099L9.99898 12.254V8.46094L6.36353 10.1099Z" fill="white"
    fill-opacity="0.602" />
  <circle cx="19" cy="15" r="4.75" fill="#8247E5" stroke="#292929" stroke-width="0.5" />
  <g clip-path="url(#clip0_3016_1761)">
    <path
      d="M20.3433 13.9966C20.2474 13.9432 20.124 13.9432 20.0144 13.9966L19.2468 14.4373L18.726 14.7177L17.9721 15.1584C17.8762 15.2118 17.7529 15.2118 17.6432 15.1584L17.0538 14.8112C16.9579 14.7578 16.8894 14.6509 16.8894 14.5308V13.863C16.8894 13.7562 16.9442 13.6494 17.0538 13.5826L17.6432 13.2487C17.7391 13.1953 17.8625 13.1953 17.9721 13.2487L18.5615 13.596C18.6575 13.6494 18.726 13.7562 18.726 13.8764V14.3171L19.2468 14.0233V13.5692C19.2468 13.4624 19.192 13.3556 19.0823 13.2888L17.9859 12.6612C17.8899 12.6077 17.7666 12.6077 17.6569 12.6612L16.533 13.3022C16.4234 13.3556 16.3685 13.4624 16.3685 13.5692V14.8246C16.3685 14.9314 16.4234 15.0382 16.533 15.105L17.6432 15.7326C17.7391 15.7861 17.8625 15.7861 17.9721 15.7326L18.726 15.3053L19.2468 15.0115L20.0007 14.5842C20.0966 14.5308 20.22 14.5308 20.3296 14.5842L20.919 14.918C21.0149 14.9714 21.0834 15.0783 21.0834 15.1985V15.8662C21.0834 15.973 21.0286 16.0799 20.919 16.1466L20.3433 16.4805C20.2474 16.5339 20.124 16.5339 20.0144 16.4805L19.425 16.1466C19.3291 16.0932 19.2605 15.9864 19.2605 15.8662V15.4388L18.7397 15.7326V16.1733C18.7397 16.2802 18.7945 16.387 18.9042 16.4538L20.0144 17.0814C20.1103 17.1348 20.2337 17.1348 20.3433 17.0814L21.4535 16.4538C21.5495 16.4004 21.618 16.2935 21.618 16.1733V14.9047C21.618 14.7978 21.5632 14.691 21.4535 14.6242L20.3433 13.9966Z"
      fill="white" />
  </g>
  <defs>
    <clipPath id="clip0_3016_1761">
      <rect width="5.26316" height="4.47368" fill="white" transform="translate(16.3685 12.6328)" />
    </clipPath>
  </defs>
</svg>
