<svg width="25" height="20" viewBox="0 0 25 20" fill="none" xmlns="http://www.w3.org/2000/svg">
  <g clip-path="url(#clip0_3016_1761)">
    <path
      d="M9.84829 19.4017C15.064 19.4017 19.2601 15.2056 19.2601 9.98989C19.2601 4.77417 15.064 0.578125 9.84829 0.578125C4.63257 0.578125 0.436523 4.77417 0.436523 9.98989C0.436523 15.2056 4.63257 19.4017 9.84829 19.4017Z"
      fill="#2775CA" />
    <path
      d="M12.4366 11.477C12.4366 10.1045 11.613 9.63393 9.96601 9.43789C8.78955 9.28099 8.55426 8.9673 8.55426 8.41821C8.55426 7.86913 8.94644 7.51628 9.73072 7.51628C10.4366 7.51628 10.8288 7.75157 11.0248 8.33981C11.0641 8.45746 11.1817 8.53586 11.2994 8.53586H11.9267C12.0836 8.53586 12.2013 8.41821 12.2013 8.26141V8.22216C12.0444 7.35938 11.3385 6.69274 10.4366 6.61434V5.67316C10.4366 5.51627 10.3189 5.39862 10.1229 5.35938H9.53467C9.37778 5.35938 9.26013 5.47702 9.22089 5.67316V6.5751C8.04443 6.73199 7.29941 7.51628 7.29941 8.4967C7.29941 9.79083 8.08368 10.3006 9.73072 10.4967C10.8288 10.6928 11.1817 10.9281 11.1817 11.5555C11.1817 12.183 10.6326 12.6144 9.88761 12.6144C8.86795 12.6144 8.51502 12.1829 8.39737 11.5947C8.35822 11.4379 8.24057 11.3594 8.12293 11.3594H7.45621C7.29941 11.3594 7.18176 11.477 7.18176 11.6339V11.6732C7.33856 12.6535 7.96603 13.3594 9.26013 13.5555V14.4967C9.26013 14.6535 9.37778 14.7712 9.57382 14.8104H10.1621C10.3189 14.8104 10.4366 14.6928 10.4758 14.4967V13.5555C11.6523 13.3594 12.4366 12.5359 12.4366 11.477Z"
      fill="white" />
    <path
      d="M7.84921 15.5948C4.79039 14.4968 3.22173 11.085 4.35905 8.06535C4.94728 6.41829 6.2414 5.16342 7.84921 4.57518C8.0061 4.49678 8.08451 4.37914 8.08451 4.18299V3.63401C8.08451 3.47711 8.0061 3.35947 7.84921 3.32031C7.80996 3.32031 7.73156 3.32031 7.69232 3.35947C3.96686 4.53594 1.92761 8.49678 3.10408 12.2222C3.80996 14.4183 5.49627 16.1046 7.69232 16.8105C7.84921 16.8889 8.00611 16.8105 8.04526 16.6536C8.08451 16.6144 8.08451 16.5752 8.08451 16.4968V15.9477C8.08451 15.8301 7.96686 15.6733 7.84921 15.5948ZM12.0061 3.35947C11.8492 3.28107 11.6923 3.35947 11.6532 3.51636C11.6139 3.55561 11.6139 3.59476 11.6139 3.67325V4.22224C11.6139 4.37914 11.7316 4.53594 11.8492 4.61443C14.908 5.71241 16.4767 9.12417 15.3394 12.1438C14.7511 13.7909 13.457 15.0458 11.8492 15.634C11.6923 15.7124 11.6139 15.8301 11.6139 16.0262V16.5752C11.6139 16.7321 11.6923 16.8497 11.8492 16.8889C11.8885 16.8889 11.9669 16.8889 12.0061 16.8497C15.7316 15.6733 17.7708 11.7124 16.5943 7.98695C15.8885 5.75165 14.1629 4.06535 12.0061 3.35947Z"
      fill="white" />
  </g>
  <circle cx="20" cy="15" r="4.75" fill="#8247E5" stroke="#292929" stroke-width="0.5" />
  <g clip-path="url(#clip1_3016_1761)">
    <path
      d="M21.3433 13.9966C21.2474 13.9432 21.124 13.9432 21.0144 13.9966L20.2468 14.4373L19.726 14.7177L18.9721 15.1584C18.8762 15.2118 18.7529 15.2118 18.6432 15.1584L18.0538 14.8112C17.9579 14.7578 17.8894 14.6509 17.8894 14.5308V13.863C17.8894 13.7562 17.9442 13.6494 18.0538 13.5826L18.6432 13.2487C18.7391 13.1953 18.8625 13.1953 18.9721 13.2487L19.5615 13.596C19.6575 13.6494 19.726 13.7562 19.726 13.8764V14.3171L20.2468 14.0233V13.5692C20.2468 13.4624 20.192 13.3556 20.0823 13.2888L18.9859 12.6612C18.8899 12.6077 18.7666 12.6077 18.6569 12.6612L17.533 13.3022C17.4234 13.3556 17.3685 13.4624 17.3685 13.5692V14.8246C17.3685 14.9314 17.4234 15.0382 17.533 15.105L18.6432 15.7326C18.7391 15.7861 18.8625 15.7861 18.9721 15.7326L19.726 15.3053L20.2468 15.0115L21.0007 14.5842C21.0966 14.5308 21.22 14.5308 21.3296 14.5842L21.919 14.918C22.0149 14.9714 22.0834 15.0783 22.0834 15.1985V15.8662C22.0834 15.973 22.0286 16.0799 21.919 16.1466L21.3433 16.4805C21.2474 16.5339 21.124 16.5339 21.0144 16.4805L20.425 16.1466C20.3291 16.0932 20.2605 15.9864 20.2605 15.8662V15.4388L19.7397 15.7326V16.1733C19.7397 16.2802 19.7945 16.387 19.9042 16.4538L21.0144 17.0814C21.1103 17.1348 21.2337 17.1348 21.3433 17.0814L22.4535 16.4538C22.5495 16.4004 22.618 16.2935 22.618 16.1733V14.9047C22.618 14.7978 22.5632 14.691 22.4535 14.6242L21.3433 13.9966Z"
      fill="white" />
  </g>
  <defs>
    <clipPath id="clip0_3016_1761">
      <rect width="20" height="20" fill="white" />
    </clipPath>
    <clipPath id="clip1_3016_1761">
      <rect width="5.26316" height="4.47368" fill="white" transform="translate(17.3685 12.6328)" />
    </clipPath>
  </defs>
</svg>
